%TF.GenerationSoftware,KiCad,Pcbnew,7.0.10*%
%TF.CreationDate,2024-02-10T11:13:50-05:00*%
%TF.ProjectId,Nixie Clock,4e697869-6520-4436-9c6f-636b2e6b6963,rev?*%
%TF.SameCoordinates,Original*%
%TF.FileFunction,Legend,Bot*%
%TF.FilePolarity,Positive*%
%FSLAX46Y46*%
G04 Gerber Fmt 4.6, Leading zero omitted, Abs format (unit mm)*
G04 Created by KiCad (PCBNEW 7.0.10) date 2024-02-10 11:13:50*
%MOMM*%
%LPD*%
G01*
G04 APERTURE LIST*
%ADD10C,0.150000*%
%ADD11C,0.100000*%
%ADD12C,0.120000*%
G04 APERTURE END LIST*
D10*
X178561904Y-90559819D02*
X178561904Y-91369342D01*
X178561904Y-91369342D02*
X178514285Y-91464580D01*
X178514285Y-91464580D02*
X178466666Y-91512200D01*
X178466666Y-91512200D02*
X178371428Y-91559819D01*
X178371428Y-91559819D02*
X178180952Y-91559819D01*
X178180952Y-91559819D02*
X178085714Y-91512200D01*
X178085714Y-91512200D02*
X178038095Y-91464580D01*
X178038095Y-91464580D02*
X177990476Y-91369342D01*
X177990476Y-91369342D02*
X177990476Y-90559819D01*
X177038095Y-90559819D02*
X177514285Y-90559819D01*
X177514285Y-90559819D02*
X177561904Y-91036009D01*
X177561904Y-91036009D02*
X177514285Y-90988390D01*
X177514285Y-90988390D02*
X177419047Y-90940771D01*
X177419047Y-90940771D02*
X177180952Y-90940771D01*
X177180952Y-90940771D02*
X177085714Y-90988390D01*
X177085714Y-90988390D02*
X177038095Y-91036009D01*
X177038095Y-91036009D02*
X176990476Y-91131247D01*
X176990476Y-91131247D02*
X176990476Y-91369342D01*
X176990476Y-91369342D02*
X177038095Y-91464580D01*
X177038095Y-91464580D02*
X177085714Y-91512200D01*
X177085714Y-91512200D02*
X177180952Y-91559819D01*
X177180952Y-91559819D02*
X177419047Y-91559819D01*
X177419047Y-91559819D02*
X177514285Y-91512200D01*
X177514285Y-91512200D02*
X177561904Y-91464580D01*
X200054819Y-60896666D02*
X199578628Y-60563333D01*
X200054819Y-60325238D02*
X199054819Y-60325238D01*
X199054819Y-60325238D02*
X199054819Y-60706190D01*
X199054819Y-60706190D02*
X199102438Y-60801428D01*
X199102438Y-60801428D02*
X199150057Y-60849047D01*
X199150057Y-60849047D02*
X199245295Y-60896666D01*
X199245295Y-60896666D02*
X199388152Y-60896666D01*
X199388152Y-60896666D02*
X199483390Y-60849047D01*
X199483390Y-60849047D02*
X199531009Y-60801428D01*
X199531009Y-60801428D02*
X199578628Y-60706190D01*
X199578628Y-60706190D02*
X199578628Y-60325238D01*
X199531009Y-61325238D02*
X199531009Y-61658571D01*
X200054819Y-61801428D02*
X200054819Y-61325238D01*
X200054819Y-61325238D02*
X199054819Y-61325238D01*
X199054819Y-61325238D02*
X199054819Y-61801428D01*
X199531009Y-62563333D02*
X199531009Y-62230000D01*
X200054819Y-62230000D02*
X199054819Y-62230000D01*
X199054819Y-62230000D02*
X199054819Y-62706190D01*
X199054819Y-63230000D02*
X199292914Y-63230000D01*
X199197676Y-62991905D02*
X199292914Y-63230000D01*
X199292914Y-63230000D02*
X199197676Y-63468095D01*
X199483390Y-63087143D02*
X199292914Y-63230000D01*
X199292914Y-63230000D02*
X199483390Y-63372857D01*
X199054819Y-63991905D02*
X199292914Y-63991905D01*
X199197676Y-63753810D02*
X199292914Y-63991905D01*
X199292914Y-63991905D02*
X199197676Y-64230000D01*
X199483390Y-63849048D02*
X199292914Y-63991905D01*
X199292914Y-63991905D02*
X199483390Y-64134762D01*
D11*
%TO.C,U5*%
X184235000Y-90255000D02*
X184235000Y-88605000D01*
X184235000Y-77385000D02*
X184235000Y-79035000D01*
X182585000Y-90255000D02*
X184235000Y-90255000D01*
X182585000Y-77385000D02*
X184235000Y-77385000D01*
X173015000Y-90255000D02*
X172515000Y-90255000D01*
X173015000Y-77385000D02*
X171365000Y-77385000D01*
X172515000Y-90255000D02*
X171365000Y-89105000D01*
X171365000Y-89105000D02*
X171365000Y-88605000D01*
X171365000Y-77385000D02*
X171365000Y-79035000D01*
D12*
%TO.C,REF\u002A\u002A*%
X210880000Y-60900000D02*
X210880000Y-63560000D01*
X210310000Y-60900000D02*
X210880000Y-60900000D01*
X205230000Y-60900000D02*
X208790000Y-60900000D01*
X200600000Y-60900000D02*
X203710000Y-60900000D01*
X200600000Y-60900000D02*
X200600000Y-63560000D01*
X207770000Y-63560000D02*
X210880000Y-63560000D01*
X202690000Y-63560000D02*
X206250000Y-63560000D01*
X201170000Y-63560000D02*
X201170000Y-65080000D01*
X200600000Y-63560000D02*
X201170000Y-63560000D01*
X155000000Y-60900000D02*
X155000000Y-63560000D01*
X154430000Y-60900000D02*
X155000000Y-60900000D01*
X149350000Y-60900000D02*
X152910000Y-60900000D01*
X144720000Y-60900000D02*
X147830000Y-60900000D01*
X144720000Y-60900000D02*
X144720000Y-63560000D01*
X151890000Y-63560000D02*
X155000000Y-63560000D01*
X146810000Y-63560000D02*
X150370000Y-63560000D01*
X145290000Y-63560000D02*
X145290000Y-65080000D01*
X144720000Y-63560000D02*
X145290000Y-63560000D01*
%TD*%
M02*
