%TF.GenerationSoftware,KiCad,Pcbnew,7.0.10*%
%TF.CreationDate,2024-02-10T11:13:50-05:00*%
%TF.ProjectId,Nixie Clock,4e697869-6520-4436-9c6f-636b2e6b6963,rev?*%
%TF.SameCoordinates,Original*%
%TF.FileFunction,Soldermask,Bot*%
%TF.FilePolarity,Negative*%
%FSLAX46Y46*%
G04 Gerber Fmt 4.6, Leading zero omitted, Abs format (unit mm)*
G04 Created by KiCad (PCBNEW 7.0.10) date 2024-02-10 11:13:50*
%MOMM*%
%LPD*%
G01*
G04 APERTURE LIST*
%ADD10C,0.500000*%
%ADD11C,2.800000*%
%ADD12R,0.700000X1.925000*%
%ADD13R,1.925000X0.700000*%
%ADD14R,1.000000X2.510000*%
G04 APERTURE END LIST*
D10*
%TO.C,mouse-bite-2.54mm-slot*%
X202400000Y-109390000D03*
X202400000Y-111590000D03*
X203200000Y-109390000D03*
X203200000Y-111590000D03*
X204000000Y-109390000D03*
X204000000Y-111590000D03*
%TD*%
%TO.C,mouse-bite-2.54mm-slot*%
X177000000Y-109390000D03*
X177000000Y-111590000D03*
X177800000Y-109390000D03*
X177800000Y-111590000D03*
X178600000Y-109390000D03*
X178600000Y-111590000D03*
%TD*%
%TO.C,mouse-bite-2.54mm-slot*%
X152400000Y-109390000D03*
X152400000Y-111590000D03*
X153200000Y-109390000D03*
X151600000Y-109390000D03*
X151600000Y-111590000D03*
X153200000Y-111590000D03*
%TD*%
D11*
%TO.C,U3*%
X188413106Y-86793524D03*
X190755218Y-88822975D03*
X193822731Y-89264017D03*
X196641733Y-87976622D03*
X198317211Y-85369529D03*
X198317211Y-82270471D03*
X196641734Y-79663378D03*
X193822732Y-78375983D03*
X190755218Y-78817025D03*
X188413106Y-80846476D03*
%TD*%
%TO.C,U1*%
X132533106Y-86793524D03*
X134875218Y-88822975D03*
X137942731Y-89264017D03*
X140761733Y-87976622D03*
X142437211Y-85369529D03*
X142437211Y-82270471D03*
X140761734Y-79663378D03*
X137942732Y-78375983D03*
X134875218Y-78817025D03*
X132533106Y-80846476D03*
%TD*%
%TO.C,U2*%
X157933106Y-86793524D03*
X160275218Y-88822975D03*
X163342731Y-89264017D03*
X166161733Y-87976622D03*
X167837211Y-85369529D03*
X167837211Y-82270471D03*
X166161734Y-79663378D03*
X163342732Y-78375983D03*
X160275218Y-78817025D03*
X157933106Y-80846476D03*
%TD*%
%TO.C,U4*%
X213813106Y-86793524D03*
X216155218Y-88822975D03*
X219222731Y-89264017D03*
X222041733Y-87976622D03*
X223717211Y-85369529D03*
X223717211Y-82270471D03*
X222041734Y-79663378D03*
X219222732Y-78375983D03*
X216155218Y-78817025D03*
X213813106Y-80846476D03*
%TD*%
D12*
%TO.C,U5*%
X179070000Y-89142500D03*
X180340000Y-89142500D03*
X181610000Y-89142500D03*
D13*
X183122500Y-87630000D03*
X183122500Y-86360000D03*
X183122500Y-85090000D03*
X183122500Y-83820000D03*
X183122500Y-82550000D03*
X183122500Y-81280000D03*
X183122500Y-80010000D03*
D12*
X181610000Y-78497500D03*
X180340000Y-78497500D03*
X179070000Y-78497500D03*
X177800000Y-78497500D03*
X176530000Y-78497500D03*
X175260000Y-78497500D03*
X173990000Y-78497500D03*
D13*
X172477500Y-80010000D03*
X172477500Y-81280000D03*
X172477500Y-82550000D03*
X172477500Y-83820000D03*
X172477500Y-85090000D03*
X172477500Y-86360000D03*
X172477500Y-87630000D03*
D12*
X173990000Y-89142500D03*
X175260000Y-89142500D03*
X176530000Y-89142500D03*
X177800000Y-89142500D03*
%TD*%
D14*
%TO.C,REF\u002A\u002A*%
X201930000Y-63885000D03*
X204470000Y-60575000D03*
X207010000Y-63885000D03*
X209550000Y-60575000D03*
%TD*%
%TO.C,REF\u002A\u002A*%
X146050000Y-63885000D03*
X148590000Y-60575000D03*
X151130000Y-63885000D03*
X153670000Y-60575000D03*
%TD*%
M02*
