%TF.GenerationSoftware,KiCad,Pcbnew,7.0.10*%
%TF.CreationDate,2024-02-10T11:13:50-05:00*%
%TF.ProjectId,Nixie Clock,4e697869-6520-4436-9c6f-636b2e6b6963,rev?*%
%TF.SameCoordinates,Original*%
%TF.FileFunction,Copper,L1,Top*%
%TF.FilePolarity,Positive*%
%FSLAX46Y46*%
G04 Gerber Fmt 4.6, Leading zero omitted, Abs format (unit mm)*
G04 Created by KiCad (PCBNEW 7.0.10) date 2024-02-10 11:13:50*
%MOMM*%
%LPD*%
G01*
G04 APERTURE LIST*
G04 Aperture macros list*
%AMRoundRect*
0 Rectangle with rounded corners*
0 $1 Rounding radius*
0 $2 $3 $4 $5 $6 $7 $8 $9 X,Y pos of 4 corners*
0 Add a 4 corners polygon primitive as box body*
4,1,4,$2,$3,$4,$5,$6,$7,$8,$9,$2,$3,0*
0 Add four circle primitives for the rounded corners*
1,1,$1+$1,$2,$3*
1,1,$1+$1,$4,$5*
1,1,$1+$1,$6,$7*
1,1,$1+$1,$8,$9*
0 Add four rect primitives between the rounded corners*
20,1,$1+$1,$2,$3,$4,$5,0*
20,1,$1+$1,$4,$5,$6,$7,0*
20,1,$1+$1,$6,$7,$8,$9,0*
20,1,$1+$1,$8,$9,$2,$3,0*%
G04 Aperture macros list end*
%TA.AperFunction,SMDPad,CuDef*%
%ADD10R,0.700000X0.700000*%
%TD*%
%TA.AperFunction,SMDPad,CuDef*%
%ADD11R,1.500000X0.900000*%
%TD*%
%TA.AperFunction,SMDPad,CuDef*%
%ADD12R,0.900000X1.500000*%
%TD*%
%TA.AperFunction,HeatsinkPad*%
%ADD13C,0.600000*%
%TD*%
%TA.AperFunction,SMDPad,CuDef*%
%ADD14R,3.900000X3.900000*%
%TD*%
%TA.AperFunction,SMDPad,CuDef*%
%ADD15RoundRect,0.300000X0.450000X-0.300000X0.450000X0.300000X-0.450000X0.300000X-0.450000X-0.300000X0*%
%TD*%
%TA.AperFunction,SMDPad,CuDef*%
%ADD16RoundRect,0.055000X0.195000X-0.055000X0.195000X0.055000X-0.195000X0.055000X-0.195000X-0.055000X0*%
%TD*%
%TA.AperFunction,ComponentPad*%
%ADD17C,2.800000*%
%TD*%
%TA.AperFunction,SMDPad,CuDef*%
%ADD18R,2.510000X1.000000*%
%TD*%
%TA.AperFunction,ViaPad*%
%ADD19C,0.800000*%
%TD*%
%TA.AperFunction,Conductor*%
%ADD20C,0.250000*%
%TD*%
G04 APERTURE END LIST*
D10*
%TO.P,D1,1,DOUT*%
%TO.N,Net-(D1-DOUT)*%
X189230000Y-130562000D03*
%TO.P,D1,2,VSS*%
%TO.N,GND*%
X189230000Y-131662000D03*
%TO.P,D1,3,DIN*%
%TO.N,LED*%
X191060000Y-131662000D03*
%TO.P,D1,4,VDD*%
%TO.N,+5V*%
X191060000Y-130562000D03*
%TD*%
%TO.P,D3,1,DOUT*%
%TO.N,Net-(D3-DOUT)*%
X189230000Y-137662000D03*
%TO.P,D3,2,VSS*%
%TO.N,GND*%
X189230000Y-138762000D03*
%TO.P,D3,3,DIN*%
%TO.N,Net-(D2-DOUT)*%
X191060000Y-138762000D03*
%TO.P,D3,4,VDD*%
%TO.N,+5V*%
X191060000Y-137662000D03*
%TD*%
%TO.P,D4,1,DOUT*%
%TO.N,Net-(D4-DOUT)*%
X189230000Y-141212000D03*
%TO.P,D4,2,VSS*%
%TO.N,GND*%
X189230000Y-142312000D03*
%TO.P,D4,3,DIN*%
%TO.N,Net-(D3-DOUT)*%
X191060000Y-142312000D03*
%TO.P,D4,4,VDD*%
%TO.N,+5V*%
X191060000Y-141212000D03*
%TD*%
%TO.P,D5,1,DOUT*%
%TO.N,Net-(D5-DOUT)*%
X189230000Y-144762000D03*
%TO.P,D5,2,VSS*%
%TO.N,GND*%
X189230000Y-145862000D03*
%TO.P,D5,3,DIN*%
%TO.N,Net-(D4-DOUT)*%
X191060000Y-145862000D03*
%TO.P,D5,4,VDD*%
%TO.N,+5V*%
X191060000Y-144762000D03*
%TD*%
%TO.P,D6,1,DOUT*%
%TO.N,Net-(D6-DOUT)*%
X193320000Y-130562000D03*
%TO.P,D6,2,VSS*%
%TO.N,GND*%
X193320000Y-131662000D03*
%TO.P,D6,3,DIN*%
%TO.N,Net-(D5-DOUT)*%
X195150000Y-131662000D03*
%TO.P,D6,4,VDD*%
%TO.N,+5V*%
X195150000Y-130562000D03*
%TD*%
%TO.P,D7,1,DOUT*%
%TO.N,Net-(D7-DOUT)*%
X193320000Y-134112000D03*
%TO.P,D7,2,VSS*%
%TO.N,GND*%
X193320000Y-135212000D03*
%TO.P,D7,3,DIN*%
%TO.N,Net-(D6-DOUT)*%
X195150000Y-135212000D03*
%TO.P,D7,4,VDD*%
%TO.N,+5V*%
X195150000Y-134112000D03*
%TD*%
%TO.P,D8,1,DOUT*%
%TO.N,unconnected-(D8-DOUT-Pad1)*%
X193320000Y-137662000D03*
%TO.P,D8,2,VSS*%
%TO.N,GND*%
X193320000Y-138762000D03*
%TO.P,D8,3,DIN*%
%TO.N,Net-(D7-DOUT)*%
X195150000Y-138762000D03*
%TO.P,D8,4,VDD*%
%TO.N,+5V*%
X195150000Y-137662000D03*
%TD*%
%TO.P,D2,1,DOUT*%
%TO.N,Net-(D2-DOUT)*%
X189230000Y-134112000D03*
%TO.P,D2,2,VSS*%
%TO.N,GND*%
X189230000Y-135212000D03*
%TO.P,D2,3,DIN*%
%TO.N,Net-(D1-DOUT)*%
X191060000Y-135212000D03*
%TO.P,D2,4,VDD*%
%TO.N,+5V*%
X191060000Y-134112000D03*
%TD*%
D11*
%TO.P,U6,1,GND*%
%TO.N,GND*%
X140448000Y-139538000D03*
%TO.P,U6,2,VCC*%
%TO.N,+3V3*%
X140448000Y-140808000D03*
%TO.P,U6,3,EN*%
%TO.N,RST*%
X140448000Y-142078000D03*
%TO.P,U6,4,IO4*%
%TO.N,unconnected-(U6-IO4-Pad4)*%
X140448000Y-143348000D03*
%TO.P,U6,5,IO5*%
%TO.N,unconnected-(U6-IO5-Pad5)*%
X140448000Y-144618000D03*
%TO.P,U6,6,IO6*%
%TO.N,BLANK*%
X140448000Y-145888000D03*
%TO.P,U6,7,IO7*%
%TO.N,STROBE*%
X140448000Y-147158000D03*
%TO.P,U6,8,IO15*%
%TO.N,unconnected-(U6-IO15-Pad8)*%
X140448000Y-148428000D03*
%TO.P,U6,9,IO16*%
%TO.N,Data IN*%
X140448000Y-149698000D03*
%TO.P,U6,10,IO17*%
%TO.N,unconnected-(U6-IO17-Pad10)*%
X140448000Y-150968000D03*
%TO.P,U6,11,IO18*%
%TO.N,CLK*%
X140448000Y-152238000D03*
%TO.P,U6,12,IO8*%
%TO.N,unconnected-(U6-IO8-Pad12)*%
X140448000Y-153508000D03*
%TO.P,U6,13,IO19*%
%TO.N,LED*%
X140448000Y-154778000D03*
%TO.P,U6,14,IO20*%
%TO.N,unconnected-(U6-IO20-Pad14)*%
X140448000Y-156048000D03*
D12*
%TO.P,U6,15,IO3*%
%TO.N,unconnected-(U6-IO3-Pad15)*%
X142213000Y-157298000D03*
%TO.P,U6,16,IO46*%
%TO.N,unconnected-(U6-IO46-Pad16)*%
X143483000Y-157298000D03*
%TO.P,U6,17,IO9*%
%TO.N,unconnected-(U6-IO9-Pad17)*%
X144753000Y-157298000D03*
%TO.P,U6,18,IO10*%
%TO.N,unconnected-(U6-IO10-Pad18)*%
X146023000Y-157298000D03*
%TO.P,U6,19,IO11*%
%TO.N,unconnected-(U6-IO11-Pad19)*%
X147293000Y-157298000D03*
%TO.P,U6,20,IO12*%
%TO.N,unconnected-(U6-IO12-Pad20)*%
X148563000Y-157298000D03*
%TO.P,U6,21,IO13*%
%TO.N,unconnected-(U6-IO13-Pad21)*%
X149833000Y-157298000D03*
%TO.P,U6,22,IO14*%
%TO.N,unconnected-(U6-IO14-Pad22)*%
X151103000Y-157298000D03*
%TO.P,U6,23,IO21*%
%TO.N,unconnected-(U6-IO21-Pad23)*%
X152373000Y-157298000D03*
%TO.P,U6,24,IO33*%
%TO.N,unconnected-(U6-IO33-Pad24)*%
X153643000Y-157298000D03*
%TO.P,U6,25,IO34*%
%TO.N,unconnected-(U6-IO34-Pad25)*%
X154913000Y-157298000D03*
%TO.P,U6,26,IO45*%
%TO.N,unconnected-(U6-IO45-Pad26)*%
X156183000Y-157298000D03*
D11*
%TO.P,U6,27,IO0*%
%TO.N,Net-(U6-IO0)*%
X157948000Y-156048000D03*
%TO.P,U6,28,IO35*%
%TO.N,unconnected-(U6-IO35-Pad28)*%
X157948000Y-154778000D03*
%TO.P,U6,29,IO36*%
%TO.N,unconnected-(U6-IO36-Pad29)*%
X157948000Y-153508000D03*
%TO.P,U6,30,IO37*%
%TO.N,unconnected-(U6-IO37-Pad30)*%
X157948000Y-152238000D03*
%TO.P,U6,31,IO38*%
%TO.N,unconnected-(U6-IO38-Pad31)*%
X157948000Y-150968000D03*
%TO.P,U6,32,IO39*%
%TO.N,unconnected-(U6-IO39-Pad32)*%
X157948000Y-149698000D03*
%TO.P,U6,33,IO40*%
%TO.N,unconnected-(U6-IO40-Pad33)*%
X157948000Y-148428000D03*
%TO.P,U6,34,IO41*%
%TO.N,unconnected-(U6-IO41-Pad34)*%
X157948000Y-147158000D03*
%TO.P,U6,35,IO42*%
%TO.N,unconnected-(U6-IO42-Pad35)*%
X157948000Y-145888000D03*
%TO.P,U6,36,RX*%
%TO.N,RX*%
X157948000Y-144618000D03*
%TO.P,U6,37,TX*%
%TO.N,TX*%
X157948000Y-143348000D03*
%TO.P,U6,38,IO2*%
%TO.N,SCL*%
X157948000Y-142078000D03*
%TO.P,U6,39,IO1*%
%TO.N,SDA*%
X157948000Y-140808000D03*
%TO.P,U6,40,GND*%
%TO.N,GND*%
X157948000Y-139538000D03*
D13*
%TO.P,U6,41,EPAD*%
X148398000Y-147258000D03*
X146998000Y-145858000D03*
X147698000Y-147958000D03*
X149098000Y-146558000D03*
X147698000Y-146558000D03*
X149098000Y-147958000D03*
X146298000Y-147958000D03*
X146998000Y-147258000D03*
D14*
X147698000Y-147258000D03*
D13*
X148398000Y-145858000D03*
X148398000Y-148658000D03*
X146998000Y-148658000D03*
X146298000Y-146558000D03*
%TD*%
D15*
%TO.P,PD1,*%
%TO.N,*%
X171196000Y-149606000D03*
D16*
%TO.P,PD1,1*%
%TO.N,N/C*%
X169926000Y-149098000D03*
%TO.P,PD1,2*%
X169926000Y-149606000D03*
%TO.P,PD1,3*%
X169926000Y-150114000D03*
%TO.P,PD1,4*%
X172466000Y-150114000D03*
%TO.P,PD1,5*%
X172466000Y-149606000D03*
%TO.P,PD1,6*%
X172466000Y-149098000D03*
%TD*%
D17*
%TO.P,U3,1,e*%
%TO.N,E*%
X188413106Y-86793524D03*
%TO.P,U3,2,K+*%
%TO.N,+HEATER*%
X190755218Y-88822975D03*
%TO.P,U3,3,K-*%
%TO.N,GND*%
X193822731Y-89264017D03*
%TO.P,U3,4,Grid*%
%TO.N,Grid3*%
X196641733Y-87976622D03*
%TO.P,U3,5,d*%
%TO.N,D*%
X198317211Y-85369529D03*
%TO.P,U3,6,c*%
%TO.N,C*%
X198317211Y-82270471D03*
%TO.P,U3,7,b*%
%TO.N,B*%
X196641734Y-79663378D03*
%TO.P,U3,8,a*%
%TO.N,A*%
X193822732Y-78375983D03*
%TO.P,U3,9,g*%
%TO.N,G*%
X190755218Y-78817025D03*
%TO.P,U3,10,f*%
%TO.N,F*%
X188413106Y-80846476D03*
%TD*%
D18*
%TO.P,J3,1,Pin_1*%
%TO.N,+GRID*%
X212158000Y-116332000D03*
%TO.P,J3,2,Pin_2*%
%TO.N,GND*%
X215468000Y-118872000D03*
%TO.P,J3,3,Pin_3*%
X212158000Y-121412000D03*
%TO.P,J3,4,Pin_4*%
%TO.N,F2*%
X215468000Y-123952000D03*
%TO.P,J3,5,Pin_5*%
%TO.N,G2*%
X212158000Y-126492000D03*
%TO.P,J3,6,Pin_6*%
%TO.N,A2*%
X215468000Y-129032000D03*
%TO.P,J3,7,Pin_7*%
%TO.N,B2*%
X212158000Y-131572000D03*
%TO.P,J3,8,Pin_8*%
%TO.N,C2*%
X215468000Y-134112000D03*
%TO.P,J3,9,Pin_9*%
%TO.N,D2*%
X212158000Y-136652000D03*
%TO.P,J3,10,Pin_10*%
%TO.N,E2*%
X215468000Y-139192000D03*
%TO.P,J3,11,Pin_11*%
%TO.N,GND*%
X212158000Y-141732000D03*
%TO.P,J3,12,Pin_12*%
%TO.N,F1*%
X215468000Y-144272000D03*
%TO.P,J3,13,Pin_13*%
%TO.N,G1*%
X212158000Y-146812000D03*
%TO.P,J3,14,Pin_14*%
%TO.N,A1*%
X215468000Y-149352000D03*
%TO.P,J3,15,Pin_15*%
%TO.N,B1*%
X212158000Y-151892000D03*
%TO.P,J3,16,Pin_16*%
%TO.N,C1*%
X215468000Y-154432000D03*
%TO.P,J3,17,Pin_17*%
%TO.N,D1*%
X212158000Y-156972000D03*
%TO.P,J3,18,Pin_18*%
%TO.N,E1*%
X215468000Y-159512000D03*
%TD*%
D15*
%TO.P,REF\u002A\u002A,*%
%TO.N,*%
X177800000Y-63754000D03*
D16*
%TO.P,REF\u002A\u002A,1*%
%TO.N,N/C*%
X176530000Y-63246000D03*
%TO.P,REF\u002A\u002A,2*%
X176530000Y-63754000D03*
%TO.P,REF\u002A\u002A,3*%
X176530000Y-64262000D03*
%TO.P,REF\u002A\u002A,4*%
X179070000Y-64262000D03*
%TO.P,REF\u002A\u002A,5*%
X179070000Y-63754000D03*
%TO.P,REF\u002A\u002A,6*%
X179070000Y-63246000D03*
%TD*%
D17*
%TO.P,U1,1,e*%
%TO.N,E*%
X132533106Y-86793524D03*
%TO.P,U1,2,K+*%
%TO.N,+HEATER*%
X134875218Y-88822975D03*
%TO.P,U1,3,K-*%
%TO.N,GND*%
X137942731Y-89264017D03*
%TO.P,U1,4,Grid*%
%TO.N,Grid1*%
X140761733Y-87976622D03*
%TO.P,U1,5,d*%
%TO.N,D*%
X142437211Y-85369529D03*
%TO.P,U1,6,c*%
%TO.N,C*%
X142437211Y-82270471D03*
%TO.P,U1,7,b*%
%TO.N,B*%
X140761734Y-79663378D03*
%TO.P,U1,8,a*%
%TO.N,A*%
X137942732Y-78375983D03*
%TO.P,U1,9,g*%
%TO.N,G*%
X134875218Y-78817025D03*
%TO.P,U1,10,f*%
%TO.N,F*%
X132533106Y-80846476D03*
%TD*%
D18*
%TO.P,J1,1,Pin_1*%
%TO.N,E3*%
X204208000Y-116332000D03*
%TO.P,J1,2,Pin_2*%
%TO.N,D3*%
X207518000Y-118872000D03*
%TO.P,J1,3,Pin_3*%
%TO.N,C3*%
X204208000Y-121412000D03*
%TO.P,J1,4,Pin_4*%
%TO.N,B3*%
X207518000Y-123952000D03*
%TO.P,J1,5,Pin_5*%
%TO.N,A3*%
X204208000Y-126492000D03*
%TO.P,J1,6,Pin_6*%
%TO.N,G3*%
X207518000Y-129032000D03*
%TO.P,J1,7,Pin_7*%
%TO.N,F3*%
X204208000Y-131572000D03*
%TO.P,J1,8,Pin_8*%
%TO.N,GND*%
X207518000Y-134112000D03*
%TO.P,J1,9,Pin_9*%
%TO.N,E4*%
X204208000Y-136652000D03*
%TO.P,J1,10,Pin_10*%
%TO.N,D4*%
X207518000Y-139192000D03*
%TO.P,J1,11,Pin_11*%
%TO.N,C4*%
X204208000Y-141732000D03*
%TO.P,J1,12,Pin_12*%
%TO.N,B4*%
X207518000Y-144272000D03*
%TO.P,J1,13,Pin_13*%
%TO.N,A4*%
X204208000Y-146812000D03*
%TO.P,J1,14,Pin_14*%
%TO.N,G4*%
X207518000Y-149352000D03*
%TO.P,J1,15,Pin_15*%
%TO.N,F4*%
X204208000Y-151892000D03*
%TO.P,J1,16,Pin_16*%
%TO.N,GND*%
X207518000Y-154432000D03*
%TO.P,J1,17,Pin_17*%
X204208000Y-156972000D03*
%TO.P,J1,18,Pin_18*%
%TO.N,+HEATER*%
X207518000Y-159512000D03*
%TD*%
D17*
%TO.P,U2,1,e*%
%TO.N,E*%
X157933106Y-86793524D03*
%TO.P,U2,2,K+*%
%TO.N,+HEATER*%
X160275218Y-88822975D03*
%TO.P,U2,3,K-*%
%TO.N,GND*%
X163342731Y-89264017D03*
%TO.P,U2,4,Grid*%
%TO.N,Grid2*%
X166161733Y-87976622D03*
%TO.P,U2,5,d*%
%TO.N,D*%
X167837211Y-85369529D03*
%TO.P,U2,6,c*%
%TO.N,C*%
X167837211Y-82270471D03*
%TO.P,U2,7,b*%
%TO.N,B*%
X166161734Y-79663378D03*
%TO.P,U2,8,a*%
%TO.N,A*%
X163342732Y-78375983D03*
%TO.P,U2,9,g*%
%TO.N,G*%
X160275218Y-78817025D03*
%TO.P,U2,10,f*%
%TO.N,F*%
X157933106Y-80846476D03*
%TD*%
%TO.P,U4,1,e*%
%TO.N,E*%
X213813106Y-86793524D03*
%TO.P,U4,2,K+*%
%TO.N,+HEATER*%
X216155218Y-88822975D03*
%TO.P,U4,3,K-*%
%TO.N,GND*%
X219222731Y-89264017D03*
%TO.P,U4,4,Grid*%
%TO.N,Grid4*%
X222041733Y-87976622D03*
%TO.P,U4,5,d*%
%TO.N,D*%
X223717211Y-85369529D03*
%TO.P,U4,6,c*%
%TO.N,C*%
X223717211Y-82270471D03*
%TO.P,U4,7,b*%
%TO.N,B*%
X222041734Y-79663378D03*
%TO.P,U4,8,a*%
%TO.N,A*%
X219222732Y-78375983D03*
%TO.P,U4,9,g*%
%TO.N,G*%
X216155218Y-78817025D03*
%TO.P,U4,10,f*%
%TO.N,F*%
X213813106Y-80846476D03*
%TD*%
D19*
%TO.N,F*%
X213614000Y-76200000D03*
X188214000Y-76200000D03*
X157734000Y-76200000D03*
X132334000Y-76200000D03*
%TO.N,G*%
X216154000Y-74168000D03*
X190755218Y-74168000D03*
X160275218Y-74168000D03*
X134874000Y-74168000D03*
%TO.N,A*%
X219202000Y-73152000D03*
X193822732Y-73172732D03*
X163322000Y-73152000D03*
X137922000Y-73152000D03*
%TO.N,B*%
X196641734Y-72136000D03*
X140716000Y-72136000D03*
X166116000Y-72136000D03*
X221996000Y-72136000D03*
%TO.N,C*%
X168402000Y-71120000D03*
X199136000Y-71120000D03*
X224028000Y-71120000D03*
X142748000Y-71120000D03*
%TO.N,D*%
X200660000Y-70104000D03*
X225806000Y-70104000D03*
X144526000Y-70104000D03*
X169926000Y-70104000D03*
%TO.N,E*%
X129794000Y-76200000D03*
X185674000Y-75184000D03*
X211074000Y-75184000D03*
X155194000Y-75184000D03*
%TD*%
D20*
%TO.N,F*%
X213614000Y-76200000D02*
X213614000Y-80647370D01*
X188214000Y-80647370D02*
X188413106Y-80846476D01*
X132334000Y-76200000D02*
X132334000Y-80647370D01*
X157933106Y-80846476D02*
X157734000Y-80647370D01*
X188214000Y-76200000D02*
X188214000Y-80647370D01*
X157734000Y-80647370D02*
X157734000Y-76200000D01*
X213614000Y-80647370D02*
X213813106Y-80846476D01*
X132334000Y-80647370D02*
X132533106Y-80846476D01*
%TO.N,G*%
X190755218Y-74168000D02*
X190755218Y-78817025D01*
X216154000Y-74168000D02*
X216155218Y-74169218D01*
X160275218Y-74168000D02*
X160275218Y-78817025D01*
X134874000Y-74168000D02*
X134875218Y-74169218D01*
X216155218Y-74169218D02*
X216155218Y-78817025D01*
X134875218Y-74169218D02*
X134875218Y-78817025D01*
%TO.N,A*%
X163342732Y-73172732D02*
X163322000Y-73152000D01*
X163342732Y-78375983D02*
X163342732Y-73172732D01*
X137942732Y-73172732D02*
X137942732Y-78375983D01*
X219202000Y-73152000D02*
X219222732Y-73172732D01*
X219222732Y-73172732D02*
X219222732Y-78375983D01*
X193822732Y-73172732D02*
X193822732Y-78375983D01*
X137922000Y-73152000D02*
X137942732Y-73172732D01*
%TO.N,B*%
X140716000Y-72136000D02*
X140761734Y-72181734D01*
X140761734Y-72181734D02*
X140761734Y-79663378D01*
X196641734Y-72136000D02*
X196641734Y-79663378D01*
X222041734Y-72181734D02*
X222041734Y-79663378D01*
X166161734Y-72181734D02*
X166161734Y-79663378D01*
X166116000Y-72136000D02*
X166161734Y-72181734D01*
X221996000Y-72136000D02*
X222041734Y-72181734D01*
%TO.N,C*%
X224028000Y-71120000D02*
X224028000Y-81959682D01*
X142748000Y-81959682D02*
X142437211Y-82270471D01*
X142748000Y-71120000D02*
X142748000Y-81959682D01*
X167837211Y-82270471D02*
X168402000Y-81705682D01*
X168402000Y-81705682D02*
X168402000Y-71120000D01*
X199136000Y-81451682D02*
X198317211Y-82270471D01*
X199136000Y-71120000D02*
X199136000Y-81451682D01*
X224028000Y-81959682D02*
X223717211Y-82270471D01*
%TO.N,D*%
X144526000Y-70104000D02*
X144526000Y-83280740D01*
X169926000Y-83280740D02*
X167837211Y-85369529D01*
X200660000Y-83026740D02*
X198317211Y-85369529D01*
X200660000Y-70104000D02*
X200660000Y-83026740D01*
X169926000Y-70104000D02*
X169926000Y-83280740D01*
X225806000Y-70104000D02*
X225806000Y-83280740D01*
X225806000Y-83280740D02*
X223717211Y-85369529D01*
X144526000Y-83280740D02*
X142437211Y-85369529D01*
%TO.N,E*%
X185674000Y-84054418D02*
X188413106Y-86793524D01*
X185674000Y-75184000D02*
X185674000Y-84054418D01*
X155194000Y-75184000D02*
X155194000Y-84054418D01*
X129794000Y-84054418D02*
X132533106Y-86793524D01*
X155194000Y-84054418D02*
X157933106Y-86793524D01*
X129794000Y-76200000D02*
X129794000Y-84054418D01*
X211074000Y-75184000D02*
X211074000Y-84054418D01*
X211074000Y-84054418D02*
X213813106Y-86793524D01*
%TD*%
%TA.AperFunction,Conductor*%
%TO.N,GND*%
G36*
X218441222Y-58670524D02*
G01*
X219424931Y-58689841D01*
X219429787Y-58690031D01*
X220410804Y-58747886D01*
X220415601Y-58748263D01*
X221393610Y-58844588D01*
X221398379Y-58845153D01*
X222371879Y-58979804D01*
X222376612Y-58980553D01*
X223344063Y-59153319D01*
X223348775Y-59154256D01*
X224308666Y-59364863D01*
X224313390Y-59365997D01*
X225264248Y-59614120D01*
X225268882Y-59615426D01*
X226162709Y-59886566D01*
X226209299Y-59900699D01*
X226213930Y-59902204D01*
X227142380Y-60224162D01*
X227146918Y-60225836D01*
X228062049Y-60584012D01*
X228066527Y-60585867D01*
X228966878Y-60979688D01*
X228971225Y-60981692D01*
X229578834Y-61276403D01*
X229855456Y-61410575D01*
X229859794Y-61412786D01*
X230726432Y-61876014D01*
X230730680Y-61878393D01*
X231578488Y-62375301D01*
X231582605Y-62377823D01*
X232233532Y-62794509D01*
X232410254Y-62907636D01*
X232414294Y-62910335D01*
X232626511Y-63058242D01*
X233220509Y-63472236D01*
X233224448Y-63475098D01*
X234007967Y-64068207D01*
X234011791Y-64071222D01*
X234771414Y-64694627D01*
X234775113Y-64697787D01*
X235509689Y-65350548D01*
X235513227Y-65353817D01*
X235982400Y-65804918D01*
X236221626Y-66034930D01*
X236225069Y-66038373D01*
X236906180Y-66746770D01*
X236909453Y-66750312D01*
X237423756Y-67329076D01*
X237562210Y-67484883D01*
X237565372Y-67488585D01*
X238188777Y-68248208D01*
X238191792Y-68252032D01*
X238784901Y-69035551D01*
X238787763Y-69039490D01*
X239349658Y-69845696D01*
X239352363Y-69849745D01*
X239882165Y-70677377D01*
X239884709Y-70681529D01*
X240381606Y-71529319D01*
X240383985Y-71533567D01*
X240847213Y-72400205D01*
X240849424Y-72404543D01*
X241154024Y-73032537D01*
X241211967Y-73152000D01*
X241278290Y-73288737D01*
X241280321Y-73293144D01*
X241430195Y-73635784D01*
X241674127Y-74193461D01*
X241675991Y-74197960D01*
X242034157Y-75113066D01*
X242035842Y-75117634D01*
X242357795Y-76046069D01*
X242359300Y-76050700D01*
X242644565Y-76991091D01*
X242645886Y-76995777D01*
X242894000Y-77946604D01*
X242895137Y-77951339D01*
X243105736Y-78911193D01*
X243106686Y-78915968D01*
X243279439Y-79883349D01*
X243280201Y-79888159D01*
X243414842Y-80861587D01*
X243415414Y-80866422D01*
X243511733Y-81844370D01*
X243512115Y-81849224D01*
X243569967Y-82830208D01*
X243570158Y-82835073D01*
X243589452Y-83817565D01*
X243589452Y-83822435D01*
X243570158Y-84804926D01*
X243569967Y-84809791D01*
X243512115Y-85790775D01*
X243511733Y-85795629D01*
X243415414Y-86773577D01*
X243414842Y-86778412D01*
X243280201Y-87751840D01*
X243279439Y-87756650D01*
X243106686Y-88724031D01*
X243105736Y-88728806D01*
X242895137Y-89688660D01*
X242894000Y-89693395D01*
X242645886Y-90644222D01*
X242644565Y-90648908D01*
X242359300Y-91589299D01*
X242357795Y-91593930D01*
X242035842Y-92522365D01*
X242034157Y-92526933D01*
X241675991Y-93442039D01*
X241674127Y-93446538D01*
X241280328Y-94346840D01*
X241278290Y-94351262D01*
X240849424Y-95235456D01*
X240847213Y-95239794D01*
X240383985Y-96106432D01*
X240381606Y-96110680D01*
X239884709Y-96958470D01*
X239882165Y-96962622D01*
X239352363Y-97790254D01*
X239349658Y-97794303D01*
X238787763Y-98600509D01*
X238784901Y-98604448D01*
X238191792Y-99387967D01*
X238188777Y-99391791D01*
X237565372Y-100151414D01*
X237562210Y-100155116D01*
X236909469Y-100889670D01*
X236906164Y-100893246D01*
X236225069Y-101601626D01*
X236221626Y-101605069D01*
X235513246Y-102286164D01*
X235509670Y-102289469D01*
X234775116Y-102942210D01*
X234771414Y-102945372D01*
X234011791Y-103568777D01*
X234007967Y-103571792D01*
X233224448Y-104164901D01*
X233220509Y-104167763D01*
X232414303Y-104729658D01*
X232410254Y-104732363D01*
X231582622Y-105262165D01*
X231578470Y-105264709D01*
X230730680Y-105761606D01*
X230726432Y-105763985D01*
X229859794Y-106227213D01*
X229855456Y-106229424D01*
X228971262Y-106658290D01*
X228966840Y-106660328D01*
X228066538Y-107054127D01*
X228062039Y-107055991D01*
X227146933Y-107414157D01*
X227142365Y-107415842D01*
X226213930Y-107737795D01*
X226209299Y-107739300D01*
X225268908Y-108024565D01*
X225264222Y-108025886D01*
X224313395Y-108274000D01*
X224308660Y-108275137D01*
X223348806Y-108485736D01*
X223344031Y-108486686D01*
X222376650Y-108659439D01*
X222371840Y-108660201D01*
X221398412Y-108794842D01*
X221393577Y-108795414D01*
X220415629Y-108891733D01*
X220410775Y-108892115D01*
X219429791Y-108949967D01*
X219424926Y-108950158D01*
X218441222Y-108969476D01*
X218438787Y-108969500D01*
X137161213Y-108969500D01*
X137158778Y-108969476D01*
X136175073Y-108950158D01*
X136170208Y-108949967D01*
X135189224Y-108892115D01*
X135184370Y-108891733D01*
X134206422Y-108795414D01*
X134201587Y-108794842D01*
X133228159Y-108660201D01*
X133223349Y-108659439D01*
X132255968Y-108486686D01*
X132251193Y-108485736D01*
X131291339Y-108275137D01*
X131286604Y-108274000D01*
X130335777Y-108025886D01*
X130331091Y-108024565D01*
X129390700Y-107739300D01*
X129386069Y-107737795D01*
X128457634Y-107415842D01*
X128453066Y-107414157D01*
X127537960Y-107055991D01*
X127533461Y-107054127D01*
X127083310Y-106857227D01*
X126633144Y-106660321D01*
X126628752Y-106658297D01*
X126341255Y-106518851D01*
X125744543Y-106229424D01*
X125740205Y-106227213D01*
X124873567Y-105763985D01*
X124869319Y-105761606D01*
X124021529Y-105264709D01*
X124017377Y-105262165D01*
X123189745Y-104732363D01*
X123185696Y-104729658D01*
X122379490Y-104167763D01*
X122375551Y-104164901D01*
X121592032Y-103571792D01*
X121588208Y-103568777D01*
X120828585Y-102945372D01*
X120824883Y-102942210D01*
X120305873Y-102481006D01*
X120090312Y-102289453D01*
X120086770Y-102286180D01*
X119378373Y-101605069D01*
X119374930Y-101601626D01*
X118854723Y-101060579D01*
X118693817Y-100893227D01*
X118690548Y-100889689D01*
X118037787Y-100155113D01*
X118034627Y-100151414D01*
X117411222Y-99391791D01*
X117408207Y-99387967D01*
X116815098Y-98604448D01*
X116812236Y-98600509D01*
X116618224Y-98322141D01*
X116250335Y-97794294D01*
X116247636Y-97790254D01*
X115717834Y-96962622D01*
X115715290Y-96958470D01*
X115218393Y-96110680D01*
X115216014Y-96106432D01*
X114752786Y-95239794D01*
X114750575Y-95235456D01*
X114616403Y-94958834D01*
X114321692Y-94351225D01*
X114319688Y-94346878D01*
X113925867Y-93446527D01*
X113924008Y-93442039D01*
X113565836Y-92526918D01*
X113564157Y-92522365D01*
X113242204Y-91593930D01*
X113240699Y-91589299D01*
X113038277Y-90922003D01*
X112955426Y-90648882D01*
X112954120Y-90644248D01*
X112705997Y-89693390D01*
X112704862Y-89688660D01*
X112494256Y-88728775D01*
X112493319Y-88724063D01*
X112320553Y-87756612D01*
X112319804Y-87751879D01*
X112185153Y-86778379D01*
X112184588Y-86773610D01*
X112088263Y-85795601D01*
X112087886Y-85790804D01*
X112030031Y-84809787D01*
X112029841Y-84804926D01*
X112025344Y-84575935D01*
X112010547Y-83822393D01*
X112010547Y-83817606D01*
X112029841Y-82835066D01*
X112030032Y-82830208D01*
X112037959Y-82695787D01*
X112087886Y-81849191D01*
X112088263Y-81844402D01*
X112184589Y-80866383D01*
X112185152Y-80861626D01*
X112319805Y-79888112D01*
X112320552Y-79883395D01*
X112493321Y-78915926D01*
X112494254Y-78911234D01*
X112704866Y-77951322D01*
X112705999Y-77946604D01*
X112954124Y-76995737D01*
X112955422Y-76991130D01*
X113195409Y-76200000D01*
X128888540Y-76200000D01*
X128908326Y-76388256D01*
X128908327Y-76388259D01*
X128966818Y-76568277D01*
X128966821Y-76568284D01*
X129061467Y-76732216D01*
X129098272Y-76773092D01*
X129136650Y-76815715D01*
X129166880Y-76878706D01*
X129168500Y-76898687D01*
X129168500Y-83971673D01*
X129166775Y-83987290D01*
X129167061Y-83987317D01*
X129166326Y-83995083D01*
X129168439Y-84062290D01*
X129168500Y-84066185D01*
X129168500Y-84093775D01*
X129169003Y-84097753D01*
X129169918Y-84109385D01*
X129171290Y-84153042D01*
X129171291Y-84153045D01*
X129176880Y-84172285D01*
X129180824Y-84191329D01*
X129181910Y-84199918D01*
X129183336Y-84211210D01*
X129199414Y-84251821D01*
X129203197Y-84262870D01*
X129215381Y-84304806D01*
X129225580Y-84322052D01*
X129234138Y-84339521D01*
X129241514Y-84358150D01*
X129267181Y-84393478D01*
X129273593Y-84403239D01*
X129295828Y-84440835D01*
X129295833Y-84440842D01*
X129309990Y-84454998D01*
X129322628Y-84469794D01*
X129334405Y-84486004D01*
X129334406Y-84486005D01*
X129368057Y-84513843D01*
X129376698Y-84521706D01*
X130759087Y-85904096D01*
X130792572Y-85965419D01*
X130787588Y-86035110D01*
X130704929Y-86256727D01*
X130647146Y-86522356D01*
X130647145Y-86522363D01*
X130627751Y-86793522D01*
X130627751Y-86793525D01*
X130647145Y-87064684D01*
X130647146Y-87064691D01*
X130704929Y-87330317D01*
X130704931Y-87330325D01*
X130779892Y-87531302D01*
X130799936Y-87585043D01*
X130930215Y-87823631D01*
X130930216Y-87823632D01*
X130930219Y-87823637D01*
X131093135Y-88041266D01*
X131093139Y-88041270D01*
X131093144Y-88041276D01*
X131285353Y-88233485D01*
X131285359Y-88233490D01*
X131285364Y-88233495D01*
X131502993Y-88396411D01*
X131502997Y-88396413D01*
X131502998Y-88396414D01*
X131741587Y-88526693D01*
X131741586Y-88526693D01*
X131741590Y-88526694D01*
X131741593Y-88526696D01*
X131996305Y-88621699D01*
X132261946Y-88679485D01*
X132513711Y-88697491D01*
X132533105Y-88698879D01*
X132533106Y-88698879D01*
X132533107Y-88698879D01*
X132552501Y-88697491D01*
X132804266Y-88679485D01*
X132813323Y-88677514D01*
X132821041Y-88675836D01*
X132890733Y-88680818D01*
X132946668Y-88722688D01*
X132971087Y-88788151D01*
X132971087Y-88805842D01*
X132969863Y-88822966D01*
X132969863Y-88822976D01*
X132989257Y-89094135D01*
X132989258Y-89094142D01*
X133017586Y-89224364D01*
X133047043Y-89359776D01*
X133068235Y-89416593D01*
X133142048Y-89614494D01*
X133272327Y-89853082D01*
X133272328Y-89853083D01*
X133272331Y-89853088D01*
X133435247Y-90070717D01*
X133435251Y-90070721D01*
X133435256Y-90070727D01*
X133627465Y-90262936D01*
X133627471Y-90262941D01*
X133627476Y-90262946D01*
X133845105Y-90425862D01*
X133845109Y-90425864D01*
X133845110Y-90425865D01*
X134083699Y-90556144D01*
X134083698Y-90556144D01*
X134083702Y-90556145D01*
X134083705Y-90556147D01*
X134338417Y-90651150D01*
X134604058Y-90708936D01*
X134855823Y-90726942D01*
X134875217Y-90728330D01*
X134875218Y-90728330D01*
X134875219Y-90728330D01*
X134893318Y-90727035D01*
X135146378Y-90708936D01*
X135412019Y-90651150D01*
X135666731Y-90556147D01*
X135666735Y-90556144D01*
X135666737Y-90556144D01*
X135786031Y-90491004D01*
X135905331Y-90425862D01*
X136122960Y-90262946D01*
X136135469Y-90250436D01*
X136196789Y-90216951D01*
X136266481Y-90221933D01*
X136322416Y-90263802D01*
X136331982Y-90278686D01*
X136340267Y-90293858D01*
X136340268Y-90293860D01*
X136503132Y-90511422D01*
X136503148Y-90511440D01*
X136614202Y-90622494D01*
X136614203Y-90622493D01*
X137175570Y-89872126D01*
X137304368Y-90007621D01*
X137467121Y-90120901D01*
X137578224Y-90168578D01*
X137014571Y-90922003D01*
X137151420Y-90996729D01*
X137151424Y-90996731D01*
X137406076Y-91091711D01*
X137671633Y-91149479D01*
X137671640Y-91149480D01*
X137942730Y-91168870D01*
X137942732Y-91168870D01*
X138213821Y-91149480D01*
X138213828Y-91149479D01*
X138479385Y-91091711D01*
X138734037Y-90996731D01*
X138734041Y-90996729D01*
X138972566Y-90866484D01*
X138972574Y-90866479D01*
X139190136Y-90703615D01*
X139190146Y-90703606D01*
X139301207Y-90592544D01*
X139301207Y-90592543D01*
X138548219Y-90029215D01*
X138653048Y-89939224D01*
X138774426Y-89782417D01*
X138849211Y-89629956D01*
X139600717Y-90192175D01*
X139675445Y-90055322D01*
X139675447Y-90055317D01*
X139770425Y-89800670D01*
X139774096Y-89783794D01*
X139807578Y-89722469D01*
X139868899Y-89688981D01*
X139938591Y-89693962D01*
X139954690Y-89701314D01*
X139970220Y-89709794D01*
X140224932Y-89804797D01*
X140490573Y-89862583D01*
X140742338Y-89880589D01*
X140761732Y-89881977D01*
X140761733Y-89881977D01*
X140761734Y-89881977D01*
X140779833Y-89880682D01*
X141032893Y-89862583D01*
X141298534Y-89804797D01*
X141553246Y-89709794D01*
X141553250Y-89709791D01*
X141553252Y-89709791D01*
X141672546Y-89644651D01*
X141791846Y-89579509D01*
X142009475Y-89416593D01*
X142201704Y-89224364D01*
X142364620Y-89006735D01*
X142464965Y-88822966D01*
X142494902Y-88768141D01*
X142494902Y-88768139D01*
X142494905Y-88768135D01*
X142589908Y-88513423D01*
X142647694Y-88247782D01*
X142667088Y-87976622D01*
X142647694Y-87705462D01*
X142607487Y-87520630D01*
X142589909Y-87439824D01*
X142583907Y-87423733D01*
X142578922Y-87354041D01*
X142612406Y-87292718D01*
X142673729Y-87259232D01*
X142691238Y-87256715D01*
X142708371Y-87255490D01*
X142974012Y-87197704D01*
X143228724Y-87102701D01*
X143228728Y-87102698D01*
X143228730Y-87102698D01*
X143460991Y-86975874D01*
X143467324Y-86972416D01*
X143684953Y-86809500D01*
X143877182Y-86617271D01*
X144040098Y-86399642D01*
X144118137Y-86256723D01*
X144170380Y-86161048D01*
X144170380Y-86161046D01*
X144170383Y-86161042D01*
X144265386Y-85906330D01*
X144323172Y-85640689D01*
X144342566Y-85369529D01*
X144323172Y-85098369D01*
X144265386Y-84832728D01*
X144182726Y-84611110D01*
X144177743Y-84541423D01*
X144211226Y-84480102D01*
X144909786Y-83781542D01*
X144922048Y-83771720D01*
X144921865Y-83771499D01*
X144927868Y-83766531D01*
X144927877Y-83766526D01*
X144973934Y-83717479D01*
X144976582Y-83714746D01*
X144996120Y-83695210D01*
X144998570Y-83692050D01*
X145006154Y-83683169D01*
X145036062Y-83651322D01*
X145045714Y-83633763D01*
X145056389Y-83617512D01*
X145068674Y-83601676D01*
X145086030Y-83561565D01*
X145091161Y-83551094D01*
X145112194Y-83512838D01*
X145112194Y-83512837D01*
X145112197Y-83512832D01*
X145117180Y-83493420D01*
X145123477Y-83475031D01*
X145131438Y-83456635D01*
X145138270Y-83413488D01*
X145140639Y-83402056D01*
X145146361Y-83379771D01*
X145151500Y-83359759D01*
X145151500Y-83339723D01*
X145153027Y-83320322D01*
X145156160Y-83300544D01*
X145152050Y-83257064D01*
X145151500Y-83245395D01*
X145151500Y-75184000D01*
X154288540Y-75184000D01*
X154308326Y-75372256D01*
X154308327Y-75372259D01*
X154366818Y-75552277D01*
X154366821Y-75552284D01*
X154461467Y-75716216D01*
X154504772Y-75764310D01*
X154536650Y-75799715D01*
X154566880Y-75862706D01*
X154568500Y-75882687D01*
X154568500Y-83971673D01*
X154566775Y-83987290D01*
X154567061Y-83987317D01*
X154566326Y-83995083D01*
X154568439Y-84062290D01*
X154568500Y-84066185D01*
X154568500Y-84093775D01*
X154569003Y-84097753D01*
X154569918Y-84109385D01*
X154571290Y-84153042D01*
X154571291Y-84153045D01*
X154576880Y-84172285D01*
X154580824Y-84191329D01*
X154581910Y-84199918D01*
X154583336Y-84211210D01*
X154599414Y-84251821D01*
X154603197Y-84262870D01*
X154615381Y-84304806D01*
X154625580Y-84322052D01*
X154634138Y-84339521D01*
X154641514Y-84358150D01*
X154667181Y-84393478D01*
X154673593Y-84403239D01*
X154695828Y-84440835D01*
X154695833Y-84440842D01*
X154709990Y-84454998D01*
X154722628Y-84469794D01*
X154734405Y-84486004D01*
X154734406Y-84486005D01*
X154768057Y-84513843D01*
X154776698Y-84521706D01*
X156159087Y-85904096D01*
X156192572Y-85965419D01*
X156187588Y-86035110D01*
X156104929Y-86256727D01*
X156047146Y-86522356D01*
X156047145Y-86522363D01*
X156027751Y-86793522D01*
X156027751Y-86793525D01*
X156047145Y-87064684D01*
X156047146Y-87064691D01*
X156104929Y-87330317D01*
X156104931Y-87330325D01*
X156179892Y-87531302D01*
X156199936Y-87585043D01*
X156330215Y-87823631D01*
X156330216Y-87823632D01*
X156330219Y-87823637D01*
X156493135Y-88041266D01*
X156493139Y-88041270D01*
X156493144Y-88041276D01*
X156685353Y-88233485D01*
X156685359Y-88233490D01*
X156685364Y-88233495D01*
X156902993Y-88396411D01*
X156902997Y-88396413D01*
X156902998Y-88396414D01*
X157141587Y-88526693D01*
X157141586Y-88526693D01*
X157141590Y-88526694D01*
X157141593Y-88526696D01*
X157396305Y-88621699D01*
X157661946Y-88679485D01*
X157913711Y-88697491D01*
X157933105Y-88698879D01*
X157933106Y-88698879D01*
X157933107Y-88698879D01*
X157952501Y-88697491D01*
X158204266Y-88679485D01*
X158213323Y-88677514D01*
X158221041Y-88675836D01*
X158290733Y-88680818D01*
X158346668Y-88722688D01*
X158371087Y-88788151D01*
X158371087Y-88805842D01*
X158369863Y-88822966D01*
X158369863Y-88822976D01*
X158389257Y-89094135D01*
X158389258Y-89094142D01*
X158417586Y-89224364D01*
X158447043Y-89359776D01*
X158468235Y-89416593D01*
X158542048Y-89614494D01*
X158672327Y-89853082D01*
X158672328Y-89853083D01*
X158672331Y-89853088D01*
X158835247Y-90070717D01*
X158835251Y-90070721D01*
X158835256Y-90070727D01*
X159027465Y-90262936D01*
X159027471Y-90262941D01*
X159027476Y-90262946D01*
X159245105Y-90425862D01*
X159245109Y-90425864D01*
X159245110Y-90425865D01*
X159483699Y-90556144D01*
X159483698Y-90556144D01*
X159483702Y-90556145D01*
X159483705Y-90556147D01*
X159738417Y-90651150D01*
X160004058Y-90708936D01*
X160255823Y-90726942D01*
X160275217Y-90728330D01*
X160275218Y-90728330D01*
X160275219Y-90728330D01*
X160293318Y-90727035D01*
X160546378Y-90708936D01*
X160812019Y-90651150D01*
X161066731Y-90556147D01*
X161066735Y-90556144D01*
X161066737Y-90556144D01*
X161186031Y-90491004D01*
X161305331Y-90425862D01*
X161522960Y-90262946D01*
X161535469Y-90250436D01*
X161596789Y-90216951D01*
X161666481Y-90221933D01*
X161722416Y-90263802D01*
X161731982Y-90278686D01*
X161740267Y-90293858D01*
X161740268Y-90293860D01*
X161903132Y-90511422D01*
X161903148Y-90511440D01*
X162014202Y-90622494D01*
X162014203Y-90622493D01*
X162575570Y-89872126D01*
X162704368Y-90007621D01*
X162867121Y-90120901D01*
X162978224Y-90168578D01*
X162414571Y-90922003D01*
X162551420Y-90996729D01*
X162551424Y-90996731D01*
X162806076Y-91091711D01*
X163071633Y-91149479D01*
X163071640Y-91149480D01*
X163342730Y-91168870D01*
X163342732Y-91168870D01*
X163613821Y-91149480D01*
X163613828Y-91149479D01*
X163879385Y-91091711D01*
X164134037Y-90996731D01*
X164134041Y-90996729D01*
X164372566Y-90866484D01*
X164372574Y-90866479D01*
X164590136Y-90703615D01*
X164590146Y-90703606D01*
X164701207Y-90592544D01*
X164701207Y-90592543D01*
X163948219Y-90029216D01*
X164053048Y-89939224D01*
X164174426Y-89782417D01*
X164249211Y-89629956D01*
X165000717Y-90192175D01*
X165075445Y-90055322D01*
X165075447Y-90055317D01*
X165170425Y-89800670D01*
X165174096Y-89783794D01*
X165207578Y-89722469D01*
X165268899Y-89688981D01*
X165338591Y-89693962D01*
X165354690Y-89701314D01*
X165370220Y-89709794D01*
X165624932Y-89804797D01*
X165890573Y-89862583D01*
X166142338Y-89880589D01*
X166161732Y-89881977D01*
X166161733Y-89881977D01*
X166161734Y-89881977D01*
X166179833Y-89880682D01*
X166432893Y-89862583D01*
X166698534Y-89804797D01*
X166953246Y-89709794D01*
X166953250Y-89709791D01*
X166953252Y-89709791D01*
X167072546Y-89644651D01*
X167191846Y-89579509D01*
X167409475Y-89416593D01*
X167601704Y-89224364D01*
X167764620Y-89006735D01*
X167864965Y-88822966D01*
X167894902Y-88768141D01*
X167894902Y-88768139D01*
X167894905Y-88768135D01*
X167989908Y-88513423D01*
X168047694Y-88247782D01*
X168067088Y-87976622D01*
X168047694Y-87705462D01*
X168007487Y-87520630D01*
X167989909Y-87439824D01*
X167983907Y-87423733D01*
X167978922Y-87354041D01*
X168012406Y-87292718D01*
X168073729Y-87259232D01*
X168091238Y-87256715D01*
X168108371Y-87255490D01*
X168374012Y-87197704D01*
X168628724Y-87102701D01*
X168628728Y-87102698D01*
X168628730Y-87102698D01*
X168860991Y-86975874D01*
X168867324Y-86972416D01*
X169084953Y-86809500D01*
X169277182Y-86617271D01*
X169440098Y-86399642D01*
X169518137Y-86256723D01*
X169570380Y-86161048D01*
X169570380Y-86161046D01*
X169570383Y-86161042D01*
X169665386Y-85906330D01*
X169723172Y-85640689D01*
X169742566Y-85369529D01*
X169723172Y-85098369D01*
X169665386Y-84832728D01*
X169582726Y-84611110D01*
X169577743Y-84541423D01*
X169611226Y-84480102D01*
X170309786Y-83781542D01*
X170322048Y-83771720D01*
X170321865Y-83771499D01*
X170327868Y-83766531D01*
X170327877Y-83766526D01*
X170373934Y-83717479D01*
X170376582Y-83714746D01*
X170396120Y-83695210D01*
X170398570Y-83692050D01*
X170406154Y-83683169D01*
X170436062Y-83651322D01*
X170445714Y-83633763D01*
X170456389Y-83617512D01*
X170468674Y-83601676D01*
X170486030Y-83561565D01*
X170491161Y-83551094D01*
X170512194Y-83512838D01*
X170512194Y-83512837D01*
X170512197Y-83512832D01*
X170517180Y-83493420D01*
X170523477Y-83475031D01*
X170531438Y-83456635D01*
X170538270Y-83413488D01*
X170540639Y-83402056D01*
X170546361Y-83379771D01*
X170551500Y-83359759D01*
X170551500Y-83339723D01*
X170553027Y-83320322D01*
X170556160Y-83300544D01*
X170552050Y-83257064D01*
X170551500Y-83245395D01*
X170551500Y-75184000D01*
X184768540Y-75184000D01*
X184788326Y-75372256D01*
X184788327Y-75372259D01*
X184846818Y-75552277D01*
X184846821Y-75552284D01*
X184941467Y-75716216D01*
X184984772Y-75764310D01*
X185016650Y-75799715D01*
X185046880Y-75862706D01*
X185048500Y-75882687D01*
X185048500Y-83971673D01*
X185046775Y-83987290D01*
X185047061Y-83987317D01*
X185046326Y-83995083D01*
X185048439Y-84062290D01*
X185048500Y-84066185D01*
X185048500Y-84093775D01*
X185049003Y-84097753D01*
X185049918Y-84109385D01*
X185051290Y-84153042D01*
X185051291Y-84153045D01*
X185056880Y-84172285D01*
X185060824Y-84191329D01*
X185061910Y-84199918D01*
X185063336Y-84211210D01*
X185079414Y-84251821D01*
X185083197Y-84262870D01*
X185095381Y-84304806D01*
X185105580Y-84322052D01*
X185114138Y-84339521D01*
X185121514Y-84358150D01*
X185147181Y-84393478D01*
X185153593Y-84403239D01*
X185175828Y-84440835D01*
X185175833Y-84440842D01*
X185189990Y-84454998D01*
X185202628Y-84469794D01*
X185214405Y-84486004D01*
X185214406Y-84486005D01*
X185248057Y-84513843D01*
X185256698Y-84521706D01*
X186639087Y-85904096D01*
X186672572Y-85965419D01*
X186667588Y-86035110D01*
X186584929Y-86256727D01*
X186527146Y-86522356D01*
X186527145Y-86522363D01*
X186507751Y-86793522D01*
X186507751Y-86793525D01*
X186527145Y-87064684D01*
X186527146Y-87064691D01*
X186584929Y-87330317D01*
X186584931Y-87330325D01*
X186659892Y-87531302D01*
X186679936Y-87585043D01*
X186810215Y-87823631D01*
X186810216Y-87823632D01*
X186810219Y-87823637D01*
X186973135Y-88041266D01*
X186973139Y-88041270D01*
X186973144Y-88041276D01*
X187165353Y-88233485D01*
X187165359Y-88233490D01*
X187165364Y-88233495D01*
X187382993Y-88396411D01*
X187382997Y-88396413D01*
X187382998Y-88396414D01*
X187621587Y-88526693D01*
X187621586Y-88526693D01*
X187621590Y-88526694D01*
X187621593Y-88526696D01*
X187876305Y-88621699D01*
X188141946Y-88679485D01*
X188393711Y-88697491D01*
X188413105Y-88698879D01*
X188413106Y-88698879D01*
X188413107Y-88698879D01*
X188432501Y-88697491D01*
X188684266Y-88679485D01*
X188693323Y-88677514D01*
X188701041Y-88675836D01*
X188770733Y-88680818D01*
X188826668Y-88722688D01*
X188851087Y-88788151D01*
X188851087Y-88805842D01*
X188849863Y-88822966D01*
X188849863Y-88822976D01*
X188869257Y-89094135D01*
X188869258Y-89094142D01*
X188897586Y-89224364D01*
X188927043Y-89359776D01*
X188948235Y-89416593D01*
X189022048Y-89614494D01*
X189152327Y-89853082D01*
X189152328Y-89853083D01*
X189152331Y-89853088D01*
X189315247Y-90070717D01*
X189315251Y-90070721D01*
X189315256Y-90070727D01*
X189507465Y-90262936D01*
X189507471Y-90262941D01*
X189507476Y-90262946D01*
X189725105Y-90425862D01*
X189725109Y-90425864D01*
X189725110Y-90425865D01*
X189963699Y-90556144D01*
X189963698Y-90556144D01*
X189963702Y-90556145D01*
X189963705Y-90556147D01*
X190218417Y-90651150D01*
X190484058Y-90708936D01*
X190735823Y-90726942D01*
X190755217Y-90728330D01*
X190755218Y-90728330D01*
X190755219Y-90728330D01*
X190773318Y-90727035D01*
X191026378Y-90708936D01*
X191292019Y-90651150D01*
X191546731Y-90556147D01*
X191546735Y-90556144D01*
X191546737Y-90556144D01*
X191666031Y-90491004D01*
X191785331Y-90425862D01*
X192002960Y-90262946D01*
X192015469Y-90250436D01*
X192076789Y-90216951D01*
X192146481Y-90221933D01*
X192202416Y-90263802D01*
X192211982Y-90278686D01*
X192220267Y-90293858D01*
X192220268Y-90293860D01*
X192383132Y-90511422D01*
X192383148Y-90511440D01*
X192494202Y-90622494D01*
X192494203Y-90622493D01*
X193055570Y-89872126D01*
X193184368Y-90007621D01*
X193347121Y-90120901D01*
X193458224Y-90168578D01*
X192894571Y-90922003D01*
X193031420Y-90996729D01*
X193031424Y-90996731D01*
X193286076Y-91091711D01*
X193551633Y-91149479D01*
X193551640Y-91149480D01*
X193822730Y-91168870D01*
X193822732Y-91168870D01*
X194093821Y-91149480D01*
X194093828Y-91149479D01*
X194359385Y-91091711D01*
X194614037Y-90996731D01*
X194614041Y-90996729D01*
X194852566Y-90866484D01*
X194852574Y-90866479D01*
X195070136Y-90703615D01*
X195070146Y-90703606D01*
X195181207Y-90592544D01*
X195181207Y-90592543D01*
X194428219Y-90029216D01*
X194533048Y-89939224D01*
X194654426Y-89782417D01*
X194729211Y-89629956D01*
X195480717Y-90192175D01*
X195555445Y-90055322D01*
X195555447Y-90055317D01*
X195650425Y-89800670D01*
X195654096Y-89783794D01*
X195687578Y-89722469D01*
X195748899Y-89688981D01*
X195818591Y-89693962D01*
X195834690Y-89701314D01*
X195850220Y-89709794D01*
X196104932Y-89804797D01*
X196370573Y-89862583D01*
X196622338Y-89880589D01*
X196641732Y-89881977D01*
X196641733Y-89881977D01*
X196641734Y-89881977D01*
X196659833Y-89880682D01*
X196912893Y-89862583D01*
X197178534Y-89804797D01*
X197433246Y-89709794D01*
X197433250Y-89709791D01*
X197433252Y-89709791D01*
X197552546Y-89644651D01*
X197671846Y-89579509D01*
X197889475Y-89416593D01*
X198081704Y-89224364D01*
X198244620Y-89006735D01*
X198344965Y-88822966D01*
X198374902Y-88768141D01*
X198374902Y-88768139D01*
X198374905Y-88768135D01*
X198469908Y-88513423D01*
X198527694Y-88247782D01*
X198547088Y-87976622D01*
X198527694Y-87705462D01*
X198487487Y-87520630D01*
X198469909Y-87439824D01*
X198463907Y-87423733D01*
X198458922Y-87354041D01*
X198492406Y-87292718D01*
X198553729Y-87259232D01*
X198571238Y-87256715D01*
X198588371Y-87255490D01*
X198854012Y-87197704D01*
X199108724Y-87102701D01*
X199108728Y-87102698D01*
X199108730Y-87102698D01*
X199340991Y-86975874D01*
X199347324Y-86972416D01*
X199564953Y-86809500D01*
X199757182Y-86617271D01*
X199920098Y-86399642D01*
X199998137Y-86256723D01*
X200050380Y-86161048D01*
X200050380Y-86161046D01*
X200050383Y-86161042D01*
X200145386Y-85906330D01*
X200203172Y-85640689D01*
X200222566Y-85369529D01*
X200203172Y-85098369D01*
X200145386Y-84832728D01*
X200062728Y-84611114D01*
X200057744Y-84541423D01*
X200091227Y-84480102D01*
X201043788Y-83527541D01*
X201056042Y-83517726D01*
X201055859Y-83517504D01*
X201061868Y-83512531D01*
X201061877Y-83512526D01*
X201107949Y-83463462D01*
X201110566Y-83460763D01*
X201130120Y-83441211D01*
X201132576Y-83438043D01*
X201140156Y-83429167D01*
X201170062Y-83397322D01*
X201179715Y-83379760D01*
X201190389Y-83363510D01*
X201202673Y-83347676D01*
X201220019Y-83307590D01*
X201225157Y-83297102D01*
X201246196Y-83258833D01*
X201246197Y-83258832D01*
X201251177Y-83239431D01*
X201257478Y-83221028D01*
X201265438Y-83202636D01*
X201272272Y-83159481D01*
X201274635Y-83148071D01*
X201285500Y-83105759D01*
X201285500Y-83085723D01*
X201287027Y-83066322D01*
X201287385Y-83064064D01*
X201290160Y-83046544D01*
X201286050Y-83003064D01*
X201285500Y-82991395D01*
X201285500Y-75184000D01*
X210168540Y-75184000D01*
X210188326Y-75372256D01*
X210188327Y-75372259D01*
X210246818Y-75552277D01*
X210246821Y-75552284D01*
X210341467Y-75716216D01*
X210384772Y-75764310D01*
X210416650Y-75799715D01*
X210446880Y-75862706D01*
X210448500Y-75882687D01*
X210448500Y-83971673D01*
X210446775Y-83987290D01*
X210447061Y-83987317D01*
X210446326Y-83995083D01*
X210448439Y-84062290D01*
X210448500Y-84066185D01*
X210448500Y-84093775D01*
X210449003Y-84097753D01*
X210449918Y-84109385D01*
X210451290Y-84153042D01*
X210451291Y-84153045D01*
X210456880Y-84172285D01*
X210460824Y-84191329D01*
X210461910Y-84199918D01*
X210463336Y-84211210D01*
X210479414Y-84251821D01*
X210483197Y-84262870D01*
X210495381Y-84304806D01*
X210505580Y-84322052D01*
X210514138Y-84339521D01*
X210521514Y-84358150D01*
X210547181Y-84393478D01*
X210553593Y-84403239D01*
X210575828Y-84440835D01*
X210575833Y-84440842D01*
X210589990Y-84454998D01*
X210602628Y-84469794D01*
X210614405Y-84486004D01*
X210614406Y-84486005D01*
X210648057Y-84513843D01*
X210656698Y-84521706D01*
X212039087Y-85904096D01*
X212072572Y-85965419D01*
X212067588Y-86035110D01*
X211984929Y-86256727D01*
X211927146Y-86522356D01*
X211927145Y-86522363D01*
X211907751Y-86793522D01*
X211907751Y-86793525D01*
X211927145Y-87064684D01*
X211927146Y-87064691D01*
X211984929Y-87330317D01*
X211984931Y-87330325D01*
X212059892Y-87531302D01*
X212079936Y-87585043D01*
X212210215Y-87823631D01*
X212210216Y-87823632D01*
X212210219Y-87823637D01*
X212373135Y-88041266D01*
X212373139Y-88041270D01*
X212373144Y-88041276D01*
X212565353Y-88233485D01*
X212565359Y-88233490D01*
X212565364Y-88233495D01*
X212782993Y-88396411D01*
X212782997Y-88396413D01*
X212782998Y-88396414D01*
X213021587Y-88526693D01*
X213021586Y-88526693D01*
X213021590Y-88526694D01*
X213021593Y-88526696D01*
X213276305Y-88621699D01*
X213541946Y-88679485D01*
X213793711Y-88697491D01*
X213813105Y-88698879D01*
X213813106Y-88698879D01*
X213813107Y-88698879D01*
X213832501Y-88697491D01*
X214084266Y-88679485D01*
X214093323Y-88677514D01*
X214101041Y-88675836D01*
X214170733Y-88680818D01*
X214226668Y-88722688D01*
X214251087Y-88788151D01*
X214251087Y-88805842D01*
X214249863Y-88822966D01*
X214249863Y-88822976D01*
X214269257Y-89094135D01*
X214269258Y-89094142D01*
X214297586Y-89224364D01*
X214327043Y-89359776D01*
X214348235Y-89416593D01*
X214422048Y-89614494D01*
X214552327Y-89853082D01*
X214552328Y-89853083D01*
X214552331Y-89853088D01*
X214715247Y-90070717D01*
X214715251Y-90070721D01*
X214715256Y-90070727D01*
X214907465Y-90262936D01*
X214907471Y-90262941D01*
X214907476Y-90262946D01*
X215125105Y-90425862D01*
X215125109Y-90425864D01*
X215125110Y-90425865D01*
X215363699Y-90556144D01*
X215363698Y-90556144D01*
X215363702Y-90556145D01*
X215363705Y-90556147D01*
X215618417Y-90651150D01*
X215884058Y-90708936D01*
X216135823Y-90726942D01*
X216155217Y-90728330D01*
X216155218Y-90728330D01*
X216155219Y-90728330D01*
X216173318Y-90727035D01*
X216426378Y-90708936D01*
X216692019Y-90651150D01*
X216946731Y-90556147D01*
X216946735Y-90556144D01*
X216946737Y-90556144D01*
X217066031Y-90491004D01*
X217185331Y-90425862D01*
X217402960Y-90262946D01*
X217415469Y-90250436D01*
X217476789Y-90216951D01*
X217546481Y-90221933D01*
X217602416Y-90263802D01*
X217611982Y-90278686D01*
X217620267Y-90293858D01*
X217620268Y-90293860D01*
X217783132Y-90511422D01*
X217783148Y-90511440D01*
X217894202Y-90622494D01*
X217894203Y-90622493D01*
X218455570Y-89872126D01*
X218584368Y-90007621D01*
X218747121Y-90120901D01*
X218858224Y-90168578D01*
X218294571Y-90922003D01*
X218431420Y-90996729D01*
X218431424Y-90996731D01*
X218686076Y-91091711D01*
X218951633Y-91149479D01*
X218951640Y-91149480D01*
X219222730Y-91168870D01*
X219222732Y-91168870D01*
X219493821Y-91149480D01*
X219493828Y-91149479D01*
X219759385Y-91091711D01*
X220014037Y-90996731D01*
X220014041Y-90996729D01*
X220252566Y-90866484D01*
X220252574Y-90866479D01*
X220470136Y-90703615D01*
X220470146Y-90703606D01*
X220581207Y-90592544D01*
X220581207Y-90592543D01*
X219828219Y-90029216D01*
X219933048Y-89939224D01*
X220054426Y-89782417D01*
X220129211Y-89629956D01*
X220880717Y-90192175D01*
X220955445Y-90055322D01*
X220955447Y-90055317D01*
X221050425Y-89800670D01*
X221054096Y-89783794D01*
X221087578Y-89722469D01*
X221148899Y-89688981D01*
X221218591Y-89693962D01*
X221234690Y-89701314D01*
X221250220Y-89709794D01*
X221504932Y-89804797D01*
X221770573Y-89862583D01*
X222022338Y-89880589D01*
X222041732Y-89881977D01*
X222041733Y-89881977D01*
X222041734Y-89881977D01*
X222059833Y-89880682D01*
X222312893Y-89862583D01*
X222578534Y-89804797D01*
X222833246Y-89709794D01*
X222833250Y-89709791D01*
X222833252Y-89709791D01*
X222952546Y-89644651D01*
X223071846Y-89579509D01*
X223289475Y-89416593D01*
X223481704Y-89224364D01*
X223644620Y-89006735D01*
X223744965Y-88822966D01*
X223774902Y-88768141D01*
X223774902Y-88768139D01*
X223774905Y-88768135D01*
X223869908Y-88513423D01*
X223927694Y-88247782D01*
X223947088Y-87976622D01*
X223927694Y-87705462D01*
X223887487Y-87520630D01*
X223869909Y-87439824D01*
X223863907Y-87423733D01*
X223858922Y-87354041D01*
X223892406Y-87292718D01*
X223953729Y-87259232D01*
X223971238Y-87256715D01*
X223988371Y-87255490D01*
X224254012Y-87197704D01*
X224508724Y-87102701D01*
X224508728Y-87102698D01*
X224508730Y-87102698D01*
X224740991Y-86975874D01*
X224747324Y-86972416D01*
X224964953Y-86809500D01*
X225157182Y-86617271D01*
X225320098Y-86399642D01*
X225398137Y-86256723D01*
X225450380Y-86161048D01*
X225450380Y-86161046D01*
X225450383Y-86161042D01*
X225545386Y-85906330D01*
X225603172Y-85640689D01*
X225622566Y-85369529D01*
X225603172Y-85098369D01*
X225545386Y-84832728D01*
X225462726Y-84611110D01*
X225457743Y-84541423D01*
X225491226Y-84480102D01*
X226189786Y-83781542D01*
X226202048Y-83771720D01*
X226201865Y-83771499D01*
X226207868Y-83766531D01*
X226207877Y-83766526D01*
X226253934Y-83717479D01*
X226256582Y-83714746D01*
X226276120Y-83695210D01*
X226278570Y-83692050D01*
X226286154Y-83683169D01*
X226316062Y-83651322D01*
X226325714Y-83633763D01*
X226336389Y-83617512D01*
X226348674Y-83601676D01*
X226366030Y-83561565D01*
X226371161Y-83551094D01*
X226392194Y-83512838D01*
X226392194Y-83512837D01*
X226392197Y-83512832D01*
X226397180Y-83493420D01*
X226403477Y-83475031D01*
X226411438Y-83456635D01*
X226418270Y-83413488D01*
X226420639Y-83402056D01*
X226426361Y-83379771D01*
X226431500Y-83359759D01*
X226431500Y-83339723D01*
X226433027Y-83320322D01*
X226436160Y-83300544D01*
X226432050Y-83257064D01*
X226431500Y-83245395D01*
X226431500Y-70802687D01*
X226451185Y-70735648D01*
X226463350Y-70719715D01*
X226493714Y-70685992D01*
X226538533Y-70636216D01*
X226633179Y-70472284D01*
X226691674Y-70292256D01*
X226711460Y-70104000D01*
X226691674Y-69915744D01*
X226633179Y-69735716D01*
X226538533Y-69571784D01*
X226411871Y-69431112D01*
X226411870Y-69431111D01*
X226258734Y-69319851D01*
X226258729Y-69319848D01*
X226085807Y-69242857D01*
X226085802Y-69242855D01*
X225940001Y-69211865D01*
X225900646Y-69203500D01*
X225711354Y-69203500D01*
X225678897Y-69210398D01*
X225526197Y-69242855D01*
X225526192Y-69242857D01*
X225353270Y-69319848D01*
X225353265Y-69319851D01*
X225200129Y-69431111D01*
X225073466Y-69571785D01*
X224978821Y-69735715D01*
X224978818Y-69735722D01*
X224920327Y-69915740D01*
X224920326Y-69915744D01*
X224900540Y-70104000D01*
X224920326Y-70292256D01*
X224920327Y-70292259D01*
X224980829Y-70478465D01*
X224978650Y-70479172D01*
X224986531Y-70538030D01*
X224964166Y-70585768D01*
X225006095Y-70586168D01*
X225064511Y-70624500D01*
X225070347Y-70631921D01*
X225073464Y-70636212D01*
X225073467Y-70636216D01*
X225092455Y-70657304D01*
X225148650Y-70719715D01*
X225178880Y-70782706D01*
X225180500Y-70802687D01*
X225180500Y-71104368D01*
X225178093Y-71112562D01*
X225178477Y-71113324D01*
X225180500Y-71135631D01*
X225180500Y-80746684D01*
X225160815Y-80813723D01*
X225108011Y-80859478D01*
X225038853Y-80869422D01*
X224975297Y-80840397D01*
X224968819Y-80834365D01*
X224964963Y-80830509D01*
X224964957Y-80830504D01*
X224964953Y-80830500D01*
X224747324Y-80667584D01*
X224747322Y-80667583D01*
X224747321Y-80667582D01*
X224718072Y-80651611D01*
X224668667Y-80602205D01*
X224653500Y-80542779D01*
X224653500Y-71818687D01*
X224673185Y-71751648D01*
X224685350Y-71735715D01*
X224703891Y-71715122D01*
X224760533Y-71652216D01*
X224855179Y-71488284D01*
X224913674Y-71308256D01*
X224933179Y-71122668D01*
X224933892Y-71120936D01*
X224933179Y-71117329D01*
X224931817Y-71104368D01*
X224913674Y-70931744D01*
X224865248Y-70782706D01*
X224853171Y-70745535D01*
X224855352Y-70744826D01*
X224847465Y-70685992D01*
X224869828Y-70638231D01*
X224827881Y-70637824D01*
X224769473Y-70599481D01*
X224763651Y-70592076D01*
X224760534Y-70587785D01*
X224760533Y-70587784D01*
X224633871Y-70447112D01*
X224633870Y-70447111D01*
X224480734Y-70335851D01*
X224480729Y-70335848D01*
X224307807Y-70258857D01*
X224307802Y-70258855D01*
X224162001Y-70227865D01*
X224122646Y-70219500D01*
X223933354Y-70219500D01*
X223900897Y-70226398D01*
X223748197Y-70258855D01*
X223748192Y-70258857D01*
X223575270Y-70335848D01*
X223575265Y-70335851D01*
X223422129Y-70447111D01*
X223295466Y-70587785D01*
X223200821Y-70751715D01*
X223200818Y-70751722D01*
X223184259Y-70802687D01*
X223142326Y-70931744D01*
X223122540Y-71120000D01*
X223142326Y-71308256D01*
X223142327Y-71308259D01*
X223200818Y-71488277D01*
X223200821Y-71488284D01*
X223295467Y-71652216D01*
X223313848Y-71672630D01*
X223370650Y-71735715D01*
X223400880Y-71798706D01*
X223402500Y-71818687D01*
X223402500Y-78060294D01*
X223382815Y-78127333D01*
X223330011Y-78173088D01*
X223260853Y-78183032D01*
X223204190Y-78159561D01*
X223071849Y-78060492D01*
X223071841Y-78060487D01*
X222833252Y-77930208D01*
X222833240Y-77930203D01*
X222747900Y-77898372D01*
X222691966Y-77856501D01*
X222667550Y-77791036D01*
X222667234Y-77782191D01*
X222667234Y-72783894D01*
X222686919Y-72716855D01*
X222699077Y-72700929D01*
X222728533Y-72668216D01*
X222823179Y-72504284D01*
X222881674Y-72324256D01*
X222901460Y-72136000D01*
X222881674Y-71947744D01*
X222823179Y-71767716D01*
X222728533Y-71603784D01*
X222601871Y-71463112D01*
X222601870Y-71463111D01*
X222448734Y-71351851D01*
X222448729Y-71351848D01*
X222275807Y-71274857D01*
X222275802Y-71274855D01*
X222130001Y-71243865D01*
X222090646Y-71235500D01*
X221901354Y-71235500D01*
X221868897Y-71242398D01*
X221716197Y-71274855D01*
X221716192Y-71274857D01*
X221543270Y-71351848D01*
X221543265Y-71351851D01*
X221390129Y-71463111D01*
X221263466Y-71603785D01*
X221168821Y-71767715D01*
X221168818Y-71767722D01*
X221152259Y-71818687D01*
X221110326Y-71947744D01*
X221090540Y-72136000D01*
X221110326Y-72324256D01*
X221110327Y-72324259D01*
X221168818Y-72504277D01*
X221168821Y-72504284D01*
X221263467Y-72668216D01*
X221384384Y-72802507D01*
X221414614Y-72865498D01*
X221416234Y-72885479D01*
X221416234Y-77782191D01*
X221396549Y-77849230D01*
X221343745Y-77894985D01*
X221335568Y-77898372D01*
X221250227Y-77930203D01*
X221250211Y-77930210D01*
X221235146Y-77938436D01*
X221166873Y-77953286D01*
X221101409Y-77928867D01*
X221059540Y-77872932D01*
X221054557Y-77855959D01*
X221050909Y-77839190D01*
X221050908Y-77839188D01*
X221050907Y-77839182D01*
X220955904Y-77584470D01*
X220955902Y-77584467D01*
X220955901Y-77584463D01*
X220825622Y-77345875D01*
X220825621Y-77345874D01*
X220825620Y-77345872D01*
X220825619Y-77345870D01*
X220662703Y-77128241D01*
X220662698Y-77128236D01*
X220662693Y-77128230D01*
X220470484Y-76936021D01*
X220470478Y-76936016D01*
X220470474Y-76936012D01*
X220252845Y-76773096D01*
X220252840Y-76773093D01*
X220252839Y-76773092D01*
X220014250Y-76642813D01*
X220014238Y-76642808D01*
X219928898Y-76610977D01*
X219872964Y-76569106D01*
X219848548Y-76503641D01*
X219848232Y-76494796D01*
X219848232Y-73827661D01*
X219867917Y-73760622D01*
X219880083Y-73744688D01*
X219934533Y-73684216D01*
X220029179Y-73520284D01*
X220087674Y-73340256D01*
X220107460Y-73152000D01*
X220087674Y-72963744D01*
X220029179Y-72783716D01*
X219934533Y-72619784D01*
X219807871Y-72479112D01*
X219807870Y-72479111D01*
X219654734Y-72367851D01*
X219654729Y-72367848D01*
X219481807Y-72290857D01*
X219481802Y-72290855D01*
X219336001Y-72259865D01*
X219296646Y-72251500D01*
X219107354Y-72251500D01*
X219074897Y-72258398D01*
X218922197Y-72290855D01*
X218922192Y-72290857D01*
X218749270Y-72367848D01*
X218749265Y-72367851D01*
X218596129Y-72479111D01*
X218469466Y-72619785D01*
X218374821Y-72783715D01*
X218374818Y-72783722D01*
X218316327Y-72963740D01*
X218316326Y-72963744D01*
X218296540Y-73152000D01*
X218316326Y-73340256D01*
X218316327Y-73340259D01*
X218374818Y-73520277D01*
X218374821Y-73520284D01*
X218469467Y-73684216D01*
X218563317Y-73788447D01*
X218565382Y-73790740D01*
X218595612Y-73853731D01*
X218597232Y-73873712D01*
X218597232Y-76494796D01*
X218577547Y-76561835D01*
X218524743Y-76607590D01*
X218516566Y-76610977D01*
X218431225Y-76642808D01*
X218431213Y-76642813D01*
X218192624Y-76773092D01*
X218192623Y-76773093D01*
X217974991Y-76936011D01*
X217974979Y-76936021D01*
X217782770Y-77128230D01*
X217782760Y-77128242D01*
X217619843Y-77345872D01*
X217611615Y-77360942D01*
X217562209Y-77410347D01*
X217493936Y-77425198D01*
X217428472Y-77400781D01*
X217415102Y-77389195D01*
X217402970Y-77377063D01*
X217402964Y-77377058D01*
X217402960Y-77377054D01*
X217185331Y-77214138D01*
X217185326Y-77214135D01*
X217185325Y-77214134D01*
X216946736Y-77083855D01*
X216946724Y-77083850D01*
X216861384Y-77052019D01*
X216805450Y-77010148D01*
X216781034Y-76944683D01*
X216780718Y-76935838D01*
X216780718Y-74865334D01*
X216800403Y-74798295D01*
X216812568Y-74782362D01*
X216886533Y-74700216D01*
X216981179Y-74536284D01*
X217039674Y-74356256D01*
X217059460Y-74168000D01*
X217039674Y-73979744D01*
X216981179Y-73799716D01*
X216886533Y-73635784D01*
X216759871Y-73495112D01*
X216759870Y-73495111D01*
X216606734Y-73383851D01*
X216606729Y-73383848D01*
X216433807Y-73306857D01*
X216433802Y-73306855D01*
X216288001Y-73275865D01*
X216248646Y-73267500D01*
X216059354Y-73267500D01*
X216026897Y-73274398D01*
X215874197Y-73306855D01*
X215874192Y-73306857D01*
X215701270Y-73383848D01*
X215701265Y-73383851D01*
X215548129Y-73495111D01*
X215421466Y-73635785D01*
X215326821Y-73799715D01*
X215326818Y-73799722D01*
X215268327Y-73979740D01*
X215268326Y-73979744D01*
X215248540Y-74168000D01*
X215268326Y-74356256D01*
X215268327Y-74356259D01*
X215326818Y-74536277D01*
X215326821Y-74536284D01*
X215421467Y-74700216D01*
X215497869Y-74785068D01*
X215528098Y-74848058D01*
X215529718Y-74868039D01*
X215529718Y-76935838D01*
X215510033Y-77002877D01*
X215457229Y-77048632D01*
X215449052Y-77052019D01*
X215363711Y-77083850D01*
X215363699Y-77083855D01*
X215125110Y-77214134D01*
X215125109Y-77214135D01*
X214907477Y-77377053D01*
X214907465Y-77377063D01*
X214715256Y-77569272D01*
X214715246Y-77569284D01*
X214552328Y-77786916D01*
X214552327Y-77786917D01*
X214472332Y-77933418D01*
X214422927Y-77982823D01*
X214354654Y-77997675D01*
X214289189Y-77973258D01*
X214247318Y-77917324D01*
X214239500Y-77873991D01*
X214239500Y-76898687D01*
X214259185Y-76831648D01*
X214271350Y-76815715D01*
X214289891Y-76795122D01*
X214346533Y-76732216D01*
X214441179Y-76568284D01*
X214499674Y-76388256D01*
X214519460Y-76200000D01*
X214499674Y-76011744D01*
X214441179Y-75831716D01*
X214346533Y-75667784D01*
X214219871Y-75527112D01*
X214219870Y-75527111D01*
X214066734Y-75415851D01*
X214066729Y-75415848D01*
X213893807Y-75338857D01*
X213893802Y-75338855D01*
X213748001Y-75307865D01*
X213708646Y-75299500D01*
X213519354Y-75299500D01*
X213486897Y-75306398D01*
X213334197Y-75338855D01*
X213334192Y-75338857D01*
X213161270Y-75415848D01*
X213161265Y-75415851D01*
X213008129Y-75527111D01*
X212881466Y-75667785D01*
X212786821Y-75831715D01*
X212786818Y-75831722D01*
X212728327Y-76011740D01*
X212728326Y-76011744D01*
X212708540Y-76200000D01*
X212728326Y-76388256D01*
X212728327Y-76388259D01*
X212786818Y-76568277D01*
X212786821Y-76568284D01*
X212881467Y-76732216D01*
X212918272Y-76773092D01*
X212956650Y-76815715D01*
X212986880Y-76878706D01*
X212988500Y-76898687D01*
X212988500Y-79057801D01*
X212968815Y-79124840D01*
X212923927Y-79166633D01*
X212782998Y-79243585D01*
X212782997Y-79243586D01*
X212565365Y-79406504D01*
X212565353Y-79406514D01*
X212373144Y-79598723D01*
X212373134Y-79598735D01*
X212210216Y-79816367D01*
X212210215Y-79816368D01*
X212079936Y-80054956D01*
X212045407Y-80147532D01*
X211984931Y-80309675D01*
X211984930Y-80309678D01*
X211984929Y-80309682D01*
X211944666Y-80494770D01*
X211911181Y-80556093D01*
X211849858Y-80589578D01*
X211780167Y-80584594D01*
X211724233Y-80542723D01*
X211699816Y-80477258D01*
X211699500Y-80468412D01*
X211699500Y-75882687D01*
X211719185Y-75815648D01*
X211731350Y-75799715D01*
X211749891Y-75779122D01*
X211806533Y-75716216D01*
X211901179Y-75552284D01*
X211959674Y-75372256D01*
X211979460Y-75184000D01*
X211959674Y-74995744D01*
X211901179Y-74815716D01*
X211806533Y-74651784D01*
X211679871Y-74511112D01*
X211679870Y-74511111D01*
X211526734Y-74399851D01*
X211526729Y-74399848D01*
X211353807Y-74322857D01*
X211353802Y-74322855D01*
X211208001Y-74291865D01*
X211168646Y-74283500D01*
X210979354Y-74283500D01*
X210946897Y-74290398D01*
X210794197Y-74322855D01*
X210794192Y-74322857D01*
X210621270Y-74399848D01*
X210621265Y-74399851D01*
X210468129Y-74511111D01*
X210341466Y-74651785D01*
X210246821Y-74815715D01*
X210246818Y-74815722D01*
X210188327Y-74995740D01*
X210188326Y-74995744D01*
X210168540Y-75184000D01*
X201285500Y-75184000D01*
X201285500Y-70802687D01*
X201305185Y-70735648D01*
X201317350Y-70719715D01*
X201347714Y-70685992D01*
X201392533Y-70636216D01*
X201487179Y-70472284D01*
X201545674Y-70292256D01*
X201565460Y-70104000D01*
X201545674Y-69915744D01*
X201487179Y-69735716D01*
X201392533Y-69571784D01*
X201265871Y-69431112D01*
X201265870Y-69431111D01*
X201112734Y-69319851D01*
X201112729Y-69319848D01*
X200939807Y-69242857D01*
X200939802Y-69242855D01*
X200794001Y-69211865D01*
X200754646Y-69203500D01*
X200565354Y-69203500D01*
X200532897Y-69210398D01*
X200380197Y-69242855D01*
X200380192Y-69242857D01*
X200207270Y-69319848D01*
X200207265Y-69319851D01*
X200054129Y-69431111D01*
X199927466Y-69571785D01*
X199832821Y-69735715D01*
X199832818Y-69735722D01*
X199774327Y-69915740D01*
X199774326Y-69915744D01*
X199754540Y-70104000D01*
X199765794Y-70211082D01*
X199753226Y-70279810D01*
X199705494Y-70330834D01*
X199637753Y-70347952D01*
X199592038Y-70337321D01*
X199415807Y-70258857D01*
X199415802Y-70258855D01*
X199270001Y-70227865D01*
X199230646Y-70219500D01*
X199041354Y-70219500D01*
X199008897Y-70226398D01*
X198856197Y-70258855D01*
X198856192Y-70258857D01*
X198683270Y-70335848D01*
X198683265Y-70335851D01*
X198530129Y-70447111D01*
X198403466Y-70587785D01*
X198308821Y-70751715D01*
X198308818Y-70751722D01*
X198292259Y-70802687D01*
X198250326Y-70931744D01*
X198230540Y-71120000D01*
X198250326Y-71308256D01*
X198250327Y-71308259D01*
X198308818Y-71488277D01*
X198308821Y-71488284D01*
X198403467Y-71652216D01*
X198421848Y-71672630D01*
X198478650Y-71735715D01*
X198508880Y-71798706D01*
X198510500Y-71818687D01*
X198510500Y-78634358D01*
X198490815Y-78701397D01*
X198438011Y-78747152D01*
X198368853Y-78757096D01*
X198305297Y-78728071D01*
X198277668Y-78693785D01*
X198244624Y-78633270D01*
X198244623Y-78633269D01*
X198244621Y-78633265D01*
X198081705Y-78415636D01*
X198081700Y-78415631D01*
X198081695Y-78415625D01*
X197889486Y-78223416D01*
X197889480Y-78223411D01*
X197889476Y-78223407D01*
X197671847Y-78060491D01*
X197671842Y-78060488D01*
X197671841Y-78060487D01*
X197433252Y-77930208D01*
X197433240Y-77930203D01*
X197347900Y-77898372D01*
X197291966Y-77856501D01*
X197267550Y-77791036D01*
X197267234Y-77782191D01*
X197267234Y-72834687D01*
X197286919Y-72767648D01*
X197299084Y-72751715D01*
X197317625Y-72731122D01*
X197374267Y-72668216D01*
X197468913Y-72504284D01*
X197527408Y-72324256D01*
X197547194Y-72136000D01*
X197527408Y-71947744D01*
X197468913Y-71767716D01*
X197374267Y-71603784D01*
X197247605Y-71463112D01*
X197247604Y-71463111D01*
X197094468Y-71351851D01*
X197094463Y-71351848D01*
X196921541Y-71274857D01*
X196921536Y-71274855D01*
X196775735Y-71243865D01*
X196736380Y-71235500D01*
X196547088Y-71235500D01*
X196514631Y-71242398D01*
X196361931Y-71274855D01*
X196361926Y-71274857D01*
X196189004Y-71351848D01*
X196188999Y-71351851D01*
X196035863Y-71463111D01*
X195909200Y-71603785D01*
X195814555Y-71767715D01*
X195814552Y-71767722D01*
X195797993Y-71818687D01*
X195756060Y-71947744D01*
X195736274Y-72136000D01*
X195756060Y-72324256D01*
X195756061Y-72324259D01*
X195814552Y-72504277D01*
X195814555Y-72504284D01*
X195909201Y-72668216D01*
X195938649Y-72700921D01*
X195984384Y-72751715D01*
X196014614Y-72814706D01*
X196016234Y-72834687D01*
X196016234Y-77782191D01*
X195996549Y-77849230D01*
X195943745Y-77894985D01*
X195935568Y-77898372D01*
X195850227Y-77930203D01*
X195850211Y-77930210D01*
X195835146Y-77938436D01*
X195766873Y-77953286D01*
X195701409Y-77928867D01*
X195659540Y-77872932D01*
X195654557Y-77855959D01*
X195650909Y-77839190D01*
X195650908Y-77839188D01*
X195650907Y-77839182D01*
X195555904Y-77584470D01*
X195555902Y-77584467D01*
X195555901Y-77584463D01*
X195425622Y-77345875D01*
X195425621Y-77345874D01*
X195425620Y-77345872D01*
X195425619Y-77345870D01*
X195262703Y-77128241D01*
X195262698Y-77128236D01*
X195262693Y-77128230D01*
X195070484Y-76936021D01*
X195070478Y-76936016D01*
X195070474Y-76936012D01*
X194852845Y-76773096D01*
X194852840Y-76773093D01*
X194852839Y-76773092D01*
X194614250Y-76642813D01*
X194614238Y-76642808D01*
X194528898Y-76610977D01*
X194472964Y-76569106D01*
X194448548Y-76503641D01*
X194448232Y-76494796D01*
X194448232Y-73871419D01*
X194467917Y-73804380D01*
X194480082Y-73788447D01*
X194505135Y-73760622D01*
X194555265Y-73704948D01*
X194649911Y-73541016D01*
X194708406Y-73360988D01*
X194728192Y-73172732D01*
X194708406Y-72984476D01*
X194649911Y-72804448D01*
X194555265Y-72640516D01*
X194428603Y-72499844D01*
X194400068Y-72479112D01*
X194275466Y-72388583D01*
X194275461Y-72388580D01*
X194102539Y-72311589D01*
X194102534Y-72311587D01*
X193956733Y-72280597D01*
X193917378Y-72272232D01*
X193728086Y-72272232D01*
X193695629Y-72279130D01*
X193542929Y-72311587D01*
X193542924Y-72311589D01*
X193370002Y-72388580D01*
X193369997Y-72388583D01*
X193216861Y-72499843D01*
X193090198Y-72640517D01*
X192995553Y-72804447D01*
X192995550Y-72804454D01*
X192943794Y-72963744D01*
X192937058Y-72984476D01*
X192917272Y-73172732D01*
X192937058Y-73360988D01*
X192937059Y-73360991D01*
X192995550Y-73541009D01*
X192995553Y-73541016D01*
X193090199Y-73704948D01*
X193133504Y-73753042D01*
X193165382Y-73788447D01*
X193195612Y-73851438D01*
X193197232Y-73871419D01*
X193197232Y-76494796D01*
X193177547Y-76561835D01*
X193124743Y-76607590D01*
X193116566Y-76610977D01*
X193031225Y-76642808D01*
X193031213Y-76642813D01*
X192792624Y-76773092D01*
X192792623Y-76773093D01*
X192574991Y-76936011D01*
X192574979Y-76936021D01*
X192382770Y-77128230D01*
X192382760Y-77128242D01*
X192219843Y-77345872D01*
X192211615Y-77360942D01*
X192162209Y-77410347D01*
X192093936Y-77425198D01*
X192028472Y-77400781D01*
X192015102Y-77389195D01*
X192002970Y-77377063D01*
X192002964Y-77377058D01*
X192002960Y-77377054D01*
X191785331Y-77214138D01*
X191785326Y-77214135D01*
X191785325Y-77214134D01*
X191546736Y-77083855D01*
X191546724Y-77083850D01*
X191461384Y-77052019D01*
X191405450Y-77010148D01*
X191381034Y-76944683D01*
X191380718Y-76935838D01*
X191380718Y-74866687D01*
X191400403Y-74799648D01*
X191412568Y-74783715D01*
X191431109Y-74763122D01*
X191487751Y-74700216D01*
X191582397Y-74536284D01*
X191640892Y-74356256D01*
X191660678Y-74168000D01*
X191640892Y-73979744D01*
X191582397Y-73799716D01*
X191487751Y-73635784D01*
X191361089Y-73495112D01*
X191361088Y-73495111D01*
X191207952Y-73383851D01*
X191207947Y-73383848D01*
X191035025Y-73306857D01*
X191035020Y-73306855D01*
X190889219Y-73275865D01*
X190849864Y-73267500D01*
X190660572Y-73267500D01*
X190628115Y-73274398D01*
X190475415Y-73306855D01*
X190475410Y-73306857D01*
X190302488Y-73383848D01*
X190302483Y-73383851D01*
X190149347Y-73495111D01*
X190022684Y-73635785D01*
X189928039Y-73799715D01*
X189928036Y-73799722D01*
X189869545Y-73979740D01*
X189869544Y-73979744D01*
X189849758Y-74168000D01*
X189869544Y-74356256D01*
X189869545Y-74356259D01*
X189928036Y-74536277D01*
X189928039Y-74536284D01*
X190022685Y-74700216D01*
X190065990Y-74748310D01*
X190097868Y-74783715D01*
X190128098Y-74846706D01*
X190129718Y-74866687D01*
X190129718Y-76935838D01*
X190110033Y-77002877D01*
X190057229Y-77048632D01*
X190049052Y-77052019D01*
X189963711Y-77083850D01*
X189963699Y-77083855D01*
X189725110Y-77214134D01*
X189725109Y-77214135D01*
X189507477Y-77377053D01*
X189507465Y-77377063D01*
X189315256Y-77569272D01*
X189315246Y-77569284D01*
X189152328Y-77786916D01*
X189152327Y-77786917D01*
X189072332Y-77933418D01*
X189022927Y-77982823D01*
X188954654Y-77997675D01*
X188889189Y-77973258D01*
X188847318Y-77917324D01*
X188839500Y-77873991D01*
X188839500Y-76898687D01*
X188859185Y-76831648D01*
X188871350Y-76815715D01*
X188889891Y-76795122D01*
X188946533Y-76732216D01*
X189041179Y-76568284D01*
X189099674Y-76388256D01*
X189119460Y-76200000D01*
X189099674Y-76011744D01*
X189041179Y-75831716D01*
X188946533Y-75667784D01*
X188819871Y-75527112D01*
X188819870Y-75527111D01*
X188666734Y-75415851D01*
X188666729Y-75415848D01*
X188493807Y-75338857D01*
X188493802Y-75338855D01*
X188348001Y-75307865D01*
X188308646Y-75299500D01*
X188119354Y-75299500D01*
X188086897Y-75306398D01*
X187934197Y-75338855D01*
X187934192Y-75338857D01*
X187761270Y-75415848D01*
X187761265Y-75415851D01*
X187608129Y-75527111D01*
X187481466Y-75667785D01*
X187386821Y-75831715D01*
X187386818Y-75831722D01*
X187328327Y-76011740D01*
X187328326Y-76011744D01*
X187308540Y-76200000D01*
X187328326Y-76388256D01*
X187328327Y-76388259D01*
X187386818Y-76568277D01*
X187386821Y-76568284D01*
X187481467Y-76732216D01*
X187518272Y-76773092D01*
X187556650Y-76815715D01*
X187586880Y-76878706D01*
X187588500Y-76898687D01*
X187588500Y-79057801D01*
X187568815Y-79124840D01*
X187523927Y-79166633D01*
X187382998Y-79243585D01*
X187382997Y-79243586D01*
X187165365Y-79406504D01*
X187165353Y-79406514D01*
X186973144Y-79598723D01*
X186973134Y-79598735D01*
X186810216Y-79816367D01*
X186810215Y-79816368D01*
X186679936Y-80054956D01*
X186645407Y-80147532D01*
X186584931Y-80309675D01*
X186584930Y-80309678D01*
X186584929Y-80309682D01*
X186544666Y-80494770D01*
X186511181Y-80556093D01*
X186449858Y-80589578D01*
X186380167Y-80584594D01*
X186324233Y-80542723D01*
X186299816Y-80477258D01*
X186299500Y-80468412D01*
X186299500Y-75882687D01*
X186319185Y-75815648D01*
X186331350Y-75799715D01*
X186349891Y-75779122D01*
X186406533Y-75716216D01*
X186501179Y-75552284D01*
X186559674Y-75372256D01*
X186579460Y-75184000D01*
X186559674Y-74995744D01*
X186501179Y-74815716D01*
X186406533Y-74651784D01*
X186279871Y-74511112D01*
X186279870Y-74511111D01*
X186126734Y-74399851D01*
X186126729Y-74399848D01*
X185953807Y-74322857D01*
X185953802Y-74322855D01*
X185808001Y-74291865D01*
X185768646Y-74283500D01*
X185579354Y-74283500D01*
X185546897Y-74290398D01*
X185394197Y-74322855D01*
X185394192Y-74322857D01*
X185221270Y-74399848D01*
X185221265Y-74399851D01*
X185068129Y-74511111D01*
X184941466Y-74651785D01*
X184846821Y-74815715D01*
X184846818Y-74815722D01*
X184788327Y-74995740D01*
X184788326Y-74995744D01*
X184768540Y-75184000D01*
X170551500Y-75184000D01*
X170551500Y-70802687D01*
X170571185Y-70735648D01*
X170583350Y-70719715D01*
X170613714Y-70685992D01*
X170658533Y-70636216D01*
X170753179Y-70472284D01*
X170811674Y-70292256D01*
X170831460Y-70104000D01*
X170811674Y-69915744D01*
X170753179Y-69735716D01*
X170658533Y-69571784D01*
X170531871Y-69431112D01*
X170531870Y-69431111D01*
X170378734Y-69319851D01*
X170378729Y-69319848D01*
X170205807Y-69242857D01*
X170205802Y-69242855D01*
X170060001Y-69211865D01*
X170020646Y-69203500D01*
X169831354Y-69203500D01*
X169798897Y-69210398D01*
X169646197Y-69242855D01*
X169646192Y-69242857D01*
X169473270Y-69319848D01*
X169473265Y-69319851D01*
X169320129Y-69431111D01*
X169193466Y-69571785D01*
X169098821Y-69735715D01*
X169098818Y-69735722D01*
X169040327Y-69915740D01*
X169040326Y-69915744D01*
X169020540Y-70104000D01*
X169031794Y-70211082D01*
X169019226Y-70279810D01*
X168971494Y-70330834D01*
X168903753Y-70347952D01*
X168858038Y-70337321D01*
X168681807Y-70258857D01*
X168681802Y-70258855D01*
X168536001Y-70227865D01*
X168496646Y-70219500D01*
X168307354Y-70219500D01*
X168274897Y-70226398D01*
X168122197Y-70258855D01*
X168122192Y-70258857D01*
X167949270Y-70335848D01*
X167949265Y-70335851D01*
X167796129Y-70447111D01*
X167669466Y-70587785D01*
X167574821Y-70751715D01*
X167574818Y-70751722D01*
X167558259Y-70802687D01*
X167516326Y-70931744D01*
X167496540Y-71120000D01*
X167516326Y-71308256D01*
X167516327Y-71308259D01*
X167574818Y-71488277D01*
X167574821Y-71488284D01*
X167669467Y-71652216D01*
X167687848Y-71672630D01*
X167744650Y-71735715D01*
X167774880Y-71798706D01*
X167776500Y-71818687D01*
X167776500Y-78291068D01*
X167756815Y-78358107D01*
X167704011Y-78403862D01*
X167634853Y-78413806D01*
X167571297Y-78384781D01*
X167564819Y-78378749D01*
X167409486Y-78223416D01*
X167409480Y-78223411D01*
X167409476Y-78223407D01*
X167191847Y-78060491D01*
X167191842Y-78060488D01*
X167191841Y-78060487D01*
X166953252Y-77930208D01*
X166953240Y-77930203D01*
X166867900Y-77898372D01*
X166811966Y-77856501D01*
X166787550Y-77791036D01*
X166787234Y-77782191D01*
X166787234Y-72783894D01*
X166806919Y-72716855D01*
X166819077Y-72700929D01*
X166848533Y-72668216D01*
X166943179Y-72504284D01*
X167001674Y-72324256D01*
X167021460Y-72136000D01*
X167001674Y-71947744D01*
X166943179Y-71767716D01*
X166848533Y-71603784D01*
X166721871Y-71463112D01*
X166721870Y-71463111D01*
X166568734Y-71351851D01*
X166568729Y-71351848D01*
X166395807Y-71274857D01*
X166395802Y-71274855D01*
X166250001Y-71243865D01*
X166210646Y-71235500D01*
X166021354Y-71235500D01*
X165988897Y-71242398D01*
X165836197Y-71274855D01*
X165836192Y-71274857D01*
X165663270Y-71351848D01*
X165663265Y-71351851D01*
X165510129Y-71463111D01*
X165383466Y-71603785D01*
X165288821Y-71767715D01*
X165288818Y-71767722D01*
X165272259Y-71818687D01*
X165230326Y-71947744D01*
X165210540Y-72136000D01*
X165230326Y-72324256D01*
X165230327Y-72324259D01*
X165288818Y-72504277D01*
X165288821Y-72504284D01*
X165383467Y-72668216D01*
X165504384Y-72802507D01*
X165534614Y-72865498D01*
X165536234Y-72885479D01*
X165536234Y-77782191D01*
X165516549Y-77849230D01*
X165463745Y-77894985D01*
X165455568Y-77898372D01*
X165370227Y-77930203D01*
X165370211Y-77930210D01*
X165355146Y-77938436D01*
X165286873Y-77953286D01*
X165221409Y-77928867D01*
X165179540Y-77872932D01*
X165174557Y-77855959D01*
X165170909Y-77839190D01*
X165170908Y-77839188D01*
X165170907Y-77839182D01*
X165075904Y-77584470D01*
X165075902Y-77584467D01*
X165075901Y-77584463D01*
X164945622Y-77345875D01*
X164945621Y-77345874D01*
X164945620Y-77345872D01*
X164945619Y-77345870D01*
X164782703Y-77128241D01*
X164782698Y-77128236D01*
X164782693Y-77128230D01*
X164590484Y-76936021D01*
X164590478Y-76936016D01*
X164590474Y-76936012D01*
X164372845Y-76773096D01*
X164372840Y-76773093D01*
X164372839Y-76773092D01*
X164134250Y-76642813D01*
X164134238Y-76642808D01*
X164048898Y-76610977D01*
X163992964Y-76569106D01*
X163968548Y-76503641D01*
X163968232Y-76494796D01*
X163968232Y-73827661D01*
X163987917Y-73760622D01*
X164000083Y-73744688D01*
X164054533Y-73684216D01*
X164149179Y-73520284D01*
X164207674Y-73340256D01*
X164227460Y-73152000D01*
X164207674Y-72963744D01*
X164149179Y-72783716D01*
X164054533Y-72619784D01*
X163927871Y-72479112D01*
X163927870Y-72479111D01*
X163774734Y-72367851D01*
X163774729Y-72367848D01*
X163601807Y-72290857D01*
X163601802Y-72290855D01*
X163456001Y-72259865D01*
X163416646Y-72251500D01*
X163227354Y-72251500D01*
X163194897Y-72258398D01*
X163042197Y-72290855D01*
X163042192Y-72290857D01*
X162869270Y-72367848D01*
X162869265Y-72367851D01*
X162716129Y-72479111D01*
X162589466Y-72619785D01*
X162494821Y-72783715D01*
X162494818Y-72783722D01*
X162436327Y-72963740D01*
X162436326Y-72963744D01*
X162416540Y-73152000D01*
X162436326Y-73340256D01*
X162436327Y-73340259D01*
X162494818Y-73520277D01*
X162494821Y-73520284D01*
X162589467Y-73684216D01*
X162683317Y-73788447D01*
X162685382Y-73790740D01*
X162715612Y-73853731D01*
X162717232Y-73873712D01*
X162717232Y-76494796D01*
X162697547Y-76561835D01*
X162644743Y-76607590D01*
X162636566Y-76610977D01*
X162551225Y-76642808D01*
X162551213Y-76642813D01*
X162312624Y-76773092D01*
X162312623Y-76773093D01*
X162094991Y-76936011D01*
X162094979Y-76936021D01*
X161902770Y-77128230D01*
X161902760Y-77128242D01*
X161739843Y-77345872D01*
X161731615Y-77360942D01*
X161682209Y-77410347D01*
X161613936Y-77425198D01*
X161548472Y-77400781D01*
X161535102Y-77389195D01*
X161522970Y-77377063D01*
X161522964Y-77377058D01*
X161522960Y-77377054D01*
X161305331Y-77214138D01*
X161305326Y-77214135D01*
X161305325Y-77214134D01*
X161066736Y-77083855D01*
X161066724Y-77083850D01*
X160981384Y-77052019D01*
X160925450Y-77010148D01*
X160901034Y-76944683D01*
X160900718Y-76935838D01*
X160900718Y-74866687D01*
X160920403Y-74799648D01*
X160932568Y-74783715D01*
X160951109Y-74763122D01*
X161007751Y-74700216D01*
X161102397Y-74536284D01*
X161160892Y-74356256D01*
X161180678Y-74168000D01*
X161160892Y-73979744D01*
X161102397Y-73799716D01*
X161007751Y-73635784D01*
X160881089Y-73495112D01*
X160881088Y-73495111D01*
X160727952Y-73383851D01*
X160727947Y-73383848D01*
X160555025Y-73306857D01*
X160555020Y-73306855D01*
X160409219Y-73275865D01*
X160369864Y-73267500D01*
X160180572Y-73267500D01*
X160148115Y-73274398D01*
X159995415Y-73306855D01*
X159995410Y-73306857D01*
X159822488Y-73383848D01*
X159822483Y-73383851D01*
X159669347Y-73495111D01*
X159542684Y-73635785D01*
X159448039Y-73799715D01*
X159448036Y-73799722D01*
X159389545Y-73979740D01*
X159389544Y-73979744D01*
X159369758Y-74168000D01*
X159389544Y-74356256D01*
X159389545Y-74356259D01*
X159448036Y-74536277D01*
X159448039Y-74536284D01*
X159542685Y-74700216D01*
X159585990Y-74748310D01*
X159617868Y-74783715D01*
X159648098Y-74846706D01*
X159649718Y-74866687D01*
X159649718Y-76935838D01*
X159630033Y-77002877D01*
X159577229Y-77048632D01*
X159569052Y-77052019D01*
X159483711Y-77083850D01*
X159483699Y-77083855D01*
X159245110Y-77214134D01*
X159245109Y-77214135D01*
X159027477Y-77377053D01*
X159027465Y-77377063D01*
X158835256Y-77569272D01*
X158835246Y-77569284D01*
X158672328Y-77786916D01*
X158672327Y-77786917D01*
X158592332Y-77933418D01*
X158542927Y-77982823D01*
X158474654Y-77997675D01*
X158409189Y-77973258D01*
X158367318Y-77917324D01*
X158359500Y-77873991D01*
X158359500Y-76898687D01*
X158379185Y-76831648D01*
X158391350Y-76815715D01*
X158409891Y-76795122D01*
X158466533Y-76732216D01*
X158561179Y-76568284D01*
X158619674Y-76388256D01*
X158639460Y-76200000D01*
X158619674Y-76011744D01*
X158561179Y-75831716D01*
X158466533Y-75667784D01*
X158339871Y-75527112D01*
X158339870Y-75527111D01*
X158186734Y-75415851D01*
X158186729Y-75415848D01*
X158013807Y-75338857D01*
X158013802Y-75338855D01*
X157868001Y-75307865D01*
X157828646Y-75299500D01*
X157639354Y-75299500D01*
X157606897Y-75306398D01*
X157454197Y-75338855D01*
X157454192Y-75338857D01*
X157281270Y-75415848D01*
X157281265Y-75415851D01*
X157128129Y-75527111D01*
X157001466Y-75667785D01*
X156906821Y-75831715D01*
X156906818Y-75831722D01*
X156848327Y-76011740D01*
X156848326Y-76011744D01*
X156828540Y-76200000D01*
X156848326Y-76388256D01*
X156848327Y-76388259D01*
X156906818Y-76568277D01*
X156906821Y-76568284D01*
X157001467Y-76732216D01*
X157038272Y-76773092D01*
X157076650Y-76815715D01*
X157106880Y-76878706D01*
X157108500Y-76898687D01*
X157108500Y-79057801D01*
X157088815Y-79124840D01*
X157043927Y-79166633D01*
X156902998Y-79243585D01*
X156902997Y-79243586D01*
X156685365Y-79406504D01*
X156685353Y-79406514D01*
X156493144Y-79598723D01*
X156493134Y-79598735D01*
X156330216Y-79816367D01*
X156330215Y-79816368D01*
X156199936Y-80054956D01*
X156165407Y-80147532D01*
X156104931Y-80309675D01*
X156104930Y-80309678D01*
X156104929Y-80309682D01*
X156064666Y-80494770D01*
X156031181Y-80556093D01*
X155969858Y-80589578D01*
X155900167Y-80584594D01*
X155844233Y-80542723D01*
X155819816Y-80477258D01*
X155819500Y-80468412D01*
X155819500Y-75882687D01*
X155839185Y-75815648D01*
X155851350Y-75799715D01*
X155869891Y-75779122D01*
X155926533Y-75716216D01*
X156021179Y-75552284D01*
X156079674Y-75372256D01*
X156099460Y-75184000D01*
X156079674Y-74995744D01*
X156021179Y-74815716D01*
X155926533Y-74651784D01*
X155799871Y-74511112D01*
X155799870Y-74511111D01*
X155646734Y-74399851D01*
X155646729Y-74399848D01*
X155473807Y-74322857D01*
X155473802Y-74322855D01*
X155328001Y-74291865D01*
X155288646Y-74283500D01*
X155099354Y-74283500D01*
X155066897Y-74290398D01*
X154914197Y-74322855D01*
X154914192Y-74322857D01*
X154741270Y-74399848D01*
X154741265Y-74399851D01*
X154588129Y-74511111D01*
X154461466Y-74651785D01*
X154366821Y-74815715D01*
X154366818Y-74815722D01*
X154308327Y-74995740D01*
X154308326Y-74995744D01*
X154288540Y-75184000D01*
X145151500Y-75184000D01*
X145151500Y-70802687D01*
X145171185Y-70735648D01*
X145183350Y-70719715D01*
X145213714Y-70685992D01*
X145258533Y-70636216D01*
X145353179Y-70472284D01*
X145411674Y-70292256D01*
X145431460Y-70104000D01*
X145411674Y-69915744D01*
X145353179Y-69735716D01*
X145258533Y-69571784D01*
X145131871Y-69431112D01*
X145131870Y-69431111D01*
X144978734Y-69319851D01*
X144978729Y-69319848D01*
X144805807Y-69242857D01*
X144805802Y-69242855D01*
X144660001Y-69211865D01*
X144620646Y-69203500D01*
X144431354Y-69203500D01*
X144398897Y-69210398D01*
X144246197Y-69242855D01*
X144246192Y-69242857D01*
X144073270Y-69319848D01*
X144073265Y-69319851D01*
X143920129Y-69431111D01*
X143793466Y-69571785D01*
X143698821Y-69735715D01*
X143698818Y-69735722D01*
X143640327Y-69915740D01*
X143640326Y-69915744D01*
X143620540Y-70104000D01*
X143640326Y-70292256D01*
X143640327Y-70292259D01*
X143700829Y-70478465D01*
X143698650Y-70479172D01*
X143706531Y-70538030D01*
X143684166Y-70585768D01*
X143726095Y-70586168D01*
X143784511Y-70624500D01*
X143790347Y-70631921D01*
X143793464Y-70636212D01*
X143793467Y-70636216D01*
X143812455Y-70657304D01*
X143868650Y-70719715D01*
X143898880Y-70782706D01*
X143900500Y-70802687D01*
X143900500Y-71104368D01*
X143898093Y-71112562D01*
X143898477Y-71113324D01*
X143900500Y-71135631D01*
X143900500Y-80746684D01*
X143880815Y-80813723D01*
X143828011Y-80859478D01*
X143758853Y-80869422D01*
X143695297Y-80840397D01*
X143688819Y-80834365D01*
X143684963Y-80830509D01*
X143684957Y-80830504D01*
X143684953Y-80830500D01*
X143467324Y-80667584D01*
X143467322Y-80667583D01*
X143467321Y-80667582D01*
X143438072Y-80651611D01*
X143388667Y-80602205D01*
X143373500Y-80542779D01*
X143373500Y-71818687D01*
X143393185Y-71751648D01*
X143405350Y-71735715D01*
X143423891Y-71715122D01*
X143480533Y-71652216D01*
X143575179Y-71488284D01*
X143633674Y-71308256D01*
X143653179Y-71122668D01*
X143653892Y-71120936D01*
X143653179Y-71117329D01*
X143651817Y-71104368D01*
X143633674Y-70931744D01*
X143585248Y-70782706D01*
X143573171Y-70745535D01*
X143575352Y-70744826D01*
X143567465Y-70685992D01*
X143589828Y-70638231D01*
X143547881Y-70637824D01*
X143489473Y-70599481D01*
X143483651Y-70592076D01*
X143480534Y-70587785D01*
X143480533Y-70587784D01*
X143353871Y-70447112D01*
X143353870Y-70447111D01*
X143200734Y-70335851D01*
X143200729Y-70335848D01*
X143027807Y-70258857D01*
X143027802Y-70258855D01*
X142882001Y-70227865D01*
X142842646Y-70219500D01*
X142653354Y-70219500D01*
X142620897Y-70226398D01*
X142468197Y-70258855D01*
X142468192Y-70258857D01*
X142295270Y-70335848D01*
X142295265Y-70335851D01*
X142142129Y-70447111D01*
X142015466Y-70587785D01*
X141920821Y-70751715D01*
X141920818Y-70751722D01*
X141904259Y-70802687D01*
X141862326Y-70931744D01*
X141842540Y-71120000D01*
X141862326Y-71308256D01*
X141862327Y-71308259D01*
X141920818Y-71488277D01*
X141920821Y-71488284D01*
X142015467Y-71652216D01*
X142033848Y-71672630D01*
X142090650Y-71735715D01*
X142120880Y-71798706D01*
X142122500Y-71818687D01*
X142122500Y-78060294D01*
X142102815Y-78127333D01*
X142050011Y-78173088D01*
X141980853Y-78183032D01*
X141924190Y-78159561D01*
X141791849Y-78060492D01*
X141791841Y-78060487D01*
X141553252Y-77930208D01*
X141553240Y-77930203D01*
X141467900Y-77898372D01*
X141411966Y-77856501D01*
X141387550Y-77791036D01*
X141387234Y-77782191D01*
X141387234Y-72783894D01*
X141406919Y-72716855D01*
X141419077Y-72700929D01*
X141448533Y-72668216D01*
X141543179Y-72504284D01*
X141601674Y-72324256D01*
X141621460Y-72136000D01*
X141601674Y-71947744D01*
X141543179Y-71767716D01*
X141448533Y-71603784D01*
X141321871Y-71463112D01*
X141321870Y-71463111D01*
X141168734Y-71351851D01*
X141168729Y-71351848D01*
X140995807Y-71274857D01*
X140995802Y-71274855D01*
X140850001Y-71243865D01*
X140810646Y-71235500D01*
X140621354Y-71235500D01*
X140588897Y-71242398D01*
X140436197Y-71274855D01*
X140436192Y-71274857D01*
X140263270Y-71351848D01*
X140263265Y-71351851D01*
X140110129Y-71463111D01*
X139983466Y-71603785D01*
X139888821Y-71767715D01*
X139888818Y-71767722D01*
X139872259Y-71818687D01*
X139830326Y-71947744D01*
X139810540Y-72136000D01*
X139830326Y-72324256D01*
X139830327Y-72324259D01*
X139888818Y-72504277D01*
X139888821Y-72504284D01*
X139983467Y-72668216D01*
X140104384Y-72802507D01*
X140134614Y-72865498D01*
X140136234Y-72885479D01*
X140136234Y-77782191D01*
X140116549Y-77849230D01*
X140063745Y-77894985D01*
X140055568Y-77898372D01*
X139970227Y-77930203D01*
X139970211Y-77930210D01*
X139955146Y-77938436D01*
X139886873Y-77953286D01*
X139821409Y-77928867D01*
X139779540Y-77872932D01*
X139774557Y-77855959D01*
X139770909Y-77839190D01*
X139770908Y-77839188D01*
X139770907Y-77839182D01*
X139675904Y-77584470D01*
X139675902Y-77584467D01*
X139675901Y-77584463D01*
X139545622Y-77345875D01*
X139545621Y-77345874D01*
X139545620Y-77345872D01*
X139545619Y-77345870D01*
X139382703Y-77128241D01*
X139382698Y-77128236D01*
X139382693Y-77128230D01*
X139190484Y-76936021D01*
X139190478Y-76936016D01*
X139190474Y-76936012D01*
X138972845Y-76773096D01*
X138972840Y-76773093D01*
X138972839Y-76773092D01*
X138734250Y-76642813D01*
X138734238Y-76642808D01*
X138648898Y-76610977D01*
X138592964Y-76569106D01*
X138568548Y-76503641D01*
X138568232Y-76494796D01*
X138568232Y-73827661D01*
X138587917Y-73760622D01*
X138600083Y-73744688D01*
X138654533Y-73684216D01*
X138749179Y-73520284D01*
X138807674Y-73340256D01*
X138827460Y-73152000D01*
X138807674Y-72963744D01*
X138749179Y-72783716D01*
X138654533Y-72619784D01*
X138527871Y-72479112D01*
X138527870Y-72479111D01*
X138374734Y-72367851D01*
X138374729Y-72367848D01*
X138201807Y-72290857D01*
X138201802Y-72290855D01*
X138056001Y-72259865D01*
X138016646Y-72251500D01*
X137827354Y-72251500D01*
X137794897Y-72258398D01*
X137642197Y-72290855D01*
X137642192Y-72290857D01*
X137469270Y-72367848D01*
X137469265Y-72367851D01*
X137316129Y-72479111D01*
X137189466Y-72619785D01*
X137094821Y-72783715D01*
X137094818Y-72783722D01*
X137036327Y-72963740D01*
X137036326Y-72963744D01*
X137016540Y-73152000D01*
X137036326Y-73340256D01*
X137036327Y-73340259D01*
X137094818Y-73520277D01*
X137094821Y-73520284D01*
X137189467Y-73684216D01*
X137283317Y-73788447D01*
X137285382Y-73790740D01*
X137315612Y-73853731D01*
X137317232Y-73873712D01*
X137317232Y-76494796D01*
X137297547Y-76561835D01*
X137244743Y-76607590D01*
X137236566Y-76610977D01*
X137151225Y-76642808D01*
X137151213Y-76642813D01*
X136912624Y-76773092D01*
X136912623Y-76773093D01*
X136694991Y-76936011D01*
X136694979Y-76936021D01*
X136502770Y-77128230D01*
X136502760Y-77128242D01*
X136339843Y-77345872D01*
X136331615Y-77360942D01*
X136282209Y-77410347D01*
X136213936Y-77425198D01*
X136148472Y-77400781D01*
X136135102Y-77389195D01*
X136122970Y-77377063D01*
X136122964Y-77377058D01*
X136122960Y-77377054D01*
X135905331Y-77214138D01*
X135905326Y-77214135D01*
X135905325Y-77214134D01*
X135666736Y-77083855D01*
X135666724Y-77083850D01*
X135581384Y-77052019D01*
X135525450Y-77010148D01*
X135501034Y-76944683D01*
X135500718Y-76935838D01*
X135500718Y-74865334D01*
X135520403Y-74798295D01*
X135532568Y-74782362D01*
X135606533Y-74700216D01*
X135701179Y-74536284D01*
X135759674Y-74356256D01*
X135779460Y-74168000D01*
X135759674Y-73979744D01*
X135701179Y-73799716D01*
X135606533Y-73635784D01*
X135479871Y-73495112D01*
X135479870Y-73495111D01*
X135326734Y-73383851D01*
X135326729Y-73383848D01*
X135153807Y-73306857D01*
X135153802Y-73306855D01*
X135008001Y-73275865D01*
X134968646Y-73267500D01*
X134779354Y-73267500D01*
X134746897Y-73274398D01*
X134594197Y-73306855D01*
X134594192Y-73306857D01*
X134421270Y-73383848D01*
X134421265Y-73383851D01*
X134268129Y-73495111D01*
X134141466Y-73635785D01*
X134046821Y-73799715D01*
X134046818Y-73799722D01*
X133988327Y-73979740D01*
X133988326Y-73979744D01*
X133968540Y-74168000D01*
X133988326Y-74356256D01*
X133988327Y-74356259D01*
X134046818Y-74536277D01*
X134046821Y-74536284D01*
X134141467Y-74700216D01*
X134217869Y-74785068D01*
X134248098Y-74848058D01*
X134249718Y-74868039D01*
X134249718Y-76935838D01*
X134230033Y-77002877D01*
X134177229Y-77048632D01*
X134169052Y-77052019D01*
X134083711Y-77083850D01*
X134083699Y-77083855D01*
X133845110Y-77214134D01*
X133845109Y-77214135D01*
X133627477Y-77377053D01*
X133627465Y-77377063D01*
X133435256Y-77569272D01*
X133435246Y-77569284D01*
X133272328Y-77786916D01*
X133272327Y-77786917D01*
X133192332Y-77933418D01*
X133142927Y-77982823D01*
X133074654Y-77997675D01*
X133009189Y-77973258D01*
X132967318Y-77917324D01*
X132959500Y-77873991D01*
X132959500Y-76898687D01*
X132979185Y-76831648D01*
X132991350Y-76815715D01*
X133009891Y-76795122D01*
X133066533Y-76732216D01*
X133161179Y-76568284D01*
X133219674Y-76388256D01*
X133239460Y-76200000D01*
X133219674Y-76011744D01*
X133161179Y-75831716D01*
X133066533Y-75667784D01*
X132939871Y-75527112D01*
X132939870Y-75527111D01*
X132786734Y-75415851D01*
X132786729Y-75415848D01*
X132613807Y-75338857D01*
X132613802Y-75338855D01*
X132468001Y-75307865D01*
X132428646Y-75299500D01*
X132239354Y-75299500D01*
X132206897Y-75306398D01*
X132054197Y-75338855D01*
X132054192Y-75338857D01*
X131881270Y-75415848D01*
X131881265Y-75415851D01*
X131728129Y-75527111D01*
X131601466Y-75667785D01*
X131506821Y-75831715D01*
X131506818Y-75831722D01*
X131448327Y-76011740D01*
X131448326Y-76011744D01*
X131428540Y-76200000D01*
X131448326Y-76388256D01*
X131448327Y-76388259D01*
X131506818Y-76568277D01*
X131506821Y-76568284D01*
X131601467Y-76732216D01*
X131638272Y-76773092D01*
X131676650Y-76815715D01*
X131706880Y-76878706D01*
X131708500Y-76898687D01*
X131708500Y-79057801D01*
X131688815Y-79124840D01*
X131643927Y-79166633D01*
X131502998Y-79243585D01*
X131502997Y-79243586D01*
X131285365Y-79406504D01*
X131285353Y-79406514D01*
X131093144Y-79598723D01*
X131093134Y-79598735D01*
X130930216Y-79816367D01*
X130930215Y-79816368D01*
X130799936Y-80054956D01*
X130765407Y-80147532D01*
X130704931Y-80309675D01*
X130704930Y-80309678D01*
X130704929Y-80309682D01*
X130664666Y-80494770D01*
X130631181Y-80556093D01*
X130569858Y-80589578D01*
X130500167Y-80584594D01*
X130444233Y-80542723D01*
X130419816Y-80477258D01*
X130419500Y-80468412D01*
X130419500Y-76898687D01*
X130439185Y-76831648D01*
X130451350Y-76815715D01*
X130469891Y-76795122D01*
X130526533Y-76732216D01*
X130621179Y-76568284D01*
X130679674Y-76388256D01*
X130699460Y-76200000D01*
X130679674Y-76011744D01*
X130621179Y-75831716D01*
X130526533Y-75667784D01*
X130399871Y-75527112D01*
X130399870Y-75527111D01*
X130246734Y-75415851D01*
X130246729Y-75415848D01*
X130073807Y-75338857D01*
X130073802Y-75338855D01*
X129928001Y-75307865D01*
X129888646Y-75299500D01*
X129699354Y-75299500D01*
X129666897Y-75306398D01*
X129514197Y-75338855D01*
X129514192Y-75338857D01*
X129341270Y-75415848D01*
X129341265Y-75415851D01*
X129188129Y-75527111D01*
X129061466Y-75667785D01*
X128966821Y-75831715D01*
X128966818Y-75831722D01*
X128908327Y-76011740D01*
X128908326Y-76011744D01*
X128888540Y-76200000D01*
X113195409Y-76200000D01*
X113240703Y-76050684D01*
X113242204Y-76046069D01*
X113254107Y-76011744D01*
X113564168Y-75117602D01*
X113565830Y-75113098D01*
X113924019Y-74197932D01*
X113925859Y-74193489D01*
X114319697Y-73293102D01*
X114321682Y-73288793D01*
X114750576Y-72404539D01*
X114752786Y-72400205D01*
X115074294Y-71798706D01*
X115216022Y-71533551D01*
X115218393Y-71529319D01*
X115242444Y-71488284D01*
X115715314Y-70681488D01*
X115717809Y-70677416D01*
X116247658Y-69849711D01*
X116250318Y-69845728D01*
X116812249Y-69039471D01*
X116815084Y-69035569D01*
X117408213Y-68252024D01*
X117411222Y-68248208D01*
X117529952Y-68103535D01*
X118034651Y-67488556D01*
X118037765Y-67484910D01*
X118690571Y-66750284D01*
X118693793Y-66746797D01*
X119374945Y-66038357D01*
X119378357Y-66034945D01*
X120086797Y-65353793D01*
X120090284Y-65350571D01*
X120824910Y-64697765D01*
X120828556Y-64694651D01*
X121235730Y-64360492D01*
X175779500Y-64360492D01*
X175785130Y-64407374D01*
X175790219Y-64449757D01*
X175846241Y-64591818D01*
X175938508Y-64713491D01*
X176060181Y-64805758D01*
X176060184Y-64805760D01*
X176202241Y-64861780D01*
X176291508Y-64872500D01*
X176291514Y-64872500D01*
X176768486Y-64872500D01*
X176768492Y-64872500D01*
X176857759Y-64861780D01*
X176992114Y-64808796D01*
X177061700Y-64802515D01*
X177078552Y-64807108D01*
X177170745Y-64839368D01*
X177170748Y-64839369D01*
X177272546Y-64850838D01*
X177305040Y-64854499D01*
X177305043Y-64854500D01*
X177305046Y-64854500D01*
X178294957Y-64854500D01*
X178294958Y-64854499D01*
X178362104Y-64846934D01*
X178429249Y-64839369D01*
X178429250Y-64839368D01*
X178429255Y-64839368D01*
X178521442Y-64807109D01*
X178591217Y-64803547D01*
X178607877Y-64808794D01*
X178742241Y-64861780D01*
X178831508Y-64872500D01*
X178831514Y-64872500D01*
X179308486Y-64872500D01*
X179308492Y-64872500D01*
X179397759Y-64861780D01*
X179539816Y-64805760D01*
X179661491Y-64713491D01*
X179753760Y-64591816D01*
X179809780Y-64449759D01*
X179820500Y-64360492D01*
X179820500Y-64163508D01*
X179809780Y-64074241D01*
X179801596Y-64053490D01*
X179795314Y-63983906D01*
X179801597Y-63962508D01*
X179809780Y-63941758D01*
X179820500Y-63852492D01*
X179820500Y-63655507D01*
X179809780Y-63566241D01*
X179801597Y-63545492D01*
X179795314Y-63475906D01*
X179801597Y-63454508D01*
X179809780Y-63433758D01*
X179820500Y-63344492D01*
X179820500Y-63147514D01*
X179820500Y-63147508D01*
X179809780Y-63058241D01*
X179753760Y-62916184D01*
X179747278Y-62907636D01*
X179661491Y-62794508D01*
X179539818Y-62702241D01*
X179539816Y-62702240D01*
X179454592Y-62668632D01*
X179397757Y-62646219D01*
X179351936Y-62640717D01*
X179308492Y-62635500D01*
X178831508Y-62635500D01*
X178742249Y-62646219D01*
X178742241Y-62646220D01*
X178607886Y-62699202D01*
X178538299Y-62705483D01*
X178521443Y-62700889D01*
X178429257Y-62668632D01*
X178429249Y-62668630D01*
X178294960Y-62653500D01*
X178294954Y-62653500D01*
X177305046Y-62653500D01*
X177305039Y-62653500D01*
X177170746Y-62668631D01*
X177170745Y-62668631D01*
X177078555Y-62700889D01*
X177008776Y-62704450D01*
X176992112Y-62699202D01*
X176857757Y-62646219D01*
X176811936Y-62640717D01*
X176768492Y-62635500D01*
X176291508Y-62635500D01*
X176251322Y-62640325D01*
X176202242Y-62646219D01*
X176060181Y-62702241D01*
X175938508Y-62794508D01*
X175846241Y-62916181D01*
X175790219Y-63058242D01*
X175784325Y-63107322D01*
X175779500Y-63147508D01*
X175779500Y-63344492D01*
X175790220Y-63433758D01*
X175798404Y-63454513D01*
X175804684Y-63524100D01*
X175798404Y-63545487D01*
X175790220Y-63566241D01*
X175779500Y-63655508D01*
X175779500Y-63852492D01*
X175790220Y-63941758D01*
X175798404Y-63962513D01*
X175804684Y-64032100D01*
X175798404Y-64053487D01*
X175790220Y-64074241D01*
X175779500Y-64163508D01*
X175779500Y-64360492D01*
X121235730Y-64360492D01*
X121588216Y-64071215D01*
X121592032Y-64068207D01*
X121731658Y-63962513D01*
X122375569Y-63475084D01*
X122379471Y-63472249D01*
X123185728Y-62910318D01*
X123189711Y-62907658D01*
X124017416Y-62377809D01*
X124021488Y-62375314D01*
X124869334Y-61878384D01*
X124873551Y-61876022D01*
X125740208Y-61412784D01*
X125744543Y-61410575D01*
X126628793Y-60981682D01*
X126633102Y-60979697D01*
X127533489Y-60585859D01*
X127537932Y-60584019D01*
X128453098Y-60225830D01*
X128457602Y-60224168D01*
X129386084Y-59902198D01*
X129390684Y-59900703D01*
X130331130Y-59615422D01*
X130335737Y-59614124D01*
X131286621Y-59365994D01*
X131291322Y-59364866D01*
X132251234Y-59154254D01*
X132255926Y-59153321D01*
X133223395Y-58980552D01*
X133228112Y-58979805D01*
X134201626Y-58845152D01*
X134206383Y-58844589D01*
X135184402Y-58748263D01*
X135189191Y-58747886D01*
X136170214Y-58690031D01*
X136175066Y-58689841D01*
X137158778Y-58670524D01*
X137161213Y-58670500D01*
X137204170Y-58670500D01*
X218395830Y-58670500D01*
X218438787Y-58670500D01*
X218441222Y-58670524D01*
G37*
%TD.AperFunction*%
%TD*%
M02*
