M48
; DRILL file {KiCad 7.0.10} date Sat Feb 10 11:13:51 2024
; FORMAT={-:-/ absolute / inch / decimal}
; #@! TF.CreationDate,2024-02-10T11:13:51-05:00
; #@! TF.GenerationSoftware,Kicad,Pcbnew,7.0.10
; #@! TF.FileFunction,Plated,1,2,PTH
FMAT,2
INCH
; #@! TA.AperFunction,Plated,PTH,ComponentDrill
T1C0.0079
; #@! TA.AperFunction,Plated,PTH,ViaDrill
T2C0.0157
; #@! TA.AperFunction,Plated,PTH,ComponentDrill
T3C0.0768
%
G90
G05
T1
X5.7598Y-5.77
X5.7598Y-5.8251
X5.7873Y-5.7424
X5.7873Y-5.7976
X5.7873Y-5.8527
X5.8149Y-5.77
X5.8149Y-5.8251
X5.8424Y-5.7424
X5.8424Y-5.7976
X5.8424Y-5.8527
X5.87Y-5.77
X5.87Y-5.8251
T2
X5.11Y-3.0
X5.21Y-3.0
X5.31Y-2.92
X5.43Y-2.88
X5.54Y-2.84
X5.62Y-2.8
X5.69Y-2.76
X6.11Y-2.96
X6.21Y-3.0
X6.31Y-2.92
X6.43Y-2.88
X6.54Y-2.84
X6.63Y-2.8
X6.69Y-2.76
X7.31Y-2.96
X7.41Y-3.0
X7.51Y-2.92
X7.6308Y-2.8808
X7.7418Y-2.84
X7.84Y-2.8
X7.9Y-2.76
X8.31Y-2.96
X8.41Y-3.0
X8.51Y-2.92
X8.63Y-2.88
X8.74Y-2.84
X8.82Y-2.8
X8.89Y-2.76
T3
X5.2178Y-3.1829
X5.2178Y-3.4171
X5.31Y-3.103
X5.31Y-3.497
X5.4308Y-3.5143
X5.4308Y-3.0857
X5.5418Y-3.4636
X5.5418Y-3.1364
X5.6078Y-3.239
X5.6078Y-3.361
X6.2178Y-3.1829
X6.2178Y-3.4171
X6.31Y-3.103
X6.31Y-3.497
X6.4308Y-3.5143
X6.4308Y-3.0857
X6.5418Y-3.4636
X6.5418Y-3.1364
X6.6078Y-3.239
X6.6078Y-3.361
X7.4178Y-3.1829
X7.4178Y-3.4171
X7.51Y-3.103
X7.51Y-3.497
X7.6308Y-3.5143
X7.6308Y-3.0857
X7.7418Y-3.4636
X7.7418Y-3.1364
X7.8078Y-3.239
X7.8078Y-3.361
X8.4178Y-3.1829
X8.4178Y-3.4171
X8.51Y-3.103
X8.51Y-3.497
X8.6308Y-3.5143
X8.6308Y-3.0857
X8.7418Y-3.4636
X8.7418Y-3.1364
X8.8078Y-3.239
X8.8078Y-3.361
M30
