%TF.GenerationSoftware,KiCad,Pcbnew,7.0.10*%
%TF.CreationDate,2024-02-10T11:13:50-05:00*%
%TF.ProjectId,Nixie Clock,4e697869-6520-4436-9c6f-636b2e6b6963,rev?*%
%TF.SameCoordinates,Original*%
%TF.FileFunction,Legend,Top*%
%TF.FilePolarity,Positive*%
%FSLAX46Y46*%
G04 Gerber Fmt 4.6, Leading zero omitted, Abs format (unit mm)*
G04 Created by KiCad (PCBNEW 7.0.10) date 2024-02-10 11:13:50*
%MOMM*%
%LPD*%
G01*
G04 APERTURE LIST*
%ADD10C,0.150000*%
%ADD11C,0.100000*%
%ADD12C,0.120000*%
G04 APERTURE END LIST*
D10*
X189406905Y-129566819D02*
X189406905Y-128566819D01*
X189406905Y-128566819D02*
X189645000Y-128566819D01*
X189645000Y-128566819D02*
X189787857Y-128614438D01*
X189787857Y-128614438D02*
X189883095Y-128709676D01*
X189883095Y-128709676D02*
X189930714Y-128804914D01*
X189930714Y-128804914D02*
X189978333Y-128995390D01*
X189978333Y-128995390D02*
X189978333Y-129138247D01*
X189978333Y-129138247D02*
X189930714Y-129328723D01*
X189930714Y-129328723D02*
X189883095Y-129423961D01*
X189883095Y-129423961D02*
X189787857Y-129519200D01*
X189787857Y-129519200D02*
X189645000Y-129566819D01*
X189645000Y-129566819D02*
X189406905Y-129566819D01*
X190930714Y-129566819D02*
X190359286Y-129566819D01*
X190645000Y-129566819D02*
X190645000Y-128566819D01*
X190645000Y-128566819D02*
X190549762Y-128709676D01*
X190549762Y-128709676D02*
X190454524Y-128804914D01*
X190454524Y-128804914D02*
X190359286Y-128852533D01*
X189406905Y-136666819D02*
X189406905Y-135666819D01*
X189406905Y-135666819D02*
X189645000Y-135666819D01*
X189645000Y-135666819D02*
X189787857Y-135714438D01*
X189787857Y-135714438D02*
X189883095Y-135809676D01*
X189883095Y-135809676D02*
X189930714Y-135904914D01*
X189930714Y-135904914D02*
X189978333Y-136095390D01*
X189978333Y-136095390D02*
X189978333Y-136238247D01*
X189978333Y-136238247D02*
X189930714Y-136428723D01*
X189930714Y-136428723D02*
X189883095Y-136523961D01*
X189883095Y-136523961D02*
X189787857Y-136619200D01*
X189787857Y-136619200D02*
X189645000Y-136666819D01*
X189645000Y-136666819D02*
X189406905Y-136666819D01*
X190311667Y-135666819D02*
X190930714Y-135666819D01*
X190930714Y-135666819D02*
X190597381Y-136047771D01*
X190597381Y-136047771D02*
X190740238Y-136047771D01*
X190740238Y-136047771D02*
X190835476Y-136095390D01*
X190835476Y-136095390D02*
X190883095Y-136143009D01*
X190883095Y-136143009D02*
X190930714Y-136238247D01*
X190930714Y-136238247D02*
X190930714Y-136476342D01*
X190930714Y-136476342D02*
X190883095Y-136571580D01*
X190883095Y-136571580D02*
X190835476Y-136619200D01*
X190835476Y-136619200D02*
X190740238Y-136666819D01*
X190740238Y-136666819D02*
X190454524Y-136666819D01*
X190454524Y-136666819D02*
X190359286Y-136619200D01*
X190359286Y-136619200D02*
X190311667Y-136571580D01*
X189406905Y-140216819D02*
X189406905Y-139216819D01*
X189406905Y-139216819D02*
X189645000Y-139216819D01*
X189645000Y-139216819D02*
X189787857Y-139264438D01*
X189787857Y-139264438D02*
X189883095Y-139359676D01*
X189883095Y-139359676D02*
X189930714Y-139454914D01*
X189930714Y-139454914D02*
X189978333Y-139645390D01*
X189978333Y-139645390D02*
X189978333Y-139788247D01*
X189978333Y-139788247D02*
X189930714Y-139978723D01*
X189930714Y-139978723D02*
X189883095Y-140073961D01*
X189883095Y-140073961D02*
X189787857Y-140169200D01*
X189787857Y-140169200D02*
X189645000Y-140216819D01*
X189645000Y-140216819D02*
X189406905Y-140216819D01*
X190835476Y-139550152D02*
X190835476Y-140216819D01*
X190597381Y-139169200D02*
X190359286Y-139883485D01*
X190359286Y-139883485D02*
X190978333Y-139883485D01*
X189406905Y-143766819D02*
X189406905Y-142766819D01*
X189406905Y-142766819D02*
X189645000Y-142766819D01*
X189645000Y-142766819D02*
X189787857Y-142814438D01*
X189787857Y-142814438D02*
X189883095Y-142909676D01*
X189883095Y-142909676D02*
X189930714Y-143004914D01*
X189930714Y-143004914D02*
X189978333Y-143195390D01*
X189978333Y-143195390D02*
X189978333Y-143338247D01*
X189978333Y-143338247D02*
X189930714Y-143528723D01*
X189930714Y-143528723D02*
X189883095Y-143623961D01*
X189883095Y-143623961D02*
X189787857Y-143719200D01*
X189787857Y-143719200D02*
X189645000Y-143766819D01*
X189645000Y-143766819D02*
X189406905Y-143766819D01*
X190883095Y-142766819D02*
X190406905Y-142766819D01*
X190406905Y-142766819D02*
X190359286Y-143243009D01*
X190359286Y-143243009D02*
X190406905Y-143195390D01*
X190406905Y-143195390D02*
X190502143Y-143147771D01*
X190502143Y-143147771D02*
X190740238Y-143147771D01*
X190740238Y-143147771D02*
X190835476Y-143195390D01*
X190835476Y-143195390D02*
X190883095Y-143243009D01*
X190883095Y-143243009D02*
X190930714Y-143338247D01*
X190930714Y-143338247D02*
X190930714Y-143576342D01*
X190930714Y-143576342D02*
X190883095Y-143671580D01*
X190883095Y-143671580D02*
X190835476Y-143719200D01*
X190835476Y-143719200D02*
X190740238Y-143766819D01*
X190740238Y-143766819D02*
X190502143Y-143766819D01*
X190502143Y-143766819D02*
X190406905Y-143719200D01*
X190406905Y-143719200D02*
X190359286Y-143671580D01*
X193496905Y-129566819D02*
X193496905Y-128566819D01*
X193496905Y-128566819D02*
X193735000Y-128566819D01*
X193735000Y-128566819D02*
X193877857Y-128614438D01*
X193877857Y-128614438D02*
X193973095Y-128709676D01*
X193973095Y-128709676D02*
X194020714Y-128804914D01*
X194020714Y-128804914D02*
X194068333Y-128995390D01*
X194068333Y-128995390D02*
X194068333Y-129138247D01*
X194068333Y-129138247D02*
X194020714Y-129328723D01*
X194020714Y-129328723D02*
X193973095Y-129423961D01*
X193973095Y-129423961D02*
X193877857Y-129519200D01*
X193877857Y-129519200D02*
X193735000Y-129566819D01*
X193735000Y-129566819D02*
X193496905Y-129566819D01*
X194925476Y-128566819D02*
X194735000Y-128566819D01*
X194735000Y-128566819D02*
X194639762Y-128614438D01*
X194639762Y-128614438D02*
X194592143Y-128662057D01*
X194592143Y-128662057D02*
X194496905Y-128804914D01*
X194496905Y-128804914D02*
X194449286Y-128995390D01*
X194449286Y-128995390D02*
X194449286Y-129376342D01*
X194449286Y-129376342D02*
X194496905Y-129471580D01*
X194496905Y-129471580D02*
X194544524Y-129519200D01*
X194544524Y-129519200D02*
X194639762Y-129566819D01*
X194639762Y-129566819D02*
X194830238Y-129566819D01*
X194830238Y-129566819D02*
X194925476Y-129519200D01*
X194925476Y-129519200D02*
X194973095Y-129471580D01*
X194973095Y-129471580D02*
X195020714Y-129376342D01*
X195020714Y-129376342D02*
X195020714Y-129138247D01*
X195020714Y-129138247D02*
X194973095Y-129043009D01*
X194973095Y-129043009D02*
X194925476Y-128995390D01*
X194925476Y-128995390D02*
X194830238Y-128947771D01*
X194830238Y-128947771D02*
X194639762Y-128947771D01*
X194639762Y-128947771D02*
X194544524Y-128995390D01*
X194544524Y-128995390D02*
X194496905Y-129043009D01*
X194496905Y-129043009D02*
X194449286Y-129138247D01*
X193496905Y-133116819D02*
X193496905Y-132116819D01*
X193496905Y-132116819D02*
X193735000Y-132116819D01*
X193735000Y-132116819D02*
X193877857Y-132164438D01*
X193877857Y-132164438D02*
X193973095Y-132259676D01*
X193973095Y-132259676D02*
X194020714Y-132354914D01*
X194020714Y-132354914D02*
X194068333Y-132545390D01*
X194068333Y-132545390D02*
X194068333Y-132688247D01*
X194068333Y-132688247D02*
X194020714Y-132878723D01*
X194020714Y-132878723D02*
X193973095Y-132973961D01*
X193973095Y-132973961D02*
X193877857Y-133069200D01*
X193877857Y-133069200D02*
X193735000Y-133116819D01*
X193735000Y-133116819D02*
X193496905Y-133116819D01*
X194401667Y-132116819D02*
X195068333Y-132116819D01*
X195068333Y-132116819D02*
X194639762Y-133116819D01*
X193496905Y-136666819D02*
X193496905Y-135666819D01*
X193496905Y-135666819D02*
X193735000Y-135666819D01*
X193735000Y-135666819D02*
X193877857Y-135714438D01*
X193877857Y-135714438D02*
X193973095Y-135809676D01*
X193973095Y-135809676D02*
X194020714Y-135904914D01*
X194020714Y-135904914D02*
X194068333Y-136095390D01*
X194068333Y-136095390D02*
X194068333Y-136238247D01*
X194068333Y-136238247D02*
X194020714Y-136428723D01*
X194020714Y-136428723D02*
X193973095Y-136523961D01*
X193973095Y-136523961D02*
X193877857Y-136619200D01*
X193877857Y-136619200D02*
X193735000Y-136666819D01*
X193735000Y-136666819D02*
X193496905Y-136666819D01*
X194639762Y-136095390D02*
X194544524Y-136047771D01*
X194544524Y-136047771D02*
X194496905Y-136000152D01*
X194496905Y-136000152D02*
X194449286Y-135904914D01*
X194449286Y-135904914D02*
X194449286Y-135857295D01*
X194449286Y-135857295D02*
X194496905Y-135762057D01*
X194496905Y-135762057D02*
X194544524Y-135714438D01*
X194544524Y-135714438D02*
X194639762Y-135666819D01*
X194639762Y-135666819D02*
X194830238Y-135666819D01*
X194830238Y-135666819D02*
X194925476Y-135714438D01*
X194925476Y-135714438D02*
X194973095Y-135762057D01*
X194973095Y-135762057D02*
X195020714Y-135857295D01*
X195020714Y-135857295D02*
X195020714Y-135904914D01*
X195020714Y-135904914D02*
X194973095Y-136000152D01*
X194973095Y-136000152D02*
X194925476Y-136047771D01*
X194925476Y-136047771D02*
X194830238Y-136095390D01*
X194830238Y-136095390D02*
X194639762Y-136095390D01*
X194639762Y-136095390D02*
X194544524Y-136143009D01*
X194544524Y-136143009D02*
X194496905Y-136190628D01*
X194496905Y-136190628D02*
X194449286Y-136285866D01*
X194449286Y-136285866D02*
X194449286Y-136476342D01*
X194449286Y-136476342D02*
X194496905Y-136571580D01*
X194496905Y-136571580D02*
X194544524Y-136619200D01*
X194544524Y-136619200D02*
X194639762Y-136666819D01*
X194639762Y-136666819D02*
X194830238Y-136666819D01*
X194830238Y-136666819D02*
X194925476Y-136619200D01*
X194925476Y-136619200D02*
X194973095Y-136571580D01*
X194973095Y-136571580D02*
X195020714Y-136476342D01*
X195020714Y-136476342D02*
X195020714Y-136285866D01*
X195020714Y-136285866D02*
X194973095Y-136190628D01*
X194973095Y-136190628D02*
X194925476Y-136143009D01*
X194925476Y-136143009D02*
X194830238Y-136095390D01*
X189406905Y-133116819D02*
X189406905Y-132116819D01*
X189406905Y-132116819D02*
X189645000Y-132116819D01*
X189645000Y-132116819D02*
X189787857Y-132164438D01*
X189787857Y-132164438D02*
X189883095Y-132259676D01*
X189883095Y-132259676D02*
X189930714Y-132354914D01*
X189930714Y-132354914D02*
X189978333Y-132545390D01*
X189978333Y-132545390D02*
X189978333Y-132688247D01*
X189978333Y-132688247D02*
X189930714Y-132878723D01*
X189930714Y-132878723D02*
X189883095Y-132973961D01*
X189883095Y-132973961D02*
X189787857Y-133069200D01*
X189787857Y-133069200D02*
X189645000Y-133116819D01*
X189645000Y-133116819D02*
X189406905Y-133116819D01*
X190359286Y-132212057D02*
X190406905Y-132164438D01*
X190406905Y-132164438D02*
X190502143Y-132116819D01*
X190502143Y-132116819D02*
X190740238Y-132116819D01*
X190740238Y-132116819D02*
X190835476Y-132164438D01*
X190835476Y-132164438D02*
X190883095Y-132212057D01*
X190883095Y-132212057D02*
X190930714Y-132307295D01*
X190930714Y-132307295D02*
X190930714Y-132402533D01*
X190930714Y-132402533D02*
X190883095Y-132545390D01*
X190883095Y-132545390D02*
X190311667Y-133116819D01*
X190311667Y-133116819D02*
X190930714Y-133116819D01*
X138152819Y-156959904D02*
X138962342Y-156959904D01*
X138962342Y-156959904D02*
X139057580Y-156912285D01*
X139057580Y-156912285D02*
X139105200Y-156864666D01*
X139105200Y-156864666D02*
X139152819Y-156769428D01*
X139152819Y-156769428D02*
X139152819Y-156578952D01*
X139152819Y-156578952D02*
X139105200Y-156483714D01*
X139105200Y-156483714D02*
X139057580Y-156436095D01*
X139057580Y-156436095D02*
X138962342Y-156388476D01*
X138962342Y-156388476D02*
X138152819Y-156388476D01*
X138152819Y-155483714D02*
X138152819Y-155674190D01*
X138152819Y-155674190D02*
X138200438Y-155769428D01*
X138200438Y-155769428D02*
X138248057Y-155817047D01*
X138248057Y-155817047D02*
X138390914Y-155912285D01*
X138390914Y-155912285D02*
X138581390Y-155959904D01*
X138581390Y-155959904D02*
X138962342Y-155959904D01*
X138962342Y-155959904D02*
X139057580Y-155912285D01*
X139057580Y-155912285D02*
X139105200Y-155864666D01*
X139105200Y-155864666D02*
X139152819Y-155769428D01*
X139152819Y-155769428D02*
X139152819Y-155578952D01*
X139152819Y-155578952D02*
X139105200Y-155483714D01*
X139105200Y-155483714D02*
X139057580Y-155436095D01*
X139057580Y-155436095D02*
X138962342Y-155388476D01*
X138962342Y-155388476D02*
X138724247Y-155388476D01*
X138724247Y-155388476D02*
X138629009Y-155436095D01*
X138629009Y-155436095D02*
X138581390Y-155483714D01*
X138581390Y-155483714D02*
X138533771Y-155578952D01*
X138533771Y-155578952D02*
X138533771Y-155769428D01*
X138533771Y-155769428D02*
X138581390Y-155864666D01*
X138581390Y-155864666D02*
X138629009Y-155912285D01*
X138629009Y-155912285D02*
X138724247Y-155959904D01*
X213479666Y-113456819D02*
X213479666Y-114171104D01*
X213479666Y-114171104D02*
X213432047Y-114313961D01*
X213432047Y-114313961D02*
X213336809Y-114409200D01*
X213336809Y-114409200D02*
X213193952Y-114456819D01*
X213193952Y-114456819D02*
X213098714Y-114456819D01*
X213860619Y-113456819D02*
X214479666Y-113456819D01*
X214479666Y-113456819D02*
X214146333Y-113837771D01*
X214146333Y-113837771D02*
X214289190Y-113837771D01*
X214289190Y-113837771D02*
X214384428Y-113885390D01*
X214384428Y-113885390D02*
X214432047Y-113933009D01*
X214432047Y-113933009D02*
X214479666Y-114028247D01*
X214479666Y-114028247D02*
X214479666Y-114266342D01*
X214479666Y-114266342D02*
X214432047Y-114361580D01*
X214432047Y-114361580D02*
X214384428Y-114409200D01*
X214384428Y-114409200D02*
X214289190Y-114456819D01*
X214289190Y-114456819D02*
X214003476Y-114456819D01*
X214003476Y-114456819D02*
X213908238Y-114409200D01*
X213908238Y-114409200D02*
X213860619Y-114361580D01*
X205529666Y-113456819D02*
X205529666Y-114171104D01*
X205529666Y-114171104D02*
X205482047Y-114313961D01*
X205482047Y-114313961D02*
X205386809Y-114409200D01*
X205386809Y-114409200D02*
X205243952Y-114456819D01*
X205243952Y-114456819D02*
X205148714Y-114456819D01*
X206529666Y-114456819D02*
X205958238Y-114456819D01*
X206243952Y-114456819D02*
X206243952Y-113456819D01*
X206243952Y-113456819D02*
X206148714Y-113599676D01*
X206148714Y-113599676D02*
X206053476Y-113694914D01*
X206053476Y-113694914D02*
X205958238Y-113742533D01*
D11*
%TO.C,mouse-bite-2.54mm-slot*%
X200870000Y-111760000D02*
G75*
G03*
X200870000Y-109220000I0J1270000D01*
G01*
X205530000Y-109220000D02*
G75*
G03*
X205530000Y-111760000I0J-1270000D01*
G01*
X175470000Y-111760000D02*
G75*
G03*
X175470000Y-109220000I0J1270000D01*
G01*
X180130000Y-109220000D02*
G75*
G03*
X180130000Y-111760000I0J-1270000D01*
G01*
X154730000Y-109220000D02*
G75*
G03*
X154730000Y-111760000I0J-1270000D01*
G01*
X150070000Y-111760000D02*
G75*
G03*
X150070000Y-109220000I0J1270000D01*
G01*
D12*
%TO.C,D1*%
X188725000Y-129962000D02*
X188725000Y-130612000D01*
X188725000Y-129962000D02*
X191565000Y-129962000D01*
X188725000Y-132262000D02*
X191565000Y-132262000D01*
%TO.C,D3*%
X188725000Y-137062000D02*
X188725000Y-137712000D01*
X188725000Y-137062000D02*
X191565000Y-137062000D01*
X188725000Y-139362000D02*
X191565000Y-139362000D01*
%TO.C,D4*%
X188725000Y-140612000D02*
X188725000Y-141262000D01*
X188725000Y-140612000D02*
X191565000Y-140612000D01*
X188725000Y-142912000D02*
X191565000Y-142912000D01*
%TO.C,D5*%
X188725000Y-144162000D02*
X188725000Y-144812000D01*
X188725000Y-144162000D02*
X191565000Y-144162000D01*
X188725000Y-146462000D02*
X191565000Y-146462000D01*
%TO.C,D6*%
X192815000Y-129962000D02*
X192815000Y-130612000D01*
X192815000Y-129962000D02*
X195655000Y-129962000D01*
X192815000Y-132262000D02*
X195655000Y-132262000D01*
%TO.C,D7*%
X192815000Y-133512000D02*
X192815000Y-134162000D01*
X192815000Y-133512000D02*
X195655000Y-133512000D01*
X192815000Y-135812000D02*
X195655000Y-135812000D01*
%TO.C,D8*%
X192815000Y-137062000D02*
X192815000Y-137712000D01*
X192815000Y-137062000D02*
X195655000Y-137062000D01*
X192815000Y-139362000D02*
X195655000Y-139362000D01*
%TO.C,D2*%
X188725000Y-133512000D02*
X188725000Y-134162000D01*
X188725000Y-133512000D02*
X191565000Y-133512000D01*
X188725000Y-135812000D02*
X191565000Y-135812000D01*
%TO.C,U6*%
X158398000Y-157748000D02*
X158398000Y-156748000D01*
X158398000Y-157748000D02*
X156898000Y-157748000D01*
X139998000Y-138698000D02*
X139998000Y-131898000D01*
X139998000Y-156748000D02*
X139998000Y-157748000D01*
X139998000Y-138698000D02*
X139598000Y-138698000D01*
X158398000Y-131898000D02*
X158398000Y-138098000D01*
X139998000Y-157748000D02*
X141498000Y-157748000D01*
X139998000Y-131898000D02*
X158398000Y-131898000D01*
D11*
%TO.C,PD1*%
X169418000Y-148717000D02*
X172974000Y-148717000D01*
X169418000Y-149352000D02*
X169418000Y-148717000D01*
D10*
%TO.C,U3*%
X186790000Y-87820000D02*
G75*
G03*
X186290000Y-87820000I-250000J0D01*
G01*
X186290000Y-87820000D02*
G75*
G03*
X186790000Y-87820000I250000J0D01*
G01*
D12*
%TO.C,J3*%
X212483000Y-115002000D02*
X212483000Y-115572000D01*
X212483000Y-115002000D02*
X215143000Y-115002000D01*
X212483000Y-115572000D02*
X210963000Y-115572000D01*
X212483000Y-117092000D02*
X212483000Y-120652000D01*
X212483000Y-122172000D02*
X212483000Y-125732000D01*
X212483000Y-127252000D02*
X212483000Y-130812000D01*
X212483000Y-132332000D02*
X212483000Y-135892000D01*
X212483000Y-137412000D02*
X212483000Y-140972000D01*
X212483000Y-142492000D02*
X212483000Y-146052000D01*
X212483000Y-147572000D02*
X212483000Y-151132000D01*
X212483000Y-152652000D02*
X212483000Y-156212000D01*
X212483000Y-157732000D02*
X212483000Y-160842000D01*
X212483000Y-160842000D02*
X215143000Y-160842000D01*
X215143000Y-115002000D02*
X215143000Y-118112000D01*
X215143000Y-119632000D02*
X215143000Y-123192000D01*
X215143000Y-124712000D02*
X215143000Y-128272000D01*
X215143000Y-129792000D02*
X215143000Y-133352000D01*
X215143000Y-134872000D02*
X215143000Y-138432000D01*
X215143000Y-139952000D02*
X215143000Y-143512000D01*
X215143000Y-145032000D02*
X215143000Y-148592000D01*
X215143000Y-150112000D02*
X215143000Y-153672000D01*
X215143000Y-155192000D02*
X215143000Y-158752000D01*
X215143000Y-160272000D02*
X215143000Y-160842000D01*
D11*
%TO.C,REF\u002A\u002A*%
X176022000Y-62865000D02*
X179578000Y-62865000D01*
X176022000Y-63500000D02*
X176022000Y-62865000D01*
D10*
%TO.C,U1*%
X130910000Y-87820000D02*
G75*
G03*
X130410000Y-87820000I-250000J0D01*
G01*
X130410000Y-87820000D02*
G75*
G03*
X130910000Y-87820000I250000J0D01*
G01*
D12*
%TO.C,J1*%
X204533000Y-115002000D02*
X204533000Y-115572000D01*
X204533000Y-115002000D02*
X207193000Y-115002000D01*
X204533000Y-115572000D02*
X203013000Y-115572000D01*
X204533000Y-117092000D02*
X204533000Y-120652000D01*
X204533000Y-122172000D02*
X204533000Y-125732000D01*
X204533000Y-127252000D02*
X204533000Y-130812000D01*
X204533000Y-132332000D02*
X204533000Y-135892000D01*
X204533000Y-137412000D02*
X204533000Y-140972000D01*
X204533000Y-142492000D02*
X204533000Y-146052000D01*
X204533000Y-147572000D02*
X204533000Y-151132000D01*
X204533000Y-152652000D02*
X204533000Y-156212000D01*
X204533000Y-157732000D02*
X204533000Y-160842000D01*
X204533000Y-160842000D02*
X207193000Y-160842000D01*
X207193000Y-115002000D02*
X207193000Y-118112000D01*
X207193000Y-119632000D02*
X207193000Y-123192000D01*
X207193000Y-124712000D02*
X207193000Y-128272000D01*
X207193000Y-129792000D02*
X207193000Y-133352000D01*
X207193000Y-134872000D02*
X207193000Y-138432000D01*
X207193000Y-139952000D02*
X207193000Y-143512000D01*
X207193000Y-145032000D02*
X207193000Y-148592000D01*
X207193000Y-150112000D02*
X207193000Y-153672000D01*
X207193000Y-155192000D02*
X207193000Y-158752000D01*
X207193000Y-160272000D02*
X207193000Y-160842000D01*
D10*
%TO.C,U2*%
X156310000Y-87820000D02*
G75*
G03*
X155810000Y-87820000I-250000J0D01*
G01*
X155810000Y-87820000D02*
G75*
G03*
X156310000Y-87820000I250000J0D01*
G01*
%TO.C,U4*%
X212190000Y-87820000D02*
G75*
G03*
X211690000Y-87820000I-250000J0D01*
G01*
X211690000Y-87820000D02*
G75*
G03*
X212190000Y-87820000I250000J0D01*
G01*
%TD*%
M02*
