%TF.GenerationSoftware,KiCad,Pcbnew,7.0.10*%
%TF.CreationDate,2024-02-10T11:13:50-05:00*%
%TF.ProjectId,Nixie Clock,4e697869-6520-4436-9c6f-636b2e6b6963,rev?*%
%TF.SameCoordinates,Original*%
%TF.FileFunction,Soldermask,Top*%
%TF.FilePolarity,Negative*%
%FSLAX46Y46*%
G04 Gerber Fmt 4.6, Leading zero omitted, Abs format (unit mm)*
G04 Created by KiCad (PCBNEW 7.0.10) date 2024-02-10 11:13:50*
%MOMM*%
%LPD*%
G01*
G04 APERTURE LIST*
G04 Aperture macros list*
%AMRoundRect*
0 Rectangle with rounded corners*
0 $1 Rounding radius*
0 $2 $3 $4 $5 $6 $7 $8 $9 X,Y pos of 4 corners*
0 Add a 4 corners polygon primitive as box body*
4,1,4,$2,$3,$4,$5,$6,$7,$8,$9,$2,$3,0*
0 Add four circle primitives for the rounded corners*
1,1,$1+$1,$2,$3*
1,1,$1+$1,$4,$5*
1,1,$1+$1,$6,$7*
1,1,$1+$1,$8,$9*
0 Add four rect primitives between the rounded corners*
20,1,$1+$1,$2,$3,$4,$5,0*
20,1,$1+$1,$4,$5,$6,$7,0*
20,1,$1+$1,$6,$7,$8,$9,0*
20,1,$1+$1,$8,$9,$2,$3,0*%
G04 Aperture macros list end*
%ADD10C,0.500000*%
%ADD11R,0.700000X0.700000*%
%ADD12R,1.500000X0.900000*%
%ADD13R,0.900000X1.500000*%
%ADD14C,0.600000*%
%ADD15R,3.900000X3.900000*%
%ADD16RoundRect,0.300000X0.450000X-0.300000X0.450000X0.300000X-0.450000X0.300000X-0.450000X-0.300000X0*%
%ADD17RoundRect,0.055000X0.195000X-0.055000X0.195000X0.055000X-0.195000X0.055000X-0.195000X-0.055000X0*%
%ADD18C,2.800000*%
%ADD19R,2.510000X1.000000*%
G04 APERTURE END LIST*
D10*
%TO.C,mouse-bite-2.54mm-slot*%
X202400000Y-109390000D03*
X202400000Y-111590000D03*
X203200000Y-109390000D03*
X203200000Y-111590000D03*
X204000000Y-109390000D03*
X204000000Y-111590000D03*
%TD*%
%TO.C,mouse-bite-2.54mm-slot*%
X177000000Y-109390000D03*
X177000000Y-111590000D03*
X177800000Y-109390000D03*
X177800000Y-111590000D03*
X178600000Y-109390000D03*
X178600000Y-111590000D03*
%TD*%
%TO.C,mouse-bite-2.54mm-slot*%
X152400000Y-109390000D03*
X152400000Y-111590000D03*
X153200000Y-109390000D03*
X151600000Y-109390000D03*
X151600000Y-111590000D03*
X153200000Y-111590000D03*
%TD*%
D11*
%TO.C,D1*%
X189230000Y-130562000D03*
X189230000Y-131662000D03*
X191060000Y-131662000D03*
X191060000Y-130562000D03*
%TD*%
%TO.C,D3*%
X189230000Y-137662000D03*
X189230000Y-138762000D03*
X191060000Y-138762000D03*
X191060000Y-137662000D03*
%TD*%
%TO.C,D4*%
X189230000Y-141212000D03*
X189230000Y-142312000D03*
X191060000Y-142312000D03*
X191060000Y-141212000D03*
%TD*%
%TO.C,D5*%
X189230000Y-144762000D03*
X189230000Y-145862000D03*
X191060000Y-145862000D03*
X191060000Y-144762000D03*
%TD*%
%TO.C,D6*%
X193320000Y-130562000D03*
X193320000Y-131662000D03*
X195150000Y-131662000D03*
X195150000Y-130562000D03*
%TD*%
%TO.C,D7*%
X193320000Y-134112000D03*
X193320000Y-135212000D03*
X195150000Y-135212000D03*
X195150000Y-134112000D03*
%TD*%
%TO.C,D8*%
X193320000Y-137662000D03*
X193320000Y-138762000D03*
X195150000Y-138762000D03*
X195150000Y-137662000D03*
%TD*%
%TO.C,D2*%
X189230000Y-134112000D03*
X189230000Y-135212000D03*
X191060000Y-135212000D03*
X191060000Y-134112000D03*
%TD*%
D12*
%TO.C,U6*%
X140448000Y-139538000D03*
X140448000Y-140808000D03*
X140448000Y-142078000D03*
X140448000Y-143348000D03*
X140448000Y-144618000D03*
X140448000Y-145888000D03*
X140448000Y-147158000D03*
X140448000Y-148428000D03*
X140448000Y-149698000D03*
X140448000Y-150968000D03*
X140448000Y-152238000D03*
X140448000Y-153508000D03*
X140448000Y-154778000D03*
X140448000Y-156048000D03*
D13*
X142213000Y-157298000D03*
X143483000Y-157298000D03*
X144753000Y-157298000D03*
X146023000Y-157298000D03*
X147293000Y-157298000D03*
X148563000Y-157298000D03*
X149833000Y-157298000D03*
X151103000Y-157298000D03*
X152373000Y-157298000D03*
X153643000Y-157298000D03*
X154913000Y-157298000D03*
X156183000Y-157298000D03*
D12*
X157948000Y-156048000D03*
X157948000Y-154778000D03*
X157948000Y-153508000D03*
X157948000Y-152238000D03*
X157948000Y-150968000D03*
X157948000Y-149698000D03*
X157948000Y-148428000D03*
X157948000Y-147158000D03*
X157948000Y-145888000D03*
X157948000Y-144618000D03*
X157948000Y-143348000D03*
X157948000Y-142078000D03*
X157948000Y-140808000D03*
X157948000Y-139538000D03*
D14*
X148398000Y-147258000D03*
X146998000Y-145858000D03*
X147698000Y-147958000D03*
X149098000Y-146558000D03*
X147698000Y-146558000D03*
X149098000Y-147958000D03*
X146298000Y-147958000D03*
X146998000Y-147258000D03*
D15*
X147698000Y-147258000D03*
D14*
X148398000Y-145858000D03*
X148398000Y-148658000D03*
X146998000Y-148658000D03*
X146298000Y-146558000D03*
%TD*%
D16*
%TO.C,PD1*%
X171196000Y-149606000D03*
D17*
X169926000Y-149098000D03*
X169926000Y-149606000D03*
X169926000Y-150114000D03*
X172466000Y-150114000D03*
X172466000Y-149606000D03*
X172466000Y-149098000D03*
%TD*%
D18*
%TO.C,U3*%
X188413106Y-86793524D03*
X190755218Y-88822975D03*
X193822731Y-89264017D03*
X196641733Y-87976622D03*
X198317211Y-85369529D03*
X198317211Y-82270471D03*
X196641734Y-79663378D03*
X193822732Y-78375983D03*
X190755218Y-78817025D03*
X188413106Y-80846476D03*
%TD*%
D19*
%TO.C,J3*%
X212158000Y-116332000D03*
X215468000Y-118872000D03*
X212158000Y-121412000D03*
X215468000Y-123952000D03*
X212158000Y-126492000D03*
X215468000Y-129032000D03*
X212158000Y-131572000D03*
X215468000Y-134112000D03*
X212158000Y-136652000D03*
X215468000Y-139192000D03*
X212158000Y-141732000D03*
X215468000Y-144272000D03*
X212158000Y-146812000D03*
X215468000Y-149352000D03*
X212158000Y-151892000D03*
X215468000Y-154432000D03*
X212158000Y-156972000D03*
X215468000Y-159512000D03*
%TD*%
D16*
%TO.C,REF\u002A\u002A*%
X177800000Y-63754000D03*
D17*
X176530000Y-63246000D03*
X176530000Y-63754000D03*
X176530000Y-64262000D03*
X179070000Y-64262000D03*
X179070000Y-63754000D03*
X179070000Y-63246000D03*
%TD*%
D18*
%TO.C,U1*%
X132533106Y-86793524D03*
X134875218Y-88822975D03*
X137942731Y-89264017D03*
X140761733Y-87976622D03*
X142437211Y-85369529D03*
X142437211Y-82270471D03*
X140761734Y-79663378D03*
X137942732Y-78375983D03*
X134875218Y-78817025D03*
X132533106Y-80846476D03*
%TD*%
D19*
%TO.C,J1*%
X204208000Y-116332000D03*
X207518000Y-118872000D03*
X204208000Y-121412000D03*
X207518000Y-123952000D03*
X204208000Y-126492000D03*
X207518000Y-129032000D03*
X204208000Y-131572000D03*
X207518000Y-134112000D03*
X204208000Y-136652000D03*
X207518000Y-139192000D03*
X204208000Y-141732000D03*
X207518000Y-144272000D03*
X204208000Y-146812000D03*
X207518000Y-149352000D03*
X204208000Y-151892000D03*
X207518000Y-154432000D03*
X204208000Y-156972000D03*
X207518000Y-159512000D03*
%TD*%
D18*
%TO.C,U2*%
X157933106Y-86793524D03*
X160275218Y-88822975D03*
X163342731Y-89264017D03*
X166161733Y-87976622D03*
X167837211Y-85369529D03*
X167837211Y-82270471D03*
X166161734Y-79663378D03*
X163342732Y-78375983D03*
X160275218Y-78817025D03*
X157933106Y-80846476D03*
%TD*%
%TO.C,U4*%
X213813106Y-86793524D03*
X216155218Y-88822975D03*
X219222731Y-89264017D03*
X222041733Y-87976622D03*
X223717211Y-85369529D03*
X223717211Y-82270471D03*
X222041734Y-79663378D03*
X219222732Y-78375983D03*
X216155218Y-78817025D03*
X213813106Y-80846476D03*
%TD*%
M02*
