%TF.GenerationSoftware,KiCad,Pcbnew,(6.0.9)*%
%TF.CreationDate,2022-11-29T20:57:58-05:00*%
%TF.ProjectId,Digital Clock PCB,44696769-7461-46c2-9043-6c6f636b2050,rev?*%
%TF.SameCoordinates,Original*%
%TF.FileFunction,Soldermask,Bot*%
%TF.FilePolarity,Negative*%
%FSLAX46Y46*%
G04 Gerber Fmt 4.6, Leading zero omitted, Abs format (unit mm)*
G04 Created by KiCad (PCBNEW (6.0.9)) date 2022-11-29 20:57:58*
%MOMM*%
%LPD*%
G01*
G04 APERTURE LIST*
%ADD10R,0.500000X0.900000*%
%ADD11C,0.650000*%
%ADD12O,2.100000X1.000000*%
%ADD13O,1.600000X1.000000*%
%ADD14C,1.500000*%
G04 APERTURE END LIST*
D10*
%TO.C,AE1*%
X140563600Y-43375000D03*
%TD*%
D11*
%TO.C,J1*%
X26704600Y-23500600D03*
X26704600Y-29280600D03*
D12*
X27234600Y-22070600D03*
X27234600Y-30710600D03*
D13*
X23054600Y-22070600D03*
X23054600Y-30710600D03*
%TD*%
D14*
%TO.C,U4*%
X73780000Y-58100000D03*
X71240000Y-58100000D03*
X68700000Y-58100000D03*
X66160000Y-58100000D03*
X63620000Y-58100000D03*
X63620000Y-18100000D03*
X66160000Y-18100000D03*
X68700000Y-18100000D03*
X71240000Y-18100000D03*
X73780000Y-18100000D03*
%TD*%
%TO.C,U9*%
X134980000Y-58100000D03*
X132440000Y-58100000D03*
X129900000Y-58100000D03*
X127360000Y-58100000D03*
X124820000Y-58100000D03*
X124820000Y-18100000D03*
X127360000Y-18100000D03*
X129900000Y-18100000D03*
X132440000Y-18100000D03*
X134980000Y-18100000D03*
%TD*%
%TO.C,U8*%
X104380000Y-58100000D03*
X101840000Y-58100000D03*
X99300000Y-58100000D03*
X96760000Y-58100000D03*
X94220000Y-58100000D03*
X94220000Y-18100000D03*
X96760000Y-18100000D03*
X99300000Y-18100000D03*
X101840000Y-18100000D03*
X104380000Y-18100000D03*
%TD*%
%TO.C,U3*%
X43180000Y-58100000D03*
X40640000Y-58100000D03*
X38100000Y-58100000D03*
X35560000Y-58100000D03*
X33020000Y-58100000D03*
X33020000Y-18100000D03*
X35560000Y-18100000D03*
X38100000Y-18100000D03*
X40640000Y-18100000D03*
X43180000Y-18100000D03*
%TD*%
M02*
