M48
; DRILL file {KiCad (6.0.9)} date Mon Dec 19 16:18:23 2022
; FORMAT={-:-/ absolute / inch / decimal}
; #@! TF.CreationDate,2022-12-19T16:18:23-05:00
; #@! TF.GenerationSoftware,Kicad,Pcbnew,(6.0.9)
; #@! TF.FileFunction,Plated,1,4,PTH
FMAT,2
INCH
; #@! TA.AperFunction,Plated,PTH,ViaDrill
T1C0.0079
; #@! TA.AperFunction,Plated,PTH,ComponentDrill
T2C0.0079
; #@! TA.AperFunction,Plated,PTH,ComponentDrill
T3C0.0118
; #@! TA.AperFunction,Plated,PTH,ViaDrill
T4C0.0157
; #@! TA.AperFunction,Plated,PTH,ComponentDrill
T5C0.0236
; #@! TA.AperFunction,Plated,PTH,ComponentDrill
T6C0.0315
%
G90
G05
T1
X0.935Y-1.312
X0.936Y-1.136
X0.979Y-1.053
X1.012Y-0.949
X1.025Y-0.999
X1.025Y-1.015
X1.025Y-1.031
X1.025Y-1.047
X1.025Y-1.063
X1.025Y-1.079
X1.026Y-1.263
X1.032Y-1.381
X1.183Y-1.027
X1.252Y-1.0449
X1.252Y-1.0725
X1.278Y-1.091
X1.284Y-1.021
X1.339Y-1.126
X1.35Y-2.028
X1.36Y-1.043
X1.397Y-1.044
X1.427Y-1.067
X1.45Y-1.56
X1.451Y-2.028
X1.468Y-1.129
X1.5Y-0.954
X1.501Y-0.876
X1.552Y-2.027
X1.567Y-1.393
X1.626Y-1.128
X1.633Y-1.269
X1.642Y-2.027
X1.648Y-0.965
X1.667Y-1.295
X1.704Y-1.446
X1.718Y-1.587
X1.739Y-1.138
X1.751Y-1.302
X1.78Y-1.032
X1.802Y-1.208
X1.809Y-0.988
X1.832Y-0.924
X1.833Y-1.497
X1.856Y-1.628
X1.872Y-1.349
X1.903Y-1.089
X1.977Y-1.308
X2.017Y-0.964
X2.026Y-1.801
X2.146Y-1.093
X2.154Y-1.24
X2.34Y-0.957
X2.353Y-1.306
X2.49Y-1.083
X2.49Y-1.315
X2.524Y-1.623
X2.534Y-1.24
X2.562Y-1.105
X2.598Y-1.123
X2.629Y-1.156
X2.639Y-1.393
X2.663Y-1.185
X2.692Y-1.301
X2.735Y-0.908
X2.828Y-1.206
X2.846Y-1.751
X2.849Y-1.897
X2.853Y-0.946
X2.878Y-1.348
X2.88Y-1.301
X2.912Y-1.427
X2.912Y-1.61
X2.922Y-1.933
X2.925Y-1.761
X2.938Y-0.94
X2.94Y-1.346
X3.059Y-1.173
X3.061Y-1.31
X3.237Y-0.953
X3.25Y-2.12
X3.265Y-2.135
X3.27Y-2.25
X3.28Y-2.15
X3.346Y-1.178
X3.35Y-2.13
X3.357Y-1.85
X3.359Y-1.771
X3.361Y-1.688
X3.38Y-2.25
X3.49Y-2.13
X3.52Y-2.25
X3.541Y-0.95
X3.546Y-2.164
X3.556Y-1.304
X3.64Y-1.315
X3.654Y-1.625
X3.655Y-1.185
X3.678Y-1.229
X3.678Y-1.307
X3.724Y-1.233
X3.785Y-1.201
X3.842Y-1.246
X3.91Y-0.871
X4.086Y-1.769
X4.086Y-1.83
X4.086Y-1.923
X4.0874Y-1.3256
X4.096Y-1.675
X4.099Y-1.438
X4.152Y-0.953
X4.155Y-1.586
X4.162Y-1.769
X4.162Y-1.828
X4.165Y-1.905
X4.193Y-1.31
X4.231Y-1.5
X4.38Y-2.096
X4.402Y-1.697
X4.492Y-1.346
X4.532Y-0.931
X4.532Y-1.306
X4.532Y-1.711
X4.561Y-1.349
X4.59Y-2.072
X4.59Y-2.148
X4.654Y-1.38
X4.679Y-1.604
X4.706Y-1.86
X4.717Y-1.684
X4.734Y-1.495
X4.734Y-2.04
X4.738Y-1.432
X4.748Y-1.801
X4.757Y-1.594
X4.778Y-1.511
X4.782Y-2.088
X4.804Y-1.596
X4.816Y-1.644
X4.828Y-1.914
X4.864Y-1.71
X4.877Y-1.87
X4.883Y-1.299
X4.914Y-1.453
X4.916Y-1.503
X4.944Y-1.805
X4.948Y-1.538
X4.962Y-1.669
X4.99Y-1.3934
X5.002Y-2.13
X5.0183Y-1.3257
X5.0236Y-1.4518
X5.0377Y-1.3063
X5.058Y-1.804
X5.058Y-1.848
X5.058Y-1.894
X5.07Y-0.914
X5.088Y-2.132
X5.099Y-1.894
X5.105Y-1.751
X5.1218Y-1.4346
X5.13Y-1.36
X5.1512Y-1.4366
X5.1533Y-1.6444
X5.179Y-1.363
X5.185Y-1.438
X5.186Y-2.13
X5.192Y-1.246
X5.195Y-1.893
X5.201Y-1.121
X5.205Y-1.076
X5.209Y-1.223
X5.211Y-1.169
X5.226Y-1.2
X5.229Y-1.099
X5.2339Y-1.7191
X5.234Y-1.452
X5.234Y-1.53
X5.235Y-1.756
X5.237Y-1.862
X5.237Y-1.893
X5.264Y-1.667
X5.303Y-1.652
X5.326Y-1.04
X5.328Y-1.012
X5.331Y-1.652
X5.345Y-0.988
X5.359Y-1.597
X5.359Y-1.652
X5.3831Y-1.5349
X5.386Y-1.593
X5.4Y-1.69
X5.409Y-1.464
X5.414Y-1.593
X5.427Y-1.445
X5.429Y-1.5349
X5.436Y-1.658
X5.442Y-1.593
X5.446Y-1.425
X5.465Y-1.658
X5.468Y-1.404
X5.4681Y-1.5349
X5.47Y-1.593
X5.475Y-1.375
X5.498Y-1.593
X5.5Y-1.69
X5.534Y-0.662
X5.534Y-0.72
X5.534Y-0.778
X5.534Y-0.836
X5.534Y-0.894
X5.534Y-0.952
X5.534Y-1.01
X5.534Y-1.068
X5.534Y-1.126
X5.534Y-1.164
X5.534Y-1.202
X5.534Y-1.24
X5.534Y-1.278
X5.534Y-1.316
X5.534Y-1.354
X5.534Y-1.392
X5.534Y-1.43
X5.534Y-1.468
X5.534Y-1.506
X5.534Y-1.544
X5.534Y-1.582
X5.534Y-1.663
X5.534Y-1.77
X5.534Y-1.828
X5.534Y-1.886
X5.534Y-1.944
X5.534Y-2.002
X5.534Y-2.06
X5.534Y-2.118
X5.534Y-2.176
X5.534Y-2.234
X5.534Y-2.292
X5.534Y-2.35
T2
X5.0795Y-1.4882
X5.0795Y-1.5384
X5.0795Y-1.5886
X5.1297Y-1.4882
X5.1297Y-1.5384
X5.1297Y-1.5886
X5.1799Y-1.4882
X5.1799Y-1.5384
X5.1799Y-1.5886
T3
X5.534Y-1.7077
T4
X1.985Y-2.085
X2.0104Y-2.0846
X2.0354Y-2.0846
X2.06Y-2.085
X2.229Y-1.994
X2.254Y-1.994
X2.279Y-1.994
X2.304Y-1.994
X5.019Y-1.777
X5.346Y-1.79
T6
X1.3Y-0.7126
X1.3Y-2.2874
X1.4Y-0.7126
X1.4Y-2.2874
X1.5Y-0.7126
X1.5Y-2.2874
X1.6Y-0.7126
X1.6Y-2.2874
X1.7Y-0.7126
X1.7Y-2.2874
X2.5047Y-0.7126
X2.5047Y-2.2874
X2.6047Y-0.7126
X2.6047Y-2.2874
X2.7047Y-0.7126
X2.7047Y-2.2874
X2.8047Y-0.7126
X2.8047Y-2.2874
X2.9047Y-0.7126
X2.9047Y-2.2874
X3.7094Y-0.7126
X3.7094Y-2.2874
X3.8094Y-0.7126
X3.8094Y-2.2874
X3.9094Y-0.7126
X3.9094Y-2.2874
X4.0094Y-0.7126
X4.0094Y-2.2874
X4.1094Y-0.7126
X4.1094Y-2.2874
X4.9142Y-0.7126
X4.9142Y-2.2874
X5.0142Y-0.7126
X5.0142Y-2.2874
X5.1142Y-0.7126
X5.1142Y-2.2874
X5.2142Y-0.7126
X5.2142Y-2.2874
X5.3142Y-0.7126
X5.3142Y-2.2874
T5
G00X0.9195Y-0.8689
M15
G01X0.8959Y-0.8689
M16
G05
G00X0.9195Y-1.2091
M15
G01X0.8959Y-1.2091
M16
G05
G00X1.0939Y-0.8689
M15
G01X1.0506Y-0.8689
M16
G05
G00X1.0939Y-1.2091
M15
G01X1.0506Y-1.2091
M16
G05
T0
M30
