%TF.GenerationSoftware,KiCad,Pcbnew,(6.0.9)*%
%TF.CreationDate,2022-12-22T16:46:14-05:00*%
%TF.ProjectId,Digital Clock PCB 2.0 Module Based,44696769-7461-46c2-9043-6c6f636b2050,rev?*%
%TF.SameCoordinates,Original*%
%TF.FileFunction,Soldermask,Bot*%
%TF.FilePolarity,Negative*%
%FSLAX46Y46*%
G04 Gerber Fmt 4.6, Leading zero omitted, Abs format (unit mm)*
G04 Created by KiCad (PCBNEW (6.0.9)) date 2022-12-22 16:46:14*
%MOMM*%
%LPD*%
G01*
G04 APERTURE LIST*
%ADD10R,1.700000X1.700000*%
%ADD11O,1.700000X1.700000*%
%ADD12C,0.650000*%
%ADD13O,1.600000X1.000000*%
%ADD14O,2.100000X1.000000*%
%ADD15C,0.500000*%
%ADD16C,1.500000*%
G04 APERTURE END LIST*
D10*
%TO.C,J3*%
X236651800Y-118973600D03*
D11*
X234111800Y-118973600D03*
X231571800Y-118973600D03*
X229031800Y-118973600D03*
%TD*%
D12*
%TO.C,J1*%
X150604600Y-106217200D03*
X150604600Y-100437200D03*
D13*
X146954600Y-99007200D03*
D14*
X151134600Y-107647200D03*
D13*
X146954600Y-107647200D03*
D14*
X151134600Y-99007200D03*
%TD*%
D10*
%TO.C,J2*%
X256590800Y-117068600D03*
D11*
X254050800Y-117068600D03*
X251510800Y-117068600D03*
X248970800Y-117068600D03*
%TD*%
D15*
%TO.C,U1*%
X255694400Y-103176400D03*
X254994400Y-102476400D03*
X253594400Y-102476400D03*
X255694400Y-101776400D03*
X254994400Y-101076400D03*
X255694400Y-100376400D03*
X256394400Y-102476400D03*
X254294400Y-101776400D03*
X254294400Y-100376400D03*
X256394400Y-101076400D03*
X254294400Y-103176400D03*
X253594400Y-101076400D03*
%TD*%
D16*
%TO.C,U5*%
X259003800Y-123327200D03*
X256463800Y-123327200D03*
X253923800Y-123327200D03*
X251383800Y-123327200D03*
X248843800Y-123327200D03*
X248843800Y-83327200D03*
X251383800Y-83327200D03*
X253923800Y-83327200D03*
X256463800Y-83327200D03*
X259003800Y-83327200D03*
%TD*%
%TO.C,U10*%
X197789800Y-123327200D03*
X195249800Y-123327200D03*
X192709800Y-123327200D03*
X190169800Y-123327200D03*
X187629800Y-123327200D03*
X187629800Y-83327200D03*
X190169800Y-83327200D03*
X192709800Y-83327200D03*
X195249800Y-83327200D03*
X197789800Y-83327200D03*
%TD*%
%TO.C,U9*%
X228396800Y-123327200D03*
X225856800Y-123327200D03*
X223316800Y-123327200D03*
X220776800Y-123327200D03*
X218236800Y-123327200D03*
X218236800Y-83327200D03*
X220776800Y-83327200D03*
X223316800Y-83327200D03*
X225856800Y-83327200D03*
X228396800Y-83327200D03*
%TD*%
%TO.C,U6*%
X167182800Y-123327200D03*
X164642800Y-123327200D03*
X162102800Y-123327200D03*
X159562800Y-123327200D03*
X157022800Y-123327200D03*
X157022800Y-83327200D03*
X159562800Y-83327200D03*
X162102800Y-83327200D03*
X164642800Y-83327200D03*
X167182800Y-83327200D03*
%TD*%
M02*
