%TF.GenerationSoftware,KiCad,Pcbnew,(6.0.9)*%
%TF.CreationDate,2022-12-22T16:46:14-05:00*%
%TF.ProjectId,Digital Clock PCB 2.0 Module Based,44696769-7461-46c2-9043-6c6f636b2050,rev?*%
%TF.SameCoordinates,Original*%
%TF.FileFunction,Soldermask,Top*%
%TF.FilePolarity,Negative*%
%FSLAX46Y46*%
G04 Gerber Fmt 4.6, Leading zero omitted, Abs format (unit mm)*
G04 Created by KiCad (PCBNEW (6.0.9)) date 2022-12-22 16:46:14*
%MOMM*%
%LPD*%
G01*
G04 APERTURE LIST*
G04 Aperture macros list*
%AMRoundRect*
0 Rectangle with rounded corners*
0 $1 Rounding radius*
0 $2 $3 $4 $5 $6 $7 $8 $9 X,Y pos of 4 corners*
0 Add a 4 corners polygon primitive as box body*
4,1,4,$2,$3,$4,$5,$6,$7,$8,$9,$2,$3,0*
0 Add four circle primitives for the rounded corners*
1,1,$1+$1,$2,$3*
1,1,$1+$1,$4,$5*
1,1,$1+$1,$6,$7*
1,1,$1+$1,$8,$9*
0 Add four rect primitives between the rounded corners*
20,1,$1+$1,$2,$3,$4,$5,0*
20,1,$1+$1,$4,$5,$6,$7,0*
20,1,$1+$1,$6,$7,$8,$9,0*
20,1,$1+$1,$8,$9,$2,$3,0*%
G04 Aperture macros list end*
%ADD10RoundRect,0.225000X0.225000X0.250000X-0.225000X0.250000X-0.225000X-0.250000X0.225000X-0.250000X0*%
%ADD11RoundRect,0.250000X0.450000X-0.262500X0.450000X0.262500X-0.450000X0.262500X-0.450000X-0.262500X0*%
%ADD12RoundRect,0.200000X-0.200000X-0.275000X0.200000X-0.275000X0.200000X0.275000X-0.200000X0.275000X0*%
%ADD13RoundRect,0.150000X0.587500X0.150000X-0.587500X0.150000X-0.587500X-0.150000X0.587500X-0.150000X0*%
%ADD14RoundRect,0.137500X-0.662500X-0.137500X0.662500X-0.137500X0.662500X0.137500X-0.662500X0.137500X0*%
%ADD15RoundRect,0.250000X-0.450000X0.262500X-0.450000X-0.262500X0.450000X-0.262500X0.450000X0.262500X0*%
%ADD16RoundRect,0.220000X-0.330000X-0.330000X0.330000X-0.330000X0.330000X0.330000X-0.330000X0.330000X0*%
%ADD17RoundRect,0.250000X0.475000X-0.250000X0.475000X0.250000X-0.475000X0.250000X-0.475000X-0.250000X0*%
%ADD18RoundRect,0.225000X-0.225000X-0.250000X0.225000X-0.250000X0.225000X0.250000X-0.225000X0.250000X0*%
%ADD19RoundRect,0.300000X-0.450000X0.300000X-0.450000X-0.300000X0.450000X-0.300000X0.450000X0.300000X0*%
%ADD20RoundRect,0.055000X-0.195000X0.055000X-0.195000X-0.055000X0.195000X-0.055000X0.195000X0.055000X0*%
%ADD21RoundRect,0.055000X0.195000X-0.055000X0.195000X0.055000X-0.195000X0.055000X-0.195000X-0.055000X0*%
%ADD22R,1.500000X2.000000*%
%ADD23R,3.800000X2.000000*%
%ADD24R,1.700000X1.700000*%
%ADD25O,1.700000X1.700000*%
%ADD26C,0.650000*%
%ADD27R,1.450000X0.600000*%
%ADD28R,1.450000X0.300000*%
%ADD29O,1.600000X1.000000*%
%ADD30O,2.100000X1.000000*%
%ADD31RoundRect,0.250000X0.262500X0.450000X-0.262500X0.450000X-0.262500X-0.450000X0.262500X-0.450000X0*%
%ADD32RoundRect,0.150000X-0.150000X0.587500X-0.150000X-0.587500X0.150000X-0.587500X0.150000X0.587500X0*%
%ADD33RoundRect,0.225000X-0.250000X0.225000X-0.250000X-0.225000X0.250000X-0.225000X0.250000X0.225000X0*%
%ADD34R,0.900000X1.500000*%
%ADD35R,1.500000X0.900000*%
%ADD36C,0.500000*%
%ADD37R,3.900000X3.900000*%
%ADD38C,1.500000*%
G04 APERTURE END LIST*
D10*
%TO.C,C3*%
X259956600Y-91109800D03*
X258406600Y-91109800D03*
%TD*%
D11*
%TO.C,R41*%
X228396800Y-87018500D03*
X228396800Y-85193500D03*
%TD*%
D12*
%TO.C,R3*%
X259956800Y-89636600D03*
X261606800Y-89636600D03*
%TD*%
D13*
%TO.C,Q1*%
X262858100Y-124292400D03*
X262858100Y-122392400D03*
X260983100Y-123342400D03*
%TD*%
D12*
%TO.C,R12*%
X158356800Y-104165400D03*
X160006800Y-104165400D03*
%TD*%
%TO.C,R33*%
X207886800Y-102489000D03*
X209536800Y-102489000D03*
%TD*%
D11*
%TO.C,R27*%
X167182800Y-87018500D03*
X167182800Y-85193500D03*
%TD*%
D14*
%TO.C,U3*%
X227077200Y-98729800D03*
X227077200Y-99999800D03*
X227077200Y-101269800D03*
X227077200Y-102539800D03*
X227077200Y-103809800D03*
X227077200Y-105079800D03*
X227077200Y-106349800D03*
X227077200Y-107619800D03*
X233577200Y-107619800D03*
X233577200Y-106349800D03*
X233577200Y-105079800D03*
X233577200Y-103809800D03*
X233577200Y-102539800D03*
X233577200Y-101269800D03*
X233577200Y-99999800D03*
X233577200Y-98729800D03*
%TD*%
D15*
%TO.C,R24*%
X162102800Y-119635900D03*
X162102800Y-121460900D03*
%TD*%
D12*
%TO.C,R2*%
X153937200Y-105079800D03*
X155587200Y-105079800D03*
%TD*%
%TO.C,R1*%
X153937200Y-102082600D03*
X155587200Y-102082600D03*
%TD*%
D11*
%TO.C,R49*%
X197789800Y-87018500D03*
X197789800Y-85193500D03*
%TD*%
D16*
%TO.C,SW2*%
X210850600Y-82708200D03*
X205150600Y-82708200D03*
X210850600Y-86608200D03*
X205150600Y-86608200D03*
%TD*%
D15*
%TO.C,R46*%
X192709800Y-119635900D03*
X192709800Y-121460900D03*
%TD*%
D11*
%TO.C,R20*%
X253923800Y-87018500D03*
X253923800Y-85193500D03*
%TD*%
%TO.C,R44*%
X187629800Y-87018500D03*
X187629800Y-85193500D03*
%TD*%
D15*
%TO.C,R15*%
X251383800Y-119635900D03*
X251383800Y-121460900D03*
%TD*%
D12*
%TO.C,R32*%
X207886800Y-101015800D03*
X209536800Y-101015800D03*
%TD*%
%TO.C,R29*%
X177660800Y-100787200D03*
X179310800Y-100787200D03*
%TD*%
D11*
%TO.C,R5*%
X264793100Y-122349900D03*
X264793100Y-120524900D03*
%TD*%
%TO.C,R21*%
X159562800Y-87018500D03*
X159562800Y-85193500D03*
%TD*%
%TO.C,R36*%
X218236800Y-87018500D03*
X218236800Y-85193500D03*
%TD*%
%TO.C,R50*%
X192709800Y-87018500D03*
X192709800Y-85193500D03*
%TD*%
D14*
%TO.C,U8*%
X181027000Y-98450400D03*
X181027000Y-99720400D03*
X181027000Y-100990400D03*
X181027000Y-102260400D03*
X181027000Y-103530400D03*
X181027000Y-104800400D03*
X181027000Y-106070400D03*
X181027000Y-107340400D03*
X187527000Y-107340400D03*
X187527000Y-106070400D03*
X187527000Y-104800400D03*
X187527000Y-103530400D03*
X187527000Y-102260400D03*
X187527000Y-100990400D03*
X187527000Y-99720400D03*
X187527000Y-98450400D03*
%TD*%
D17*
%TO.C,C9*%
X208991200Y-123073200D03*
X208991200Y-121173200D03*
%TD*%
D11*
%TO.C,R13*%
X251383800Y-87018500D03*
X251383800Y-85193500D03*
%TD*%
D17*
%TO.C,C8*%
X207035400Y-123073200D03*
X207035400Y-121173200D03*
%TD*%
D15*
%TO.C,R23*%
X159562800Y-119635900D03*
X159562800Y-121460900D03*
%TD*%
D12*
%TO.C,R8*%
X223711000Y-102539800D03*
X225361000Y-102539800D03*
%TD*%
D18*
%TO.C,C5*%
X211061000Y-111252000D03*
X212611000Y-111252000D03*
%TD*%
D19*
%TO.C,PD1*%
X208026000Y-114071400D03*
D20*
X206626000Y-113639600D03*
X206626000Y-114071400D03*
X206626000Y-114503200D03*
D21*
X209426000Y-114503200D03*
X209426000Y-114071400D03*
X209426000Y-113639600D03*
%TD*%
D22*
%TO.C,U2*%
X155258800Y-115188600D03*
D23*
X152958800Y-121488600D03*
D22*
X152958800Y-115188600D03*
X150658800Y-115188600D03*
%TD*%
D17*
%TO.C,C6*%
X259384800Y-118983800D03*
X259384800Y-117083800D03*
%TD*%
D24*
%TO.C,J3*%
X236651800Y-118973600D03*
D25*
X234111800Y-118973600D03*
X231571800Y-118973600D03*
X229031800Y-118973600D03*
%TD*%
D12*
%TO.C,R9*%
X223711000Y-104013000D03*
X225361000Y-104013000D03*
%TD*%
D17*
%TO.C,C1*%
X150672800Y-113106200D03*
X150672800Y-111206200D03*
%TD*%
D11*
%TO.C,R40*%
X225856800Y-87018500D03*
X225856800Y-85193500D03*
%TD*%
D26*
%TO.C,J1*%
X150604600Y-106217200D03*
X150604600Y-100437200D03*
D27*
X152049600Y-100077200D03*
X152049600Y-100877200D03*
D28*
X152049600Y-102077200D03*
X152049600Y-103077200D03*
X152049600Y-103577200D03*
X152049600Y-104577200D03*
D27*
X152049600Y-105777200D03*
X152049600Y-106577200D03*
X152049600Y-106577200D03*
X152049600Y-105777200D03*
D28*
X152049600Y-105077200D03*
X152049600Y-104077200D03*
X152049600Y-102577200D03*
X152049600Y-101577200D03*
D27*
X152049600Y-100877200D03*
X152049600Y-100077200D03*
D29*
X146954600Y-99007200D03*
D30*
X151134600Y-107647200D03*
D29*
X146954600Y-107647200D03*
D30*
X151134600Y-99007200D03*
%TD*%
D11*
%TO.C,R18*%
X256463800Y-87018500D03*
X256463800Y-85193500D03*
%TD*%
D12*
%TO.C,R11*%
X158356800Y-102692200D03*
X160006800Y-102692200D03*
%TD*%
D11*
%TO.C,R14*%
X248843800Y-87018500D03*
X248843800Y-85193500D03*
%TD*%
D16*
%TO.C,SW1*%
X210876000Y-88753400D03*
X205176000Y-88753400D03*
X210876000Y-92653400D03*
X205176000Y-92653400D03*
%TD*%
D12*
%TO.C,R30*%
X177660800Y-102260400D03*
X179310800Y-102260400D03*
%TD*%
D17*
%TO.C,C2*%
X152958800Y-113116400D03*
X152958800Y-111216400D03*
%TD*%
D15*
%TO.C,R39*%
X225856800Y-119635900D03*
X225856800Y-121460900D03*
%TD*%
D31*
%TO.C,R4*%
X264947400Y-114960400D03*
X263122400Y-114960400D03*
%TD*%
D32*
%TO.C,Q2*%
X264983000Y-116893100D03*
X263083000Y-116893100D03*
X264033000Y-118768100D03*
%TD*%
D12*
%TO.C,R31*%
X177660800Y-103733600D03*
X179310800Y-103733600D03*
%TD*%
D11*
%TO.C,R43*%
X190169800Y-87018500D03*
X190169800Y-85193500D03*
%TD*%
D15*
%TO.C,R25*%
X164642800Y-119635900D03*
X164642800Y-121460900D03*
%TD*%
D24*
%TO.C,J2*%
X256590800Y-117068600D03*
D25*
X254050800Y-117068600D03*
X251510800Y-117068600D03*
X248970800Y-117068600D03*
%TD*%
D11*
%TO.C,R19*%
X259003800Y-87018500D03*
X259003800Y-85193500D03*
%TD*%
%TO.C,R48*%
X195249800Y-87018500D03*
X195249800Y-85193500D03*
%TD*%
D15*
%TO.C,R37*%
X220776800Y-119635900D03*
X220776800Y-121460900D03*
%TD*%
D12*
%TO.C,R34*%
X207886800Y-103962200D03*
X209536800Y-103962200D03*
%TD*%
%TO.C,R10*%
X158356800Y-101219000D03*
X160006800Y-101219000D03*
%TD*%
D15*
%TO.C,R45*%
X190169800Y-119635900D03*
X190169800Y-121460900D03*
%TD*%
D12*
%TO.C,R7*%
X223711000Y-101066600D03*
X225361000Y-101066600D03*
%TD*%
D17*
%TO.C,C7*%
X261340600Y-118983800D03*
X261340600Y-117083800D03*
%TD*%
D11*
%TO.C,R26*%
X164642800Y-87018500D03*
X164642800Y-85193500D03*
%TD*%
D15*
%TO.C,R47*%
X195249800Y-119635900D03*
X195249800Y-121460900D03*
%TD*%
D14*
%TO.C,U7*%
X211253000Y-98679000D03*
X211253000Y-99949000D03*
X211253000Y-101219000D03*
X211253000Y-102489000D03*
X211253000Y-103759000D03*
X211253000Y-105029000D03*
X211253000Y-106299000D03*
X211253000Y-107569000D03*
X217753000Y-107569000D03*
X217753000Y-106299000D03*
X217753000Y-105029000D03*
X217753000Y-103759000D03*
X217753000Y-102489000D03*
X217753000Y-101219000D03*
X217753000Y-99949000D03*
X217753000Y-98679000D03*
%TD*%
D15*
%TO.C,R38*%
X223316800Y-119635900D03*
X223316800Y-121460900D03*
%TD*%
D11*
%TO.C,R42*%
X223316800Y-87018500D03*
X223316800Y-85193500D03*
%TD*%
D33*
%TO.C,C4*%
X204368400Y-113296400D03*
X204368400Y-114846400D03*
%TD*%
D11*
%TO.C,R28*%
X162102800Y-87018500D03*
X162102800Y-85193500D03*
%TD*%
D31*
%TO.C,R6*%
X263065900Y-120700800D03*
X261240900Y-120700800D03*
%TD*%
D11*
%TO.C,R35*%
X220776800Y-87018500D03*
X220776800Y-85193500D03*
%TD*%
%TO.C,R22*%
X157022800Y-87018500D03*
X157022800Y-85193500D03*
%TD*%
D34*
%TO.C,U1*%
X262714400Y-94526400D03*
X261444400Y-94526400D03*
X260174400Y-94526400D03*
X258904400Y-94526400D03*
X257634400Y-94526400D03*
X256364400Y-94526400D03*
X255094400Y-94526400D03*
X253824400Y-94526400D03*
X252554400Y-94526400D03*
X251284400Y-94526400D03*
X250014400Y-94526400D03*
X248744400Y-94526400D03*
X247474400Y-94526400D03*
X246204400Y-94526400D03*
D35*
X244954400Y-96291400D03*
X244954400Y-97561400D03*
X244954400Y-98831400D03*
X244954400Y-100101400D03*
X244954400Y-101371400D03*
X244954400Y-102641400D03*
X244954400Y-103911400D03*
X244954400Y-105181400D03*
X244954400Y-106451400D03*
X244954400Y-107721400D03*
X244954400Y-108991400D03*
X244954400Y-110261400D03*
D34*
X246204400Y-112026400D03*
X247474400Y-112026400D03*
X248744400Y-112026400D03*
X250014400Y-112026400D03*
X251284400Y-112026400D03*
X252554400Y-112026400D03*
X253824400Y-112026400D03*
X255094400Y-112026400D03*
X256364400Y-112026400D03*
X257634400Y-112026400D03*
X258904400Y-112026400D03*
X260174400Y-112026400D03*
X261444400Y-112026400D03*
X262714400Y-112026400D03*
D36*
X255694400Y-103176400D03*
X254994400Y-102476400D03*
X253594400Y-102476400D03*
X255694400Y-101776400D03*
X254994400Y-101076400D03*
X255694400Y-100376400D03*
X256394400Y-102476400D03*
D37*
X254994400Y-101776400D03*
D36*
X254294400Y-101776400D03*
X254294400Y-100376400D03*
X256394400Y-101076400D03*
X254294400Y-103176400D03*
X253594400Y-101076400D03*
%TD*%
D15*
%TO.C,R16*%
X253923800Y-119635900D03*
X253923800Y-121460900D03*
%TD*%
%TO.C,R17*%
X256463800Y-119635900D03*
X256463800Y-121460900D03*
%TD*%
D14*
%TO.C,U4*%
X161748400Y-98882200D03*
X161748400Y-100152200D03*
X161748400Y-101422200D03*
X161748400Y-102692200D03*
X161748400Y-103962200D03*
X161748400Y-105232200D03*
X161748400Y-106502200D03*
X161748400Y-107772200D03*
X168248400Y-107772200D03*
X168248400Y-106502200D03*
X168248400Y-105232200D03*
X168248400Y-103962200D03*
X168248400Y-102692200D03*
X168248400Y-101422200D03*
X168248400Y-100152200D03*
X168248400Y-98882200D03*
%TD*%
D38*
%TO.C,U5*%
X259003800Y-123327200D03*
X256463800Y-123327200D03*
X253923800Y-123327200D03*
X251383800Y-123327200D03*
X248843800Y-123327200D03*
X248843800Y-83327200D03*
X251383800Y-83327200D03*
X253923800Y-83327200D03*
X256463800Y-83327200D03*
X259003800Y-83327200D03*
%TD*%
%TO.C,U10*%
X197789800Y-123327200D03*
X195249800Y-123327200D03*
X192709800Y-123327200D03*
X190169800Y-123327200D03*
X187629800Y-123327200D03*
X187629800Y-83327200D03*
X190169800Y-83327200D03*
X192709800Y-83327200D03*
X195249800Y-83327200D03*
X197789800Y-83327200D03*
%TD*%
%TO.C,U9*%
X228396800Y-123327200D03*
X225856800Y-123327200D03*
X223316800Y-123327200D03*
X220776800Y-123327200D03*
X218236800Y-123327200D03*
X218236800Y-83327200D03*
X220776800Y-83327200D03*
X223316800Y-83327200D03*
X225856800Y-83327200D03*
X228396800Y-83327200D03*
%TD*%
%TO.C,U6*%
X167182800Y-123327200D03*
X164642800Y-123327200D03*
X162102800Y-123327200D03*
X159562800Y-123327200D03*
X157022800Y-123327200D03*
X157022800Y-83327200D03*
X159562800Y-83327200D03*
X162102800Y-83327200D03*
X164642800Y-83327200D03*
X167182800Y-83327200D03*
%TD*%
M02*
