M48
; DRILL file {KiCad (6.0.9)} date Thu Dec 22 16:46:14 2022
; FORMAT={-:-/ absolute / inch / decimal}
; #@! TF.CreationDate,2022-12-22T16:46:14-05:00
; #@! TF.GenerationSoftware,Kicad,Pcbnew,(6.0.9)
; #@! TF.FileFunction,Plated,1,2,PTH
FMAT,2
INCH
; #@! TA.AperFunction,Plated,PTH,ComponentDrill
T1C0.0079
; #@! TA.AperFunction,Plated,PTH,ViaDrill
T2C0.0098
; #@! TA.AperFunction,Plated,PTH,ViaDrill
T3C0.0118
; #@! TA.AperFunction,Plated,PTH,ViaDrill
T4C0.0157
; #@! TA.AperFunction,Plated,PTH,ComponentDrill
T5C0.0236
; #@! TA.AperFunction,Plated,PTH,ComponentDrill
T6C0.0315
; #@! TA.AperFunction,Plated,PTH,ComponentDrill
T7C0.0394
%
G90
G05
T1
X9.984Y-3.9794
X9.984Y-4.0345
X10.0116Y-3.9518
X10.0116Y-4.0069
X10.0116Y-4.0621
X10.0391Y-3.9794
X10.0391Y-4.0345
X10.0667Y-3.9518
X10.0667Y-4.0069
X10.0667Y-4.0621
X10.0943Y-3.9794
X10.0943Y-4.0345
T2
X5.834Y-4.385
X5.9Y-4.298
X6.054Y-3.663
X6.056Y-3.879
X6.059Y-3.466
X6.13Y-3.355
X6.131Y-3.555
X6.132Y-3.752
X6.133Y-3.431
X6.173Y-4.02
X6.195Y-4.135
X6.212Y-3.938
X6.233Y-3.429
X6.331Y-3.353
X6.383Y-3.475
X6.432Y-3.426
X6.504Y-4.168
X6.53Y-3.353
X6.635Y-3.427
X6.719Y-4.168
X6.736Y-3.918
X6.773Y-3.608
X6.773Y-4.609
X6.814Y-3.918
X6.83Y-3.353
X6.83Y-3.426
X6.895Y-3.427
X6.897Y-3.353
X6.904Y-3.918
X7.196Y-3.428
X7.243Y-4.152
X7.251Y-3.901
X7.317Y-3.901
X7.338Y-3.355
X7.436Y-3.428
X7.513Y-3.901
X7.537Y-3.354
X7.592Y-3.484
X7.636Y-3.427
X7.695Y-4.152
X7.737Y-3.353
X7.739Y-3.901
X7.79Y-3.503
X7.844Y-3.901
X7.845Y-4.152
X7.858Y-4.563
X7.882Y-3.428
X7.917Y-4.561
X7.95Y-4.506
X7.963Y-3.51
X7.968Y-4.152
X8.018Y-3.351
X8.045Y-3.901
X8.135Y-4.45
X8.222Y-3.436
X8.264Y-3.353
X8.275Y-4.38
X8.275Y-4.491
X8.3Y-4.467
X8.3Y-4.515
X8.419Y-3.351
X8.487Y-3.329
X8.534Y-4.61
X8.536Y-3.43
X8.546Y-4.332
X8.601Y-4.548
X8.642Y-3.455
X8.732Y-4.547
X8.741Y-3.454
X8.792Y-3.482
X8.835Y-4.547
X8.842Y-3.459
X8.942Y-3.455
X9.046Y-3.43
X9.055Y-3.296
X9.058Y-3.355
X9.069Y-4.334
X9.156Y-3.842
X9.251Y-3.429
X9.261Y-4.547
X9.357Y-3.298
X9.368Y-4.547
X9.46Y-4.407
X9.464Y-4.547
X9.524Y-4.459
X9.5245Y-4.4105
X9.577Y-4.191
X9.577Y-4.241
X9.577Y-4.548
X9.65Y-4.462
X9.695Y-3.297
X9.717Y-4.521
X9.717Y-4.556
X9.717Y-4.591
X9.719Y-4.624
X9.734Y-3.368
X9.746Y-4.466
X9.8209Y-4.4772
X9.847Y-3.392
X9.893Y-4.357
X9.946Y-3.389
X10.047Y-3.389
X10.12Y-3.55
X10.141Y-3.469
X10.181Y-3.537
X10.204Y-3.638
X10.234Y-3.486
X10.256Y-3.39
T3
X6.421Y-3.893
X6.421Y-3.943
X6.421Y-4.143
X6.421Y-4.193
X7.18Y-3.876
X7.18Y-3.926
X7.18Y-4.126
X7.18Y-4.176
X9.426Y-3.582
X9.456Y-3.609
X9.458Y-3.5569
X9.484Y-3.639
X9.522Y-3.684
X9.522Y-3.723
X9.523Y-3.642
X9.533Y-3.535
T4
X5.843Y-4.726
X5.932Y-4.6
X5.932Y-4.627
X6.077Y-4.453
X6.108Y-4.367
X6.109Y-4.453
X6.118Y-4.663
X6.157Y-4.929
X6.1613Y-4.067
X6.1613Y-4.1084
X6.271Y-4.406
X6.309Y-3.936
X6.334Y-4.504
X6.335Y-3.475
X6.367Y-3.849
X6.444Y-4.41
X6.461Y-3.983
X6.534Y-3.816
X6.584Y-4.493
X6.624Y-3.853
X6.65Y-3.803
X6.661Y-4.409
X6.733Y-3.649
X6.733Y-4.105
X6.735Y-3.986
X6.741Y-4.49
X6.812Y-4.008
X6.814Y-4.283
X6.814Y-4.415
X6.815Y-3.791
X6.863Y-3.75
X6.863Y-3.844
X6.863Y-4.233
X6.863Y-4.262
X6.913Y-3.853
X6.918Y-4.256
X6.927Y-4.092
X6.984Y-3.784
X7.062Y-4.144
X7.082Y-4.34
X7.198Y-3.997
X7.203Y-4.231
X7.292Y-4.243
X7.293Y-4.34
X7.308Y-4.093
X7.368Y-4.263
X7.39Y-4.341
X7.449Y-4.236
X7.46Y-3.75
X7.461Y-4.082
X7.567Y-4.342
X7.761Y-4.233
X7.773Y-3.966
X7.823Y-4.602
X7.842Y-4.343
X7.844Y-4.086
X7.845Y-4.231
X7.959Y-4.34
X7.963Y-4.233
X7.967Y-4.08
X8.057Y-4.796
X8.088Y-4.513
X8.097Y-3.963
X8.13Y-4.101
X8.177Y-4.344
X8.244Y-4.151
X8.305Y-4.799
X8.37Y-4.338
X8.374Y-3.885
X8.374Y-3.935
X8.374Y-4.135
X8.374Y-4.185
X8.44Y-3.773
X8.44Y-4.582
X8.444Y-3.929
X8.589Y-3.841
X8.609Y-4.792
X8.622Y-4.706
X8.639Y-3.828
X8.639Y-4.02
X8.639Y-4.298
X8.681Y-3.98
X8.695Y-4.335
X8.701Y-4.059
X8.74Y-4.673
X8.817Y-3.841
X8.829Y-4.185
X8.844Y-4.665
X8.867Y-3.891
X8.96Y-4.606
X8.989Y-4.137
X8.989Y-4.187
X8.99Y-3.887
X8.99Y-3.937
X9.022Y-4.059
X9.105Y-4.803
X9.16Y-4.334
X9.196Y-3.851
X9.252Y-4.334
X9.262Y-4.073
X9.311Y-3.851
X9.311Y-4.259
X9.358Y-3.879
X9.362Y-4.075
X9.389Y-4.262
X9.51Y-4.056
X9.522Y-3.864
X9.55Y-3.752
X9.568Y-4.342
X9.588Y-3.941
X9.588Y-3.991
X9.588Y-4.041
X9.588Y-4.091
X9.589Y-3.791
X9.589Y-3.841
X9.589Y-3.891
X9.6974Y-3.773
X9.712Y-4.342
X9.716Y-3.875
X9.726Y-4.8
X9.7388Y-3.773
X9.752Y-4.0
X9.797Y-4.298
X9.815Y-3.791
X9.84Y-4.168
X9.886Y-4.471
X9.946Y-3.796
X9.982Y-4.343
X9.997Y-3.458
X10.041Y-4.204
X10.16Y-4.797
X10.189Y-4.166
X10.201Y-4.481
X10.216Y-3.871
X10.217Y-4.746
X10.245Y-4.746
X10.302Y-4.558
X10.314Y-4.049
X10.345Y-3.78
X10.352Y-4.68
X10.354Y-3.293
X10.355Y-4.347
X10.369Y-4.465
X10.371Y-3.659
X10.455Y-4.683
X10.537Y-4.545
X10.539Y-4.828
T6
X6.182Y-3.2806
X6.182Y-4.8554
X6.282Y-3.2806
X6.282Y-4.8554
X6.382Y-3.2806
X6.382Y-4.8554
X6.482Y-3.2806
X6.482Y-4.8554
X6.582Y-3.2806
X6.582Y-4.8554
X7.387Y-3.2806
X7.387Y-4.8554
X7.487Y-3.2806
X7.487Y-4.8554
X7.587Y-3.2806
X7.587Y-4.8554
X7.687Y-3.2806
X7.687Y-4.8554
X7.787Y-3.2806
X7.787Y-4.8554
X8.592Y-3.2806
X8.592Y-4.8554
X8.692Y-3.2806
X8.692Y-4.8554
X8.792Y-3.2806
X8.792Y-4.8554
X8.892Y-3.2806
X8.892Y-4.8554
X8.992Y-3.2806
X8.992Y-4.8554
X9.797Y-3.2806
X9.797Y-4.8554
X9.897Y-3.2806
X9.897Y-4.8554
X9.997Y-3.2806
X9.997Y-4.8554
X10.097Y-3.2806
X10.097Y-4.8554
X10.197Y-3.2806
X10.197Y-4.8554
T7
X9.017Y-4.684
X9.117Y-4.684
X9.217Y-4.684
X9.317Y-4.684
X9.802Y-4.609
X9.902Y-4.609
X10.002Y-4.609
X10.102Y-4.609
T5
G00X5.7974Y-3.8979
M15
G01X5.7738Y-3.8979
M16
G05
G00X5.7974Y-4.2381
M15
G01X5.7738Y-4.2381
M16
G05
G00X5.9718Y-3.8979
M15
G01X5.9285Y-3.8979
M16
G05
G00X5.9718Y-4.2381
M15
G01X5.9285Y-4.2381
M16
G05
T0
M30
